<svg width="80" height="26" viewBox="0 0 80 26" fill="none" xmlns="http://www.w3.org/2000/svg"><path d="M1.05957 4.24414L1.8457 7.2666l.10254.57617h.02442l.12207-.57617.95215-3.02246h.69335l.95215 3.02246.13672.64453h.0293l.12695-.64453.74707-3.02246h.85938L5.20996 9h-.69824l-.91797-2.89551-.19531-.81054-.0293.00488-.18555.80566L2.27539 9h-.69824L.200195 4.24414h.859375zm6.81641 0l.78613 3.02246.10254.57617h.02441l.12207-.57617.95215-3.02246h.69332l.9522 3.02246.1367.64453h.0293l.127-.64453.747-3.02246h.8594L12.0264 9h-.6983l-.9179-2.89551-.1954-.81054-.0293.00488L10 6.10449 9.0918 9h-.69825L7.0166 4.24414h.85938zm6.81642 0l.7861 3.02246.1026.57617h.0244l.122-.57617.9522-3.02246h.6933l.9522 3.02246.1367.64453h.0293l.127-.64453.747-3.02246h.8594L18.8428 9h-.6983l-.9179-2.89551-.1954-.81054-.0292.00488-.1856.80566L15.9082 9H15.21l-1.377-4.75586h.8594zm6.7822 3.86719V9h-.8642v-.88867h.8642zm2.1338-1.52344v.09766c0 .52734.1074.94889.3223 1.26465.2181.31575.5306.47363.9375.47363.4069 0 .7194-.15788.9375-.47363.2181-.31902.3271-.74056.3271-1.26465v-.09766c0-.51758-.1107-.93587-.332-1.25488-.2181-.32227-.5306-.4834-.9375-.4834-.4037 0-.7145.16113-.9326.4834-.2149.31901-.3223.7373-.3223 1.25488zm-.8691.09766v-.09766c0-.71615.192-1.29883.5761-1.74805.3841-.44922.9017-.67382 1.5528-.67382.651 0 1.1686.2246 1.5527.67382.3841.44597.5762 1.02865.5762 1.74805v.09766c0 .72265-.1921 1.30696-.5762 1.75293-.3809.4427-.8984.66406-1.5527.66406-.6511 0-1.1687-.22298-1.5528-.66895-.3841-.44596-.5761-1.02864-.5761-1.74804zm7.0898 1.72851c.306 0 .5469-.06022.7227-.18066.1757-.1237.2636-.28646.2636-.48828 0-.20183-.0748-.36133-.2246-.47852-.1497-.12044-.4215-.22624-.8154-.31738-.599-.13021-1.04-.30274-1.3233-.51758-.2799-.2181-.4199-.51758-.4199-.89844s.166-.70475.4981-.97168c.332-.27018.7649-.40527 1.2988-.40527.5339 0 .9652.1416 1.2939.4248.3321.27995.49.62826.4737 1.04493l-.0098.02441h-.8252c0-.2181-.0895-.4069-.2685-.56641-.1758-.1595-.4086-.23925-.6983-.23925-.2864 0-.5078.0651-.664.19531-.1563.12695-.2344.28971-.2344.48828 0 .19857.0683.34994.2051.4541.1367.10417.4052.19857.8056.2832.612.13347 1.0612.3125 1.3477.53711.2864.22136.4297.51595.4297.88379 0 .42318-.1709.76498-.5127 1.02539-.3386.26042-.7943.39063-1.3672.39063s-1.0368-.14974-1.3916-.44922c-.3516-.29948-.5192-.66243-.5029-1.08887l.0097-.02441h.8252c.0163.29297.1253.51432.3272.66406.205.14649.4606.21973.7666.21973l-.0098-.00977zm3.8721-4.16992V9h-.8643V4.24414h.8643zm0-2.09961v.88379h-.8643v-.88379h.8643zm1.9482 2.09961l.9961 1.75293 1.0107-1.75293h1.0108l-1.543 2.35352L38.7109 9h-.9912L36.665 7.20312 35.6104 9h-1.0059l1.5869-2.40234-1.543-2.35352h1.001zm4.8584 3.86719V9h-.8642v-.88867h.8642zm4.3848-2.06543c0-.35807-.0928-.64616-.2783-.86426-.1856-.22135-.4525-.33203-.8008-.33203-.2865 0-.5339.12044-.7422.36133-.2051.24088-.332.5485-.3809.92285l.0098.02441h2.1924v-.1123zm-.9473 3.05664c-.6608 0-1.1881-.2181-1.582-.6543-.3906-.4362-.586-1.01074-.586-1.72363V6.5293c0-.66732.1986-1.22722.5957-1.67969.4004-.45573.8806-.68359 1.4405-.68359.6315 0 1.1133.19043 1.4453.57128.3353.37761.5029.89681.5029 1.55762v.54199h-3.0859l-.0147.01954c.0098.46875.127.84798.3516 1.13769.2279.28646.5387.42969.9326.42969.5534 0 1.0026-.15625 1.3477-.46875l.3418.56152h-.0049c-.3972.39063-.9587.58594-1.6846.58594zm4.5654-.68848c.306 0 .5469-.06022.7227-.18066.1758-.1237.2637-.28646.2637-.48828 0-.20183-.0749-.36133-.2246-.47852-.1498-.12044-.4216-.22624-.8155-.31738-.5989-.13021-1.04-.30274-1.3232-.51758-.28-.2181-.4199-.51758-.4199-.89844s.166-.70475.498-.97168c.332-.27018.765-.40527 1.2988-.40527.5339 0 .9652.1416 1.294.4248.332.27995.4899.62826.4736 1.04493l-.0097.02441h-.8252c0-.2181-.0896-.4069-.2686-.56641-.1758-.1595-.4085-.23925-.6982-.23925-.2865 0-.5078.0651-.6641.19531-.1563.12695-.2344.28971-.2344.48828 0 .19857.0684.34994.2051.4541.1367.10417.4053.19857.8057.2832.6119.13347 1.0612.3125 1.3476.53711.2865.22136.4297.51595.4297.88379 0 .42318-.1709.76498-.5127 1.02539-.3385.26042-.7943.39063-1.3672.39063s-1.0368-.14974-1.3916-.44922c-.3515-.29948-.5192-.66243-.5029-1.08887l.0098-.02441h.8252c.0162.29297.1253.51432.3271.66406.2051.14649.4606.21973.7666.21973l-.0098-.00977z" fill="#fff"/></svg>