<svg width="56" height="7" viewBox="0 0 56 7" fill="none" xmlns="http://www.w3.org/2000/svg"><path d="M11.7637 3.71289c-.1302.11198-.2761.19792-.4375.25781-.1615.0599-.3288.08985-.502.08985-.1328 0-.261-.01758-.3847-.05274-.1224-.03385-.2377-.08203-.3457-.14453-.10682-.0638-.20448-.13997-.29302-.22851-.08854-.08855-.16471-.1862-.22851-.29297-.0625-.10808-.11133-.22331-.14649-.34571-.03385-.12369-.05078-.25195-.05078-.38476 0-.13281.01693-.26107.05078-.38477.03516-.1237.08399-.23893.14649-.3457.0638-.10807.13997-.20638.22851-.29492.08854-.08854.1862-.16406.29302-.22656.108-.06381.2233-.11264.3457-.14649.1237-.03516.2519-.05273.3847-.05273.1732 0 .3405.02994.502.08984.1614.05859.3073.14453.4375.25781l-.2969.48828c-.082-.08854-.179-.15625-.291-.20312-.112-.04818-.2292-.07227-.3516-.07227-.1237 0-.2396.02344-.3476.07032-.1081.04687-.2025.11067-.2832.1914-.0808.07943-.1446.17383-.1914.2832-.04692.10808-.07036.22331-.07036.34571 0 .12239.02344.23763.07036.3457.0468.10677.1106.20052.1914.28125.0807.08073.1751.14453.2832.19141.108.04687.2239.07031.3476.07031.1224 0 .2396-.02344.3516-.07031.112-.04818.209-.11654.291-.20508l.2969.48828zM12.5176 4h-.5762l1.1602-2.80078h.5761L12.5176 4zm4.3027-1.11914v-.56055c0-.07682-.015-.14909-.0449-.21679-.0287-.06901-.0684-.12891-.1192-.17969-.0507-.05078-.1106-.0905-.1796-.11914-.0677-.02995-.14-.04492-.2168-.04492-.0769 0-.1498.01497-.2188.04492-.0677.02864-.1269.06836-.1777.11914-.0508.05078-.0912.11068-.1211.17969-.0287.0677-.043.13997-.043.21679v.56055h1.1211zM17.3809 4h-.5606v-.56055h-1.1211V4h-.5586V2.32031c0-.15495.0293-.30013.0879-.43554.0586-.13672.138-.25586.2383-.35743.1016-.10156.22-.18164.3555-.24023.1367-.05859.2825-.08789.4375-.08789.1549 0 .3001.0293.4355.08789.1367.05859.2559.13867.3574.24023.1016.10157.1817.22071.2403.35743.0586.13541.0879.28059.0879.43554V4zm.9629 0h-.5333V1.9082h.129l.1757.20313c.086-.07813.183-.13802.291-.17969.1094-.04297.2234-.06445.3418-.06445.1277 0 .2481.02474.3614.07422.1133.04817.2122.11523.2968.20117.0847.08463.1511.18424.1993.29883.0494.11328.0742.23437.0742.36328V4h-.5332V2.80469c0-.05469-.0104-.10612-.0313-.1543-.0208-.04948-.0494-.09245-.0859-.12891-.0365-.03645-.0788-.0651-.127-.08593-.0481-.02084-.0996-.03125-.1543-.03125-.0559 0-.1087.01041-.1582.03125-.0494.02083-.0924.04948-.1289.08593-.0364.03646-.0651.07943-.0859.12891-.0208.04818-.0312.09961-.0312.1543V4zm2.8652 0h-1.2188v-.53125h1.2188c.0364 0 .0677-.01302.0937-.03906.0261-.02604.0391-.05729.0391-.09375 0-.03776-.013-.0625-.0391-.07422-.026-.01172-.0573-.01758-.0937-.01758h-.5547c-.0925 0-.179-.01758-.2598-.05273-.0807-.03516-.151-.08269-.2109-.14258-.0599-.0612-.1074-.13216-.1426-.21289-.0338-.08073-.0508-.16732-.0508-.25977s.017-.17903.0508-.25976c.0352-.08073.0827-.15105.1426-.21094.0599-.0599.1302-.10677.2109-.14063.0808-.03515.1673-.05273.2598-.05273h1.0801v.53125h-1.0801c-.0365 0-.0677.01302-.0938.03906-.026.02604-.039.05729-.039.09375 0 .03776.013.07031.039.09766.0261.02604.0573.03906.0938.03906h.5547c.0911 0 .1771.01563.2578.04688.0807.02994.151.07226.2109.12695.0599.05469.1075.12044.1426.19726.0352.07683.0527.16081.0527.25196 0 .09245-.0175.17903-.0527.25976-.0351.07943-.0827.14974-.1426.21094-.0599.0599-.1302.10742-.2109.14258C21.3861 3.98307 21.3001 4 21.209 4zm1.7812-.51172c.0209.00651.0417.01107.0625.01367a.998054.998054 0 00.0625.00196c.0521 0 .1022-.00717.1504-.02149.0482-.01432.0931-.0345.1348-.06054.043-.02735.0807-.0599.1133-.09766.0338-.03906.0612-.08203.082-.12891l.3906.39258c-.0495.07031-.1067.13346-.1718.18945-.0638.05599-.1335.10352-.209.14258-.0743.03906-.153.06836-.2364.08789-.082.02084-.1666.03125-.2539.03125-.1471 0-.2858-.02734-.416-.08203-.1289-.05469-.2422-.13086-.3398-.22851-.0964-.09766-.1726-.21355-.2285-.34766-.056-.13542-.084-.28385-.084-.44531 0-.16537.028-.31641.084-.45313.0559-.13672.1321-.25325.2285-.34961.0976-.09635.2109-.17122.3398-.22461.1302-.05338.2689-.08008.416-.08008.0873 0 .1726.01042.2559.03126.0833.02083.1621.05078.2363.08984.0755.03906.1459.08724.211.14453.0651.05599.1224.11914.1718.18945l-1 1.20508zm.2735-1.09961c-.0248-.00911-.0495-.01497-.0742-.01758-.0235-.0026-.0482-.0039-.0743-.0039-.0729 0-.1419.01367-.207.04101-.0638.02604-.1198.06381-.168.11328-.0468.04948-.084.10938-.1113.17969-.0273.06901-.041.14714-.041.23438 0 .01953.0006.04166.0019.0664.0026.02474.0059.05013.0098.07617.0052.02474.0111.04883.0176.07227.0065.02344.015.04427.0254.0625l.6211-.82422zM24.7969 4h-.5371V1.07617h.5371V4zm3.0683 0h-.5312V2.67188c0-.03646-.0072-.07097-.0215-.10352-.013-.03255-.0319-.0612-.0566-.08594-.0248-.02474-.0534-.04362-.086-.05664-.0325-.01432-.067-.02148-.1035-.02148-.0365 0-.071.00716-.1035.02148-.0313.01302-.0593.0319-.084.05664-.0234.02474-.0423.05339-.0566.08594-.0131.03255-.0196.06706-.0196.10352V4h-.5332V2.67188c0-.03646-.0071-.07097-.0215-.10352-.013-.03255-.0319-.0612-.0566-.08594-.0247-.02474-.0534-.04362-.0859-.05664-.0326-.01432-.0671-.02148-.1035-.02148-.0365 0-.071.00716-.1036.02148-.0312.01302-.0592.0319-.0839.05664-.0235.02474-.0424.05339-.0567.08594-.013.03255-.0195.06706-.0195.10352V4h-.5332V1.9082h.1289l.1445.16016c.0742-.0625.1556-.11068.2442-.14453.0898-.03516.1829-.05274.2793-.05274.0976 0 .1927.01823.2851.05469.0938.03646.1758.09961.2461.18945.0326-.04427.0697-.08203.1113-.11328.0417-.03125.0853-.05664.1309-.07617.0469-.01953.095-.0332.1445-.04101.0495-.00912.0983-.01368.1465-.01368.1107 0 .2142.02084.3106.0625.0976.04167.1822.09896.2539.17188.0729.07161.1302.15625.1718.25391.0417.09765.0625.20182.0625.3125V4zm3.8047-.28711c-.1302.11198-.276.19792-.4375.25781-.1614.0599-.3288.08985-.5019.08985-.1328 0-.2611-.01758-.3848-.05274-.1224-.03385-.2376-.08203-.3457-.14453-.1068-.0638-.2044-.13997-.293-.22851-.0885-.08855-.1647-.1862-.2285-.29297-.0625-.10808-.1113-.22331-.1465-.34571-.0338-.12369-.0508-.25195-.0508-.38476 0-.13281.017-.26107.0508-.38477.0352-.1237.084-.23893.1465-.3457.0638-.10807.14-.20638.2285-.29492.0886-.08854.1862-.16406.293-.22656.1081-.06381.2233-.11264.3457-.14649.1237-.03516.252-.05273.3848-.05273.1731 0 .3405.02994.5019.08984.1615.05859.3073.14453.4375.25781l-.2969.48828c-.082-.08854-.179-.15625-.291-.20312-.1119-.04818-.2291-.07227-.3515-.07227-.1237 0-.2396.02344-.3477.07032-.1081.04687-.2025.11067-.2832.1914-.0807.07943-.1445.17383-.1914.2832-.0469.10808-.0703.22331-.0703.34571 0 .12239.0234.23763.0703.3457.0469.10677.1107.20052.1914.28125.0807.08073.1751.14453.2832.19141.1081.04687.224.07031.3477.07031.1224 0 .2396-.02344.3515-.07031.112-.04818.209-.11654.291-.20508l.2969.48828zM32.4766 4h-.5371V1.07617h.5371V4zm2.4336 0h-.129l-.207-.28711c-.0508.04557-.1048.08854-.1621.12891-.056.03906-.1152.07356-.1777.10351a1.13801 1.13801 0 01-.1934.06836c-.0651.01693-.1315.02539-.1992.02539-.1471 0-.2858-.02474-.416-.07422-.1289-.04948-.2422-.12109-.3399-.21484-.0963-.09505-.1725-.21094-.2285-.34766-.056-.13672-.084-.29231-.084-.46679 0-.16276.028-.31185.084-.44727.056-.13672.1322-.2539.2285-.35156.0977-.09766.211-.17318.3399-.22656.1302-.05469.2689-.08204.416-.08204.0677 0 .1348.00847.2012.0254.0664.01692.1308.04036.1933.07031.0625.02995.1218.0651.1778.10547.0573.04036.1106.08398.1601.13086l.207-.24805h.129V4zm-.5372-1.06445c0-.07292-.0143-.14323-.0429-.21094-.0274-.06901-.0651-.12956-.1133-.18164-.0482-.05339-.1048-.0957-.1699-.12695-.0638-.03256-.1322-.04883-.2051-.04883-.0729 0-.1419.01237-.207.03711-.0638.02474-.1198.06119-.168.10937-.0469.04818-.084.10807-.1113.17969-.0274.07031-.041.15104-.041.24219 0 .09114.0136.17252.041.24414.0273.07031.0644.12955.1113.17773.0482.04818.1042.08464.168.10938.0651.02474.1341.03711.207.03711.0729 0 .1413-.01563.2051-.04688.0651-.03255.1217-.07487.1699-.12695.0482-.05339.0859-.11393.1133-.18164.0286-.06901.0429-.13998.0429-.21289zM35.9121 4l-.7969-2.0918h.6075l.457 1.30469.4551-1.30469h.6093L36.4473 4h-.5352zm2.3672-.51172c.0208.00651.0417.01107.0625.01367a.995669.995669 0 00.0625.00196c.0521 0 .1022-.00717.1504-.02149.0482-.01432.0931-.0345.1348-.06054.0429-.02735.0807-.0599.1132-.09766.0339-.03906.0612-.08203.0821-.12891l.3906.39258c-.0495.07031-.1068.13346-.1719.18945-.0638.05599-.1334.10352-.209.14258-.0742.03906-.153.06836-.2363.08789-.082.02084-.1667.03125-.2539.03125-.1471 0-.2858-.02734-.416-.08203-.1289-.05469-.2422-.13086-.3399-.22851-.0963-.09766-.1725-.21355-.2285-.34766-.056-.13542-.084-.28385-.084-.44531 0-.16537.028-.31641.084-.45313.056-.13672.1322-.25325.2285-.34961.0977-.09635.211-.17122.3399-.22461.1302-.05338.2689-.08008.416-.08008.0872 0 .1725.01042.2559.03126.0833.02083.1621.05078.2363.08984.0755.03906.1458.08724.2109.14453.0651.05599.1224.11914.1719.18945l-1 1.20508zm.2734-1.09961c-.0247-.00911-.0494-.01497-.0742-.01758-.0234-.0026-.0482-.0039-.0742-.0039-.0729 0-.1419.01367-.207.04101-.0638.02604-.1198.06381-.168.11328-.0469.04948-.084.10938-.1113.17969-.0274.06901-.041.14714-.041.23438 0 .01953.0006.04166.0019.0664.0026.02474.0059.05013.0098.07617.0052.02474.011.04883.0175.07227.0066.02344.015.04427.0254.0625l.6211-.82422zm-.164-.7207l-.2207-.29102.58-.541012.3204.408202-.6797.42383zM41.2031 4h-.5332V1.9082h.1289l.1758.20313c.0859-.07813.183-.13802.291-.17969.1094-.04297.2233-.06445.3418-.06445.1276 0 .2481.02474.3614.07422.1132.04817.2122.11523.2968.20117.0847.08463.1511.18424.1992.29883.0495.11328.0743.23437.0743.36328V4h-.5332V2.80469c0-.05469-.0105-.10612-.0313-.1543-.0208-.04948-.0495-.09245-.0859-.12891-.0365-.03645-.0788-.0651-.127-.08593-.0482-.02084-.0996-.03125-.1543-.03125-.056 0-.1087.01041-.1582.03125-.0495.02083-.0924.04948-.1289.08593-.0364.03646-.0651.07943-.0859.12891-.0209.04818-.0313.09961-.0313.1543V4zm3.0176-2.1875c0 .09375-.0169.18099-.0508.26172-.0325.08073-.0781.15104-.1367.21094-.0573.05989-.125.10677-.2031.14062-.0768.03386-.1602.05078-.25.05078-.0886 0-.1719-.01692-.25-.05078-.0768-.03385-.1439-.08073-.2012-.14062-.0573-.0599-.1029-.13021-.1367-.21094-.0339-.08073-.0508-.16797-.0508-.26172 0-.09505.0169-.18294.0508-.26367.0338-.08203.0794-.15235.1367-.21094.0573-.0599.1244-.10612.2012-.13867.0781-.03386.1614-.05078.25-.05078.0898 0 .1732.01627.25.04883.0781.03125.1458.07617.2031.13476.0586.05729.1042.12695.1367.20899.0339.08072.0508.17122.0508.27148zm-.3203 0c0-.05078-.0085-.09701-.0254-.13867-.0169-.04297-.0404-.07878-.0703-.10742-.0287-.02995-.0625-.05274-.1016-.06836-.0377-.01693-.0788-.02539-.123-.02539-.0443 0-.086.00846-.125.02539-.0378.01562-.071.03841-.0996.06836-.0274.02864-.0495.06445-.0664.10742-.0157.04166-.0235.08789-.0235.13867 0 .04818.0078.0931.0235.13477.0169.04166.039.07812.0664.10937.0286.03125.0618.05599.0996.07422.039.01693.0807.02539.125.02539.0442 0 .0853-.00846.123-.02539.0391-.01693.0729-.04037.1016-.07031.0299-.02995.0534-.06576.0703-.10743.0169-.04296.0254-.08984.0254-.14062zm.3242.92773v.3125h-1.2832v-.3125h1.2832zm2.3555-.70117c0 .11589-.0222.22526-.0664.32813-.0443.10156-.1048.19075-.1817.26758-.0755.07552-.164.13541-.2656.17968-.1016.04427-.2103.06641-.3262.06641h-.2812c-.0391 0-.0755.00716-.1094.02148-.0338.01433-.0638.03451-.0898.06055-.0248.02474-.0443.05404-.0586.08789-.0144.03386-.0215.07031-.0215.10938v.27929h1.3242V4h-1.8848v-.83984c0-.11589.0222-.22461.0664-.32618.0443-.10286.1042-.19205.1797-.26757.0769-.07683.166-.13672.2676-.17969.1016-.04427.2103-.06641.3262-.06641h.2812c.0391 0 .0756-.00716.1094-.02148.0339-.01432.0632-.03386.0879-.0586.026-.02604.0462-.05599.0605-.08984.0144-.03516.0215-.07227.0215-.11133s-.0071-.07552-.0215-.10937c-.0143-.03386-.0345-.06315-.0605-.08789-.0247-.02604-.054-.04623-.0879-.06055-.0338-.01432-.0703-.02148-.1094-.02148h-1v-.56055h1c.1159 0 .2246.02213.3262.0664.1016.04428.1901.10482.2656.18165.0769.07552.1374.16406.1817.26562.0442.10156.0664.21029.0664.32617z" fill="#000"/></svg>