<svg width="2" height="3" viewBox="0 0 2 3" fill="none" xmlns="http://www.w3.org/2000/svg"><path d="M.260123 1.28656H1.74186L1.47965.638697l-.4736-.266358-.485705.257342-.260222.656879zM2 1.63466H.260123l.22767.6993.495931.2906.410576-.16644.28047-.46324h.27243c-.06707.28758-.18909.52676-.36592.71748C1.40445 2.90307 1.21338 3 1.01012 3c-.284554 0-.522371-.14529-.719528-.4359C.097499 2.27349 0 1.9193 0 1.49852 0 1.0838.097547.72651.288607.435899.483732.145288.721493 0 1.00198 0l.42686.1453.34756.408701.18092.508619L2 1.63466" fill="#fff"/></svg>