<svg width="5" height="4" viewBox="0 0 5 4" fill="none" xmlns="http://www.w3.org/2000/svg"><path d="M4.37869 3.58562c-.42238-.45707-.83512-.92658-1.27257-1.41388-.20982.22409-.39905.42681-.60063.64201-.20159-.20809-.39222-.40728-.60204-.62603-.42374.46774-.83791.93015-1.26165 1.38188l-.244068.11029-.042519-.12805c.456654-.50687.913297-1.01377 1.394637-1.55087C1.32611 1.52433.920229 1.07263.5198.610226L.405968.323871.62814.425257c.54442.597573 1.08471 1.205793 1.62638 1.806923l.25097.24189c.61984-.69005 1.22868-1.37121 1.84715-2.043472l.24139-.092485-.12756.288092c-.38809.449955-.78441.891015-1.20815 1.372985.25644.28811.4951.55669.73508.82524.17416.19385.35515.37882.52108.58156l.09187.25075-.22766-.07112zM4.66393.000176c-.71583.012449-1.43162.00356-2.14746.00356v.00356c-.72544 0-1.44951.010664-2.173578-.00712C.090567-.00516-.002684.110473.000059.432378c.006856 1.047522.005485 2.095042 0 3.142562-.001372.29701.078144.42682.32087.42504 1.450871-.00889 2.899031-.00712 4.349901 0 .23313.00178.33185-.10668.32911-.41436-.00686-1.04752-.0096-2.09508 0-3.142604.00274-.321905-.08505-.446397-.33601-.44284z" fill="#100F0D"/></svg>