<svg width="1" height="3" viewBox="0 0 1 3" fill="none" xmlns="http://www.w3.org/2000/svg"><path d="M0 2.08578h.214162l.084315.38446.205763.15432.19893-.13008.082668-.34514L.691396 1.777l-.205764-.1756-.104487-.0575-.059037-.03932-.1366-.15742-.094442-.24522-.03203-.299762L.193908.22704.519391 0l.310251.230144.131577.544836H.745327L.674516.481277.49576.372339.342363.490442.273199.772024l.08769.326816.19226.15136.313627.27256.101194.24212L1 2.08578l-.143351.65688L.483985 3l-.342363-.26946L0 2.08578" fill="#fff"/></svg>