<svg width="1" height="3" viewBox="0 0 1 3" fill="none" xmlns="http://www.w3.org/2000/svg"><path d="M.507512.372339c-.104897 0-.193828.112036-.267756.333022-.073928.220985-.110878.490449-.110878.805279 0 .30878.037928.57202.113854.78696.075926.22098.164856.32696.267756.32696.096905 0 .182827-.10901.255756-.32696.073928-.22099.110878-.4812.110878-.7809 0-.31785-.034948-.587398-.106878-.808383C.700312.484304.611411.372339.507512.372339zM1 .063559V2.93038H.877122v-.53892l-.155854.45408L.510488 3l-.216781-.1453-.199805-.46324-.05995-.33598L0 1.47724.035951.935357.097902.608544.306683.130223.507512 0 .61839.036362.720293.15136l.156829.457184V.063559H1" fill="#fff"/></svg>