<svg width="2" height="3" viewBox="0 0 2 3" fill="none" xmlns="http://www.w3.org/2000/svg"><path d="M.261934 1.28656H1.74015L1.48228.638697 1.00511.372339.519804.629681l-.25787.656879zM2 1.63466H.261934l.227433.6993.493432.2906.412131-.16644.2782-.46324h.27204c-.067.28758-.18879.52676-.36543.71748C1.40309 2.90307 1.21424 3 1.00917 3c-.28426 0-.521877-.14529-.716799-.4359C.097449 2.27349 0 1.9193 0 1.49852 0 1.0838.09745.72651.292371.435899.483232.145288.720793 0 1.00302 0l.42443.1453.3472.408701.18074.508619L2 1.63466" fill="#fff"/></svg>