<svg width="370" height="315" viewBox="0 0 370 315" fill="none" xmlns="http://www.w3.org/2000/svg"><path d="M95.1289 315h-6.1891c1.2625-39.629 23.5862-73.277 54.6852-87.265H0v-6.972h370v6.901h-8.806c-.4 0-.816.024-1.201.071H175.555c-.123 0-.246.002-.37.002-.046.002-.076.002-.123.002h-.015c-.077 0-.169.001-.246.001 0 .002-.001.002-.016.002-.077 0-.169.002-.246.003-.093 0-.17.002-.262.004-.046.002-.092.002-.123.003-.046 0-.092.002-.139.004-.077.002-.169.003-.261.005-1.971.054-3.942.189-5.897.401v.001c-.046.004-.077.009-.123.013v.001c-.046.004-.092.009-.123.014h-.015c-.031.005-.078.009-.124.014-.031.005-.077.009-.123.014v.002c-.046.003-.077.008-.123.013l-.015.002c-.031.004-.062.009-.108.012 0 .002 0 .002-.016.002-.03.005-.077.009-.107.014l-.016.002c-.031.005-.077.008-.108.012 0 .002-.015.003-.03.003-.031.005-.062.009-.093.012 0 .002-.015.004-.031.006-.03.003-.061.007-.092.01 0 .002-.015.004-.031.005-.03.004-.061.009-.092.012-.015.002-.015.002-.031.004-.031.003-.061.009-.092.012-.016.002-.031.003-.031.003-.031.006-.062.009-.092.013-.016.001-.031.003-.047.005-.015.003-.046.007-.061.01-.015.002-.046.005-.062.007-.015.004-.046.007-.061.009-.016.003-.046.005-.062.008-.015.002-.031.006-.061.007-.016.004-.047.007-.062.011-.015.002-.015.002-.031.003-38.781 5.381-69.1256 41.891-70.6651 86.582zM370 .001727H4.34156V0H370" fill="#000"/></svg>