<svg width="27" height="207" viewBox="0 0 27 207" fill="none" xmlns="http://www.w3.org/2000/svg"><path d="M13.8664 207c-.2414 0-.4889-.052-.7363-.162-1.1627-55.728-1.1225-111.5921-3.47316-167.2342-.23403-5.5842-.53359-11.7207-2.92452-16.725C4.64408 18.5096.987628 15.5084.136492 10.2924.002337 9.46816-.018543 8.64217.01276 7.82132 11.0373 5.77006 20.2209 3.09582 26.8019.000003 27.6053 17.594 25.2338 35.8369 25.7973 53.1934c.7631 23.4329 1.1626 46.8796 1.1999 70.3276.0238 15.03-.1029 30.064-.3771 45.09-.24 13.101-3.7668 23.624-9.288 35.066-.7632 1.578-2.0436 3.323-3.4657 3.323" fill="#1AD793"/></svg>