<svg width="44" height="165" viewBox="0 0 44 165" fill="none" xmlns="http://www.w3.org/2000/svg"><path d="M34.2391.981289C16.2896 4.143 6.55949 21.8071 3.78999 40.7221-.133728 67.5276-1.59533 96.8072 2.24847 123.687 5.32535 145.2 15.2245 161.551 35.5593 164.445c1.9042.272 3.8177.436 5.7342.555.7838-13.345 1.3755-26.7 1.8535-40.064-1.3801-.055-2.7587-.15-4.1281-.345-11.4838-1.637-17.075-10.885-18.8117-23.052-2.1716-15.2018-1.3463-31.7619.8699-46.9225 1.5645-10.698 7.059-20.6877 17.1964-22.4776 1.8719-.33 3.79-.4976 5.7265-.5806-.1875-10.5235-.4934-21.0417-.8714-31.558298-3.0047.16586-5.977.468156-8.8895.981287" fill="#5AF"/></svg>