<svg width="1" height="3" viewBox="0 0 1 3" fill="none" xmlns="http://www.w3.org/2000/svg"><path d="M0 2.08578h.21418l.084321.38446.205699.15432.199028-.13008.080945-.34514-.09445-.37234-.204051-.1756-.104578-.0575-.059042-.03932-.136611-.15742-.094367-.24522L.058959.802178.192194.22704.517704 0 .82971.230144.961215.77498H.743659L.674572.481277.4958.372339.340662.490442.273139.772024l.086051.326816.195652.15136.311923.27256.099556.24212L1 2.08578l-.14501.65688L.485672 3l-.344038-.26946L0 2.08578" fill="#fff"/></svg>