<svg width="1" height="3" viewBox="0 0 1 3" fill="none" xmlns="http://www.w3.org/2000/svg"><path d="M.995226.793652H.882355L.729739.414984.527053.276582c-.113672 0-.213035.122529-.29809.36516-.08426.242631-.126417.523808-.126417.845798 0 .33787.042935.62587.128785.8685.085055.24263.186013.36273.302864.36273l.197912-.14283.154246-.38554H1c-.044515.24037-.108879.43766-.194729.58506C.719421 2.92512.629584 3 .534195 3c-.149443 0-.275834-.14511-.379172-.43536C.051685 2.27213 0 1.91385 0 1.48754 0 1.07711.050888.725607.153431.435357.256769.145107.380789 0 .525462 0l.155799.058904.138293.183687.100955.238162.074717.312899z" fill="#fff"/></svg>