<svg width="39" height="9" viewBox="0 0 39 9" fill="none" xmlns="http://www.w3.org/2000/svg"><path d="M6.83154 2.78564c0 .22461-.02278.44434-.06836.65918-.04394.21322-.10823.41504-.19287.60547-.08463.19043-.18799.36621-.31006.52735-.12207.16113-.26041.30192-.41504.42236h-.94482c.09928-.06348.19531-.13428.28809-.2124.09277-.07813.18066-.16195.26367-.25147.08463-.08952.16276-.18392.23437-.2832.07162-.09928.13509-.20182.19043-.30762-.07161.0472-.14811.08789-.22949.12207-.08138.03255-.1652.04883-.25146.04883-.19857 0-.37679-.03255-.53467-.09766-.15788-.06673-.29297-.15869-.40528-.27587-.11067-.11882-.19612-.25961-.25634-.42237-.0586-.16276-.08789-.34098-.08789-.53467 0-.1888.03336-.36702.10009-.53466.06836-.16927.16195-.31657.28077-.4419.11881-.12695.2596-.22705.42236-.30029.16276-.07324.33935-.10986.52978-.10986.19206 0 .37191.03662.53956.10986.16927.07324.31656.17334.44189.30029.12533.12533.2238.27263.29541.4419.07324.16764.10986.34586.10986.53466zm-.74951 0c0-.08951-.01546-.17578-.04639-.25878-.03092-.08301-.07487-.15625-.13183-.21973-.05534-.06348-.12207-.11393-.2002-.15137-.07812-.03743-.16438-.05615-.25879-.05615-.09602 0-.1831.01872-.26123.05615-.07649.03581-.14241.08464-.19775.14649s-.09766.13427-.12695.21728c-.0293.08301-.04395.17171-.04395.26611 0 .09278.01465.18067.04395.26368.02929.08138.07161.15299.12695.21484.05534.06185.12126.11068.19775.14648.07813.03581.16521.05372.26123.05372.09603 0 .18311-.01791.26123-.05372.07976-.0358.1473-.08463.20264-.14648s.09766-.13346.12695-.21484c.03093-.08301.04639-.1709.04639-.26368zm3.51074-1.28662L8.39648 5h-.74951l.98389-2.80029H7.1416v-.70069h2.45117zM12.3003 3.9502c0 .14485-.0277.28076-.083.40771-.0554.12695-.131.23844-.2271.33447-.0944.0944-.205.16927-.332.22461-.127.05534-.2629.08301-.4077.08301H9.84912v-.70068h1.40138c.0488 0 .0944-.00896.1367-.02686.0423-.0179.0789-.04232.1099-.07324.0325-.03255.0578-.06999.0757-.11231.0179-.04231.0268-.08789.0268-.13671 0-.04883-.0089-.09441-.0268-.13672-.0179-.04232-.0432-.07894-.0757-.10987-.031-.03255-.0676-.05778-.1099-.07568-.0423-.0179-.0879-.02686-.1367-.02686h-.9546v-.70068h.9546c.0488 0 .0944-.00895.1367-.02685.0423-.01791.0789-.04232.1099-.07325.0325-.03255.0578-.06998.0757-.1123.0179-.04395.0268-.09033.0268-.13916 0-.04883-.0089-.0944-.0268-.13672-.0179-.04232-.0432-.07894-.0757-.10986-.031-.03256-.0676-.05778-.1099-.07569-.0423-.0179-.0879-.02685-.1367-.02685H9.84912v-.70069h1.40138c.1448 0 .2807.02767.4077.08301s.2376.13102.332.22705c.0961.0944.1717.20508.2271.33203.0553.12696.083.26286.083.40772 0 .12858-.0236.2539-.0708.37597-.0472.12045-.1139.22868-.2002.32471.0863.09603.153.20508.2002.32715.0472.12044.0708.24495.0708.37354zm4.3066-1.40137c0 .14485-.0276.28157-.083.41015-.0553.12696-.131.23845-.227.33448-.0944.0944-.2051.16927-.3321.22461-.1269.05533-.2628.083-.4077.083h-.3515c-.0489 0-.0944.00896-.1368.02686-.0423.0179-.0797.04313-.1123.07568-.0309.03093-.0553.06755-.0732.10987-.0179.04231-.0269.08789-.0269.13672v.34912h1.6553V5h-2.3559V3.9502c0-.14486.0276-.28077.083-.40772.0553-.12858.1302-.24007.2246-.33447.096-.09603.2075-.1709.3345-.22461.1269-.05534.2628-.08301.4077-.08301h.3515c.0489 0 .0944-.00895.1367-.02685.0424-.01791.079-.04232.1099-.07325.0326-.03255.0578-.06998.0757-.1123.0179-.04395.0268-.09033.0268-.13916 0-.04883-.0089-.0944-.0268-.13672-.0179-.04232-.0431-.07894-.0757-.10986-.0309-.03256-.0675-.05778-.1099-.07569-.0423-.0179-.0878-.02685-.1367-.02685h-1.25v-.70069h1.25c.1449 0 .2808.02767.4077.08301.127.05534.2377.13102.3321.22705.096.0944.1717.20508.227.33203.0554.12696.083.26286.083.40772zm3.1348 1.75049h-.3491V5h-.7007v-.70068h-1.7505l.3906-2.8003h.7007l-.3052 2.10205h.9644V1.85059h.7007v1.75048h.3491v.69825zm4.2773-1.75049c0 .14485-.0276.28157-.083.41015-.0553.12696-.131.23845-.227.33448-.0944.0944-.2051.16927-.332.22461-.127.05533-.2629.083-.4078.083h-.3515c-.0489 0-.0944.00896-.1367.02686-.0424.0179-.0798.04313-.1123.07568-.031.03093-.0554.06755-.0733.10987-.0179.04231-.0268.08789-.0268.13672v.34912h1.6552V5h-2.3559V3.9502c0-.14486.0276-.28077.083-.40772.0553-.12858.1302-.24007.2246-.33447.096-.09603.2075-.1709.3345-.22461.1269-.05534.2628-.08301.4077-.08301h.3515c.0489 0 .0944-.00895.1368-.02685.0423-.01791.0789-.04232.1098-.07325.0326-.03255.0578-.06998.0757-.1123.0179-.04395.0269-.09033.0269-.13916 0-.04883-.009-.0944-.0269-.13672-.0179-.04232-.0431-.07894-.0757-.10986-.0309-.03256-.0675-.05778-.1098-.07569-.0424-.0179-.0879-.02685-.1368-.02685h-1.25v-.70069h1.25c.1449 0 .2808.02767.4078.08301.1269.05534.2376.13102.332.22705.096.0944.1717.20508.227.33203.0554.12696.083.26286.083.40772zm3.0811.23681c0 .22461-.0228.44434-.0684.65918-.0439.21322-.1082.41504-.1928.60547-.0847.19043-.188.36621-.3101.52735-.1221.16113-.2604.30192-.415.42236h-.9449c.0993-.06348.1954-.13428.2881-.2124.0928-.07813.1807-.16195.2637-.25147.0846-.08952.1628-.18392.2344-.2832.0716-.09928.1351-.20182.1904-.30762-.0716.0472-.1481.08789-.2295.12207-.0814.03255-.1652.04883-.2514.04883-.1986 0-.3768-.03255-.5347-.09766-.1579-.06673-.293-.15869-.4053-.27587-.1107-.11882-.1961-.25961-.2563-.42237-.0586-.16276-.0879-.34098-.0879-.53467 0-.1888.0333-.36702.1001-.53466.0683-.16927.1619-.31657.2807-.4419.1188-.12695.2596-.22705.4224-.30029s.3393-.10986.5298-.10986c.192 0 .3719.03662.5395.10986.1693.07324.3166.17334.4419.30029.1253.12533.2238.27263.2954.4419.0733.16764.1099.34586.1099.53466zm-.7495 0c0-.08951-.0155-.17578-.0464-.25878-.0309-.08301-.0749-.15625-.1318-.21973-.0554-.06348-.1221-.11393-.2002-.15137-.0782-.03743-.1644-.05615-.2588-.05615-.096 0-.1831.01872-.2613.05615-.0764.03581-.1424.08464-.1977.14649-.0553.06185-.0977.13427-.127.21728-.0293.08301-.0439.17171-.0439.26611 0 .09278.0146.18067.0439.26368.0293.08138.0717.15299.127.21484.0553.06185.1213.11068.1977.14648.0782.03581.1653.05372.2613.05372.096 0 .1831-.01791.2612-.05372.0798-.0358.1473-.08463.2026-.14648.0554-.06185.0977-.13346.127-.21484.0309-.08301.0464-.1709.0464-.26368zm5.2856 1.51368h-.3491V5h-.7007v-.70068h-1.7505l.3907-2.8003h.7006l-.3051 2.10205h.9643V1.85059h.7007v1.75048h.3491v.69825zm2.5489-1.04981c0-.389-.0651-.6779-.1954-.8667-.1285-.1888-.3084-.2832-.5395-.2832-.2295 0-.4077.09359-.5347.28076-.1269.18718-.1904.47689-.1904.86914 0 .389.0635.6779.1904.8667.127.1888.3052.2832.5347.2832.1156 0 .2189-.02278.3101-.06836.0911-.0472.1676-.118.2294-.2124.0635-.0944.1115-.21321.1441-.35644.0342-.14486.0513-.31576.0513-.5127zm.6665 0c0 .33203-.0367.61279-.1099.84229-.0732.22949-.1733.41504-.3003.55664-.1269.1416-.2759.24414-.4468.30761-.1692.06185-.3507.09278-.5444.09278-.1937 0-.376-.03174-.5469-.09522-.1693-.0651-.3174-.16845-.4443-.31006-.1253-.14322-.2246-.32877-.2979-.55664-.0732-.22949-.1098-.50862-.1098-.8374 0-.33203.0366-.61198.1098-.83984.0733-.22949.1726-.41504.2979-.55664.1269-.1416.275-.24414.4443-.30762.1709-.06348.3532-.09521.5469-.09521.1937 0 .3752.03255.5444.09765.1709.06348.3199.16683.4468.31006.127.14323.2271.32878.3003.55664.0732.22787.1099.50619.1099.83496z" fill="#000"/></svg>