<svg width="86" height="7" viewBox="0 0 86 7" fill="none" xmlns="http://www.w3.org/2000/svg"><path d="M15.5456 2.968V2.76c0-.19733-.0294-.348-.088-.452-.056-.104-.1747-.156-.356-.156-.2934 0-.44.19733-.44.592v.208c0 .424.1466.636.44.636.1893 0 .3133-.07067.372-.212.048-.112.072-.248.072-.408zm.52-.12c0 .49333-.0934.824-.28.992-.1574.144-.3854.216-.684.216-.3814 0-.6387-.112-.772-.336-.1254-.20533-.188-.496-.188-.872 0-.352.0626-.628.188-.828.1386-.224.3906-.336.756-.336.368 0 .6226.09867.764.296.144.19467.216.484.216.868zm1.9839.52v.06c-.016.2-.1014.35067-.256.452-.152.10133-.3427.152-.572.152-.3387 0-.576-.06133-.712-.184-.1254-.112-.188-.27733-.188-.496v-.048h.472c0 .12267.032.20667.096.252.064.04533.1746.068.332.068.2133 0 .32-.07733.32-.232 0-.128-.0374-.21333-.112-.256-.0347-.02133-.0787-.03733-.132-.048l-.404-.068c-.352-.056-.528-.276-.528-.66 0-.21333.0773-.37867.232-.496.1573-.12.356-.18.596-.18.5466 0 .82.236.82.708v.052h-.452c-.0054-.12533-.0387-.21067-.1-.256-.0614-.04533-.148-.068-.26-.068-.1094 0-.192.02267-.248.068-.056.04267-.084.09067-.084.144 0 .152.0613.23867.184.26l.484.088c.3413.064.512.29333.512.688zm.6999-2.524c.1253 0 .2066.02.244.06.0373.037333.056.11867.056.244 0 .12267-.02.204-.06.244-.0374.03733-.1187.056-.244.056-.1227 0-.204-.02-.244-.06-.0374-.04-.056-.12133-.056-.244s.0186-.202667.056-.24c.04-.04.1226-.06.248-.06zM19.0054 4h-.52V1.8h.52V4zm2.3295 0h-.584l-.404-.7-.38.7h-.624l.74-1.164-.712-1.12h.584l.4.66.388-.66h.584l-.712 1.12.72 1.164zm2.0734-1.02h-1.332c0 .208.032.36.096.456.0667.096.1987.144.396.144.128 0 .2227-.04.284-.12.0613-.08267.092-.16133.092-.236h.468c0 .28533-.0773.49467-.232.628-.152.13333-.3547.2-.608.2-.2507 0-.4453-.036-.584-.108-.2853-.14667-.428-.536-.428-1.168 0-.376.0813-.65067.244-.824.1627-.176.4107-.264.744-.264.5787 0 .868.32133.868.964 0 .06933-.0027.17867-.008.328zm-1.32-.356h.856c0-.176-.0333-.304-.1-.384-.0667-.08-.1693-.12-.308-.12-.136 0-.2453.04133-.328.124-.08.08-.12.20667-.12.38zM25.6597 4h-.52V2.54c0-.13067-.0267-.22-.08-.268-.0533-.048-.128-.072-.224-.072l-.468.196V4h-.52V1.716h.388l.12.272.64-.296c.1787 0 .3333.06667.464.2.1333.13067.2.32267.2.576V4zm1.497 0h-.324c-.1974 0-.348-.05867-.452-.176-.1014-.11733-.152-.25733-.152-.42v-1.2h-.22v-.396h.22V1.36h.52v.448h.368v.396h-.368v1.168c0 .12533.06.188.18.188h.228V4zm1.6422-2.276l-.144.512c-.04-.016-.0853-.024-.136-.024-.1333 0-.2973.05733-.492.172V4h-.52V1.716h.388l.12.2.552-.228c.0267-.00267.0627-.004.108-.004.0454 0 .0867.01333.124.04zm2.0586 1.256h-1.332c0 .208.032.36.096.456.0667.096.1987.144.396.144.128 0 .2227-.04.284-.12.0613-.08267.092-.16133.092-.236h.468c0 .28533-.0773.49467-.232.628-.152.13333-.3547.2-.608.2-.2507 0-.4453-.036-.584-.108-.2853-.14667-.428-.536-.428-1.168 0-.376.0813-.65067.244-.824.1627-.176.4107-.264.744-.264.5787 0 .868.32133.868.964 0 .06933-.0027.17867-.008.328zm-1.32-.356h.856c0-.176-.0333-.304-.1-.384-.0667-.08-.1693-.12-.308-.12-.136 0-.2453.04133-.328.124-.08.08-.12.20667-.12.38zM32.3129 4h-.324c-.1973 0-.348-.05867-.452-.176-.1013-.11733-.152-.25733-.152-.42v-1.2h-.22v-.396h.22V1.36h.52v.448h.368v.396h-.368v1.168c0 .12533.06.188.18.188h.228V4zm2.0023 0h-.348l-.16-.276-.556.3c-.3094 0-.5174-.112-.624-.336-.0534-.10933-.0907-.22667-.112-.352-.0187-.128-.028-.26-.028-.396 0-.13867.0013-.24.004-.304.0026-.06667.0093-.14267.02-.228.0106-.088.0253-.16133.044-.22.0213-.05867.0506-.11867.088-.18.0373-.064.0826-.11467.136-.152.12-.08267.276-.124.468-.124h.548l.52-.032V4zm-.52-.728V2.2h-.396c-.1467 0-.2494.056-.308.168-.056.112-.084.28-.084.504 0 .22133.0266.37733.08.468.056.09067.16.136.312.136l.396-.204zM35.1439.844c.1253 0 .2067.02.244.06.0373.037333.056.11867.056.244 0 .12267-.02.204-.06.244-.0373.03733-.1187.056-.244.056-.1227 0-.204-.02-.244-.06-.0373-.04-.056-.12133-.056-.244s.0187-.202667.056-.24c.04-.04.1227-.06.248-.06zM35.3999 4h-.52V1.8h.52V4zm2.3536 0h-.52V2.54c0-.13067-.0267-.22-.08-.268-.0534-.048-.128-.072-.224-.072l-.468.196V4h-.52V1.716h.388l.12.272.64-.296c.1786 0 .3333.06667.464.2.1333.13067.2.32267.2.576V4zm2.2329-1.02h-1.332c0 .208.032.36.096.456.0667.096.1987.144.396.144.128 0 .2227-.04.284-.12.0614-.08267.092-.16133.092-.236h.468c0 .28533-.0773.49467-.232.628-.152.13333-.3546.2-.608.2-.2506 0-.4453-.036-.584-.108-.2853-.14667-.428-.536-.428-1.168 0-.376.0814-.65067.244-.824.1627-.176.4107-.264.744-.264.5787 0 .868.32133.868.964 0 .06933-.0026.17867-.008.328zm-1.32-.356h.856c0-.176-.0333-.304-.1-.384-.0666-.08-.1693-.12-.308-.12-.136 0-.2453.04133-.328.124-.08.08-.12.20667-.12.38zM43.4098 4h-.52V2.58c0-.14133-.0173-.24-.052-.296-.032-.056-.0893-.084-.172-.084l-.468.196V4h-.52V2.58c0-.25333-.088-.38-.264-.38l-.428.196V4h-.52V1.716h.388l.12.272.6-.296c.208 0 .3654.10133.472.304l.744-.304c.208 0 .3627.07067.464.212.104.13867.156.32667.156.564V4zm2.2719-1.02h-1.332c0 .208.032.36.096.456.0667.096.1987.144.396.144.128 0 .2227-.04.284-.12.0614-.08267.092-.16133.092-.236h.468c0 .28533-.0773.49467-.232.628-.152.13333-.3546.2-.608.2-.2506 0-.4453-.036-.584-.108-.2853-.14667-.428-.536-.428-1.168 0-.376.0814-.65067.244-.824.1627-.176.4107-.264.744-.264.5787 0 .868.32133.868.964 0 .06933-.0026.17867-.008.328zm-1.32-.356h.856c0-.176-.0333-.304-.1-.384-.0666-.08-.1693-.12-.308-.12-.136 0-.2453.04133-.328.124-.08.08-.12.20667-.12.38zM47.9331 4h-.52V2.54c0-.13067-.0266-.22-.08-.268-.0533-.048-.128-.072-.224-.072l-.468.196V4h-.52V1.716h.388l.12.272.64-.296c.1787 0 .3334.06667.464.2.1334.13067.2.32267.2.576V4zm1.497 0h-.324c-.1973 0-.348-.05867-.452-.176-.1013-.11733-.152-.25733-.152-.42v-1.2h-.22v-.396h.22V1.36h.52v.448h.368v.396h-.368v1.168c0 .12533.06.188.18.188h.228V4zm3.4903-1.392c0 .912-.2094 1.368-.628 1.368-.1227 0-.2294-.01733-.32-.052-.0907-.03467-.156-.07867-.196-.132-.08-.10133-.12-.20267-.12-.304 0-.04267.0026-.09333.008-.152-.0587.184-.1307.31333-.216.388-.0827.07467-.188.112-.316.112-.2267 0-.4054-.08-.536-.24-.128-.16-.192-.39467-.192-.704 0-.38667.0666-.64667.2-.78.136-.136.3706-.204.704-.204h.4l.288-.024v1.292c0 .2.0186.34533.056.436.0373.09067.1173.136.24.136.2613 0 .392-.37867.392-1.136 0-.448-.1094-.76667-.328-.956-.2187-.192-.5667-.288-1.044-.288-.4774 0-.8294.11467-1.056.344-.224.22933-.336.596-.336 1.1 0 .504.124.90133.372 1.192.2506.29067.628.436 1.132.436l-.028.236c-.256 0-.484-.03333-.684-.1-.2-.06667-.364-.156-.492-.268-.128-.10933-.2334-.244-.316-.404-.1494-.28533-.224-.63467-.224-1.048 0-.65067.144-1.104.432-1.36.144-.13067.3106-.224.5-.28.1893-.05867.4133-.088.672-.088.5573 0 .9693.112 1.236.336.2666.22133.4.60267.4 1.144zm-1.328-.304h-.284c-.1867 0-.3134.04533-.38.136-.064.088-.096.236-.096.444 0 .208.032.348.096.42.0666.072.168.108.304.108.0853 0 .1666-.06267.244-.188.0773-.12533.116-.272.116-.44v-.48zm2.8528-.572l.52-.032v2.196c0 .25333-.072.44667-.216.58-.1413.136-.352.204-.632.204-.216 0-.4053-.04267-.568-.128-.0853-.04267-.1533-.10667-.204-.192-.0507-.08533-.076-.18667-.076-.304l.484-.024c0 .07467.0267.128.08.16s.144.048.272.048c.1307 0 .2187-.032.264-.096.048-.064.072-.156.072-.276l.02-.344-.56.3c-.3067 0-.5133-.104-.62-.312-.096-.184-.144-.40933-.144-.676 0-.31733.024-.54133.072-.672.0507-.144.1227-.248.216-.312.12-.08.2773-.12.472-.12h.548zm0 1.34V2.2h-.396c-.1493 0-.252.05067-.308.152-.056.10133-.084.24267-.084.424s.028.31067.084.388c.0587.07467.1613.112.308.112l.396-.204zM58.488 4h-.52V2.58c0-.14133-.0174-.24-.052-.296-.032-.056-.0894-.084-.172-.084l-.468.196V4h-.52V2.58c0-.25333-.088-.38-.264-.38l-.428.196V4h-.52V1.716h.388l.12.272.6-.296c.208 0 .3653.10133.472.304l.744-.304c.208 0 .3626.07067.464.212.104.13867.156.32667.156.564V4zm2.1319 0h-.348l-.16-.276-.556.3c-.3094 0-.5174-.112-.624-.336-.0534-.10933-.0907-.22667-.112-.352-.0187-.128-.028-.26-.028-.396 0-.13867.0013-.24.004-.304.0026-.06667.0093-.14267.02-.228.0106-.088.0253-.16133.044-.22.0213-.05867.0506-.11867.088-.18.0373-.064.0826-.11467.136-.152.12-.08267.276-.124.468-.124h.548l.52-.032V4zm-.52-.728V2.2h-.396c-.1467 0-.2494.056-.308.168-.056.112-.084.28-.084.504 0 .22133.0266.37733.08.468.056.09067.16.136.312.136l.396-.204zM61.4486.844c.1253 0 .2066.02.244.06.0373.037333.056.11867.056.244 0 .12267-.02.204-.06.244-.0374.03733-.1187.056-.244.056-.1227 0-.204-.02-.244-.06-.0374-.04-.056-.12133-.056-.244s.0186-.202667.056-.24c.04-.04.1226-.06.248-.06zM61.7046 4h-.52V1.8h.52V4zm1.0815 0l-.52.004V.992h.52V4zm1.1066-.536c.0427.04.064.12667.064.26s-.0213.22133-.064.264c-.04.04267-.1266.064-.26.064-.1333 0-.2213-.02133-.264-.064-.0426-.04267-.064-.13067-.064-.264s.0214-.22.064-.26c.0427-.04267.1307-.064.264-.064.1334 0 .22.02133.26.064zm1.7997-.3l.472-.004c-.0026.02133-.0053.06-.008.116-.0026.056-.0053.09467-.008.116 0 .01867-.0026.04933-.008.092-.0053.04267-.012.07467-.02.096-.0053.01867-.0133.044-.024.076-.048.13867-.1786.248-.392.328-.136.048-.2786.072-.428.072-.1466 0-.28-.024-.4-.072-.12-.048-.2146-.10933-.284-.184-.1573-.16533-.236-.47467-.236-.928 0-.456.0787-.76667.236-.932.0694-.07467.164-.136.284-.184.12-.048.2534-.072.4-.072.288 0 .5067.072.656.216.1494.144.224.344.224.6h-.472c0-.11733-.0293-.204-.088-.26-.0586-.05867-.168-.088-.328-.088-.1573 0-.2626.04933-.316.148-.0506.09867-.076.24667-.076.444v.208c0 .31733.0614.512.184.584.056.03467.1294.052.22.052.0907 0 .164-.008.22-.024.0587-.01867.1-.04933.124-.092.0267-.04267.044-.084.052-.124.008-.04267.0134-.104.016-.184zm2.1422-.196V2.76c0-.19733-.0293-.348-.088-.452-.056-.104-.1746-.156-.356-.156-.2933 0-.44.19733-.44.592v.208c0 .424.1467.636.44.636.1894 0 .3134-.07067.372-.212.048-.112.072-.248.072-.408zm.52-.12c0 .49333-.0933.824-.28.992-.1573.144-.3853.216-.684.216-.3813 0-.6386-.112-.772-.336-.1253-.20533-.188-.496-.188-.872 0-.352.0627-.628.188-.828.1387-.224.3907-.336.756-.336.368 0 .6227.09867.764.296.144.19467.216.484.216.868zM71.7145 4h-.52V2.58c0-.14133-.0173-.24-.052-.296-.032-.056-.0893-.084-.172-.084l-.468.196V4h-.52V2.58c0-.25333-.088-.38-.264-.38l-.428.196V4h-.52V1.716h.388l.12.272.6-.296c.208 0 .3653.10133.472.304l.744-.304c.208 0 .3627.07067.464.212.104.13867.156.32667.156.564V4z" fill="#000"/></svg>