<svg width="960" height="362" viewBox="0 0 960 362" fill="none" xmlns="http://www.w3.org/2000/svg"><path d="M644.704 362H271.076v-3.484c0-50.063-36.196-90.791-80.68-90.791H65.4021c-.955-.047-1.91-.071-2.865-.071H0c.046209-2.318.137128-4.622.31272-6.899H121.299v-98.202l86.78-122.4816h-13.678l5.098-6.9683h720.253V6.96828H218.63l4.051-5.55039c.369-.49922.801-.925603 1.17-1.417893H960V6.96828h-34.056V260.755H960v6.97h-1.14c-.524-.047-1.032-.071-1.555-.071h-37.553V40.0696H553.919v-.071H361.907V355.03h181.646v-.071h6.192v.071h88.813v-.071h6.192c-.031 1.18-.046 2.366-.046 3.557V362zm-307.688-94.275l-10.782 87.305h29.481v-87.305h-18.699zm-114.52 0c31.144 13.992 53.478 47.658 54.726 87.305h42.774l10.797-87.305H222.496zM338.171 40.0714V258.435l-.292 2.32h17.836V40.0714h-17.544zm-122.175 0L127.491 164.988v95.767h204.165l.339-2.802-.016-217.8816H215.996zM715.664 268.378c.016-.002.047-.005.062-.009-.015.004-.046.006-.062.009zm.124-.015c.015-.004.046-.007.061-.011-.015.004-.03.007-.061.011zm.354-.047c.031-.004.062-.009.092-.012-.03.003-.061.007-.092.012zm.37-.049c.03-.003.077-.007.107-.012-.03.005-.061.009-.107.012zm.492-.059c.047-.005.093-.008.124-.014-.031.006-.077.011-.124.014zm.509-.057c1.956-.211 3.928-.347 5.899-.4-1.987.053-3.943.189-5.899.4zm7.208-.423c.047 0 .077 0 .124-.002-.047 0-.093.002-.124.002z" fill="#000"/></svg>