<svg width="2" height="4" viewBox="0 0 2 4" fill="none" xmlns="http://www.w3.org/2000/svg"><path d="M.974568.367429c-.199388 0-.368206.107635-.506557.319732-.138351.212096-.20753.465889-.20753.764609 0 .31666.069128.58557.205444.80663.140385.22105.317369.33154.535065.33154l.28492-.07468.24211-.2449.15865-.36451.05901-.42709c0-.31366-.07321-.579503-.22174-.791599C1.37745.475064 1.19227.367429.974568.367429zM2 .062721V2.48842l-.0305.56157-.19531.48996-.34184.33753L1.0153 4c-.215666 0-.415089-.09864-.596166-.28983-.181077-.19119-.295057-.44205-.34999-.74974h.254321l.288993.49288.423112.17926.36012-.12252.27061-.37035.07332-.31375.01013-.33753v-.15534l-.30926.47201-.44357.15534-.370256-.1075-.325551-.30777-.22581-.48091L0 1.48474l.016293-.27189L.06517.940962.183092.612479.573813.128505.980727 0l.445563.149364.32346.463115V.062721H2" fill="#fff"/></svg>