<svg width="4" height="7" viewBox="0 0 4 7" fill="none" xmlns="http://www.w3.org/2000/svg"><path d="M2.70334 4.91134c-.18766-.10836-.27045-.32158-.37527-.50685-.29754-.5156-.57987-1.0417-.84529-1.57478-.0896-.17828-.13188-.4492-.06257-.62399.08284-.21323.03211-.34605-.05242-.51209-.15722-.30063-.30434-.60474-.459871-.907112C.791269.555806.667869.325094.498811 0L.383905.225475C-.052265.833716-.054012 1.52059.072781 2.21447.30101 3.46067.85385 4.55829 1.57235 5.57028c.40067.56454.89095 1.03473 1.53506 1.29516.28064.1136.56969.20795.89259.05415-.31783-.63621-.63229-1.25668-.94336-1.87891l-.3533-.12934" fill="#100F0D"/></svg>