<svg width="33" height="234" viewBox="0 0 33 234" fill="none" xmlns="http://www.w3.org/2000/svg"><path d="M23.3628 234c-1.5044 0-3.3076-1.238-4.5457-2.518-4.6788-4.842-9.45524-9.826-12.39743-16.268-6.798552-14.882-6.480507-31.836-6.387316-48.21.106505-19.36.301773-38.716.454134-58.073C.77198 72.621 1.056 36.3105 1.34149-.000006 8.92403 3.5269 19.8526 6.49585 33 8.60992c-1.3476 3.18148-2.3638 6.58238-3.0443 10.03328-1.5857 8.0624-1.6109 16.4168-1.6286 24.6883-.0873 39.3848-.1746 78.7695-.2603 118.1525-.0503 22.956-.1021 45.957-2.1198 68.792-.0814.916-.1804 1.876-.6449 2.619-.4956.787-1.179 1.105-1.9393 1.105" fill="#1AD793"/></svg>