<svg width="4" height="6" viewBox="0 0 4 6" fill="none" xmlns="http://www.w3.org/2000/svg"><path d="M2.00833 3.05328l-.00494-.00154-.00501.00154C1.28406 3.05943.700689 2.5255.689088 1.85614.677487 1.19447 1.26089.648208 1.9868.638975l.00664.00154.00494-.00154c.69774-.007694 1.29108.532405 1.30103 1.183295.00994.67705-.56019 1.22177-1.29108 1.23101zm1.94908-1.58031C3.76847.691281 3.12875.129643 2.2719.020392 1.57913-.068856.985785.135798.515099.61589c-.464057.47394-.593346 1.03867-.47236 1.66187.086182.44316.255186.86323.450753 1.27561.319868.67244.712678 1.31103 1.138618 1.93115.11767.1708.24035.33852.36465.51548l.02322-.03077c.50384-.68936.96286-1.40335 1.34902-2.1558.23866-.46009.44581-.93249.56349-1.43259.07126-.30006.09619-.6032.02492-.90787" fill="#100F0D"/></svg>