<svg width="7" height="6" viewBox="0 0 7 6" fill="none" xmlns="http://www.w3.org/2000/svg"><path d="M5.33629 4.10569c.03961-.29154.08294-.58146.12821-.90038h1.06203c.03962.83757-.22259 1.03729-1.19024.90038zm-.64702 1.38682l-.08492-.08376c.16977-.27382.283-.59757.53199-.80213.16222-.13369.52248-.09019.79033-.12724l.08114.15301c-.4395.28671-.87904.57341-1.31854.86012zm-.96201.0451V4.52608h1.0356c-.35084.39785-.64136.72644-.93373 1.05663l-.10187-.0451zm-.01888-2.17445l.22455-.17718c.2471-.02416.50169.00643.74879-.0129.33953-.02899.36976.11276.33203.3447-.10186.62334-.09619.62495-.83749.62334h-.47911c0-.28993-.01518-.53636.01123-.77796zm.00755-1.49313c.34142 0 .65267-.00966.96201.00806l.22262.15301c.0679.24483.10182.49609.15086.76025-.37348.02094-.68283.03867-.99406.05639-.26596.01611-.40551-.08055-.39042-.31571.0132-.21101.03013-.42201.04899-.662zM3.72164.420393c.46214.299591.73561.637837.9563 1.064677h-.9563V.420393zM5.97383 1.44641c-.65265.14174-.7507.09986-1.05062-.38496-.10374-.164291-.2358-.315694-.40368-.539582.65453.202949 1.09213.507372 1.4543.924542zm.5527 1.36588c-.29425 0-.59043.0129-.8828-.00804l-.19802-.17236c-.05281-.23839-.07357-.4816-.10564-.72159.92804-.15946 1.22608.0612 1.18646.90199zM3.2708 2.78653l-.29426.02737c-.32255.00161-.6451 0-1.02989 0 .04715-.29315.01133-.58951.15279-.7989.21315-.31409.64703-.11436.9809-.15463.23955-.02738.23577.14979.232.28992-.00754.20134-.02456.40108-.04154.63624zm.01511 1.18225l-.24518.1804c-.95633.07409-1.04505-.00806-1.05826-.96965h1.10348l.03777.00162c.36216.211.07542.52831.16219.78763zm-.02072 1.56399l-.1038.04994c-.30369-.33019-.60546-.66039-.90915-.9922l.08299-.07892h.92996v1.02118zM.969624 4.51159c.282936 0 .494196-.00483.703566.00323l.19987.05637c.19051.28026.36783.56534.5772.89554-.67716-.1353-1.07886-.49448-1.480636-.95514zM.441416 3.16988c.29237 0 .588504-.0129.884644.00804l.20373.17717c.06036.23839.08487.48483.12637.74899-1.028015.15785-1.299626-.04831-1.214744-.9342zM1.65431 1.90546c-.03584.26093-.06226.50576-.11319.74576l-.18301.15303c-.29614.01771-.594118.00804-.890261.00804-.18108-.72321.209382-1.03408 1.186461-.90683zM2.41259.599179l-.28671.402681c-.30558.5428-.35648.56858-1.1091.46549.29614-.489653.81485-.711933 1.39581-.868171zm.84688-.115966V1.49474h-.9073l-.0886-.0741c.29426-.32859.59034-.658766.88649-.988961l.10941.051534zm.21884-.483212C1.55055.000001.007606 1.32399.000061 2.99107-.011257 4.61628 1.55433 5.987 3.43871 5.99988c1.98434.0145 3.5518-1.30306 3.56123-2.99591C7.01126 1.34978 5.42682-.00161 3.47831.000001z" fill="#100F0D"/></svg>