<svg width="1" height="3" viewBox="0 0 1 3" fill="none" xmlns="http://www.w3.org/2000/svg"><path d="M.157996 2.72788H.39261l.187654-.02108.106155-.06803.109892-.20169.044427-.28151-.013563-.18061-.038279-.15485-.145699-.20398-.134547-.05165-.091386-.00699-.092591-.0024H.157996v1.17279zm0-1.44491h.208693l.146904-.01638.117247-.07273.09012-.17592.035807-.243946L.72096.541842.633311.363518.490144.2814.340768.272123H.157996V1.28297zM0 3V0h.36916l.185183.023479.174031.124265.134607.279109.050576.368329-.044427.340038-.129604.26033.191332.2932L1 2.15087l-.050636.3941-.144433.2932-.208632.14305-.092592.01408L.371632 3H0" fill="#fff"/></svg>