<svg width="1" height="3" viewBox="0 0 1 3" fill="none" xmlns="http://www.w3.org/2000/svg"><path d="M0 2.08578h.215536l.08245.38446.207069.15432.196959-.13008.082532-.34514L.690259 1.777l-.205425-.1756-.102672-.0575-.05894-.03932-.136374-.15742-.095931-.24522L.05894.802178.193588.22704.518537 0l.311467.230144.131278.544836h-.21718L.675134.481277.494945.372339.340074.490442.27275.772024l.087546.326816.193588.15136.311467.27256.101028.24212L1 2.08578l-.14476.65688L.483189 3l-.3418-.26946L0 2.08578" fill="#fff"/></svg>