<svg width="50" height="165" viewBox="0 0 50 165" fill="none" xmlns="http://www.w3.org/2000/svg"><path d="M38.0756 124.496c-11.206-1.633-16.662-10.862-18.3567-23.003-2.1191-15.1709-1.3138-31.6967.8488-46.826 1.5268-10.6758 6.8883-20.6448 16.7806-22.431 4.0852-.7362 8.373-.7466 12.6517-.5172V.01877c-5.624-.094827-11.2075.153451-16.5885 1.12414C15.8961 4.29807 6.40128 21.9256 3.69876 40.8014c-3.830312 26.75-5.25506 55.9689-1.50423 82.7926 3.00246 21.469 12.66227 37.787 32.50517 40.674 5.0616.735 10.1772.871 15.3003.609V124.56c-3.9878.426-7.9846.51-11.9244-.064" fill="#EBEAD9"/></svg>