<svg width="1" height="3" viewBox="0 0 1 3" fill="none" xmlns="http://www.w3.org/2000/svg"><path d="M.853915 2.09184h.145038c-.043923.28153-.106241.50243-.188978.6659C.726216 2.91818.632267 3 .52808 3c-.145046 0-.268631-.14233-.372818-.42688C.051074 2.28856 0 1.92831 0 1.49542 0 1.07766.051074.723482.155262.435899.259449.145288.382007 0 .521945 0c.106231 0 .202256.084785.291122.251281C.900912.420804.963228.647773 1 .935357H.853915L.713965.526803.52399.372339c-.108273 0-.201247.10597-.277855.320901-.076609.211904-.115412.47523-.115412.79612 0 .31785.03678.58725.110324.80824.073545.21795.164471.32696.273766.32696l.190973-.13008.148129-.40264z" fill="#fff"/></svg>