<svg width="39" height="9" viewBox="0 0 39 9" fill="none" xmlns="http://www.w3.org/2000/svg"><path d="M10.9966 1.716L10.3606 4h-.42804l-.436-1.388L9.06056 4h-.428l-.64-2.284h.552l.336 1.488.348-1.224c.04-.176.13067-.264.272-.264.06667 0 .12.02133.16.064.04.04267.07334.10933.1.2l.35204 1.224.336-1.488h.548zm3.0351 0L13.3957 4h-.428l-.436-1.388L12.0957 4h-.428l-.64-2.284h.552l.336 1.488.348-1.224c.04-.176.1307-.264.272-.264.0667 0 .12.02133.16.064.04.04267.0734.10933.1.2l.352 1.224.336-1.488h.548zm3.0352 0L16.4309 4h-.428l-.436-1.388L15.1309 4h-.428l-.64-2.284h.552l.336 1.488.348-1.224c.04-.176.1306-.264.272-.264.0666 0 .12.02133.16.064.04.04267.0733.10933.1.2l.352 1.224.336-1.488h.548zm.8551 1.748c.0427.04.064.12667.064.26s-.0213.22133-.064.264c-.04.04267-.1266.064-.26.064-.1333 0-.2213-.02133-.264-.064-.0426-.04267-.064-.13067-.064-.264s.0214-.22.064-.26c.0427-.04267.1307-.064.264-.064.1334 0 .22.02133.26.064zm1.8677-.496V2.76c0-.19733-.0293-.348-.088-.452-.056-.104-.1746-.156-.356-.156-.2933 0-.44.19733-.44.592v.208c0 .424.1467.636.44.636.1894 0 .3134-.07067.372-.212.048-.112.072-.248.072-.408zm.52-.12c0 .49333-.0933.824-.28.992-.1573.144-.3853.216-.684.216-.3813 0-.6386-.112-.772-.336-.1253-.20533-.188-.496-.188-.872 0-.352.0627-.628.188-.828.1387-.224.3907-.336.756-.336.368 0 .6227.09867.764.296.144.19467.216.484.216.868zm1.9839.52v.06c-.016.2-.1013.35067-.256.452-.152.10133-.3427.152-.572.152-.3387 0-.576-.06133-.712-.184-.1253-.112-.188-.27733-.188-.496v-.048h.472c0 .12267.032.20667.096.252.064.04533.1747.068.332.068.2133 0 .32-.07733.32-.232 0-.128-.0373-.21333-.112-.256-.0347-.02133-.0787-.03733-.132-.048l-.404-.068c-.352-.056-.528-.276-.528-.66 0-.21333.0773-.37867.232-.496.1573-.12.356-.18.596-.18.5467 0 .82.236.82.708v.052h-.452c-.0053-.12533-.0387-.21067-.1-.256-.0613-.04533-.148-.068-.26-.068-.1093 0-.192.02267-.248.068-.056.04267-.084.09067-.084.144 0 .152.0613.23867.184.26l.484.088c.3413.064.512.29333.512.688zm.6999-2.524c.1253 0 .2067.02.244.06.0373.037333.056.11867.056.244 0 .12267-.02.204-.06.244-.0373.03733-.1187.056-.244.056-.1227 0-.204-.02-.244-.06-.0373-.04-.056-.12133-.056-.244s.0187-.202667.056-.24c.04-.04.1227-.06.248-.06zM23.2495 4h-.52V1.8h.52V4zm2.3296 0h-.584l-.404-.7-.38.7h-.624l.74-1.164-.712-1.12h.584l.4.66.388-.66h.584l-.712 1.12.72 1.164zm.9093-.536c.0427.04.064.12667.064.26s-.0213.22133-.064.264c-.04.04267-.1266.064-.26.064-.1333 0-.2213-.02133-.264-.064-.0426-.04267-.064-.13067-.064-.264s.0214-.22.064-.26c.0427-.04267.1307-.064.264-.064.1334 0 .22.02133.26.064zm2.3437-.484h-1.332c0 .208.032.36.096.456.0667.096.1987.144.396.144.128 0 .2227-.04.284-.12.0614-.08267.092-.16133.092-.236h.468c0 .28533-.0773.49467-.232.628-.152.13333-.3546.2-.608.2-.2506 0-.4453-.036-.584-.108-.2853-.14667-.428-.536-.428-1.168 0-.376.0814-.65067.244-.824.1627-.176.4107-.264.744-.264.5787 0 .868.32133.868.964 0 .06933-.0026.17867-.008.328zm-1.32-.356h.856c0-.176-.0333-.304-.1-.384-.0666-.08-.1693-.12-.308-.12-.136 0-.2453.04133-.328.124-.08.08-.12.20667-.12.38zm3.3674.744v.06c-.016.2-.1013.35067-.256.452-.152.10133-.3426.152-.572.152-.3386 0-.576-.06133-.712-.184-.1253-.112-.188-.27733-.188-.496v-.048h.472c0 .12267.032.20667.096.252.064.04533.1747.068.332.068.2134 0 .32-.07733.32-.232 0-.128-.0373-.21333-.112-.256-.0346-.02133-.0786-.03733-.132-.048l-.404-.068c-.352-.056-.528-.276-.528-.66 0-.21333.0774-.37867.232-.496.1574-.12.356-.18.596-.18.5467 0 .82.236.82.708v.052h-.452c-.0053-.12533-.0386-.21067-.1-.256-.0613-.04533-.148-.068-.26-.068-.1093 0-.192.02267-.248.068-.056.04267-.084.09067-.084.144 0 .152.0614.23867.184.26l.484.088c.3414.064.512.29333.512.688z" fill="#000"/></svg>