<svg width="1689" height="169" viewBox="0 0 1689 169" fill="none" xmlns="http://www.w3.org/2000/svg"><path d="M70.7344 89.6328h-40.5v27.4222h47.5312V134H9.14062V31.625H77.625v17.0859H30.2344v24.3985h40.5v16.5234zM90.1406 134V31.625h31.5004c9 0 17.039 2.0391 24.117 6.1172 7.125 4.0312 12.68 9.7969 16.664 17.2969 3.984 7.4531 5.976 15.9375 5.976 25.4531v4.7109c0 9.5157-1.968 17.9769-5.906 25.3829-3.89 7.406-9.398 13.148-16.523 17.226-7.125 4.079-15.164 6.141-24.117 6.188H90.1406zm21.0934-85.2891v68.3441h10.196c8.25 0 14.554-2.696 18.914-8.086 4.359-5.391 6.586-13.1018 6.679-23.1331v-5.414c0-10.4063-2.156-18.2813-6.468-23.625-4.313-5.3907-10.617-8.086-18.914-8.086h-10.407zM261.281 31.625v67.4297c0 11.2033-3.515 20.0623-10.547 26.5783-6.984 6.515-16.546 9.773-28.687 9.773-11.953 0-21.445-3.164-28.477-9.492-7.031-6.328-10.617-15.023-10.758-26.0859V31.625h21.094v67.5703c0 6.7027 1.594 11.6017 4.782 14.6957 3.234 3.047 7.687 4.57 13.359 4.57 11.859 0 17.883-6.234 18.07-18.7032V31.625h21.164zm73.547 81.281h-36.984L290.812 134h-22.429l38.109-102.375h19.547L364.359 134H341.93l-7.102-21.094zm-31.289-17.0857h25.594L316.266 57.5l-12.727 38.3203zm108.281.7031h-16.804V134h-21.094V31.625h38.039c12.094 0 21.422 2.6953 27.984 8.0859 6.563 5.3907 9.844 13.0079 9.844 22.8516 0 6.9844-1.523 12.8203-4.57 17.5078-3 4.6406-7.571 8.3438-13.711 11.1094l22.148 41.8363V134h-22.64L411.82 96.5234zm-16.804-17.0859h17.015c5.297 0 9.399-1.3359 12.305-4.0078 2.906-2.7188 4.359-6.4453 4.359-11.1797 0-4.8281-1.383-8.625-4.148-11.3906-2.719-2.7656-6.914-4.1485-12.586-4.1485h-16.945v30.7266zM465.891 134V31.625h31.5c9 0 17.039 2.0391 24.117 6.1172 7.125 4.0312 12.68 9.7969 16.664 17.2969 3.984 7.4531 5.976 15.9375 5.976 25.4531v4.7109c0 9.5157-1.968 17.9769-5.906 25.3829-3.89 7.406-9.398 13.148-16.523 17.226-7.125 4.079-15.164 6.141-24.117 6.188h-31.711zm21.093-85.2891v68.3441h10.196c8.25 0 14.554-2.696 18.914-8.086 4.359-5.391 6.586-13.1018 6.679-23.1331v-5.414c0-10.4063-2.156-18.2813-6.468-23.625-4.313-5.3907-10.617-8.086-18.914-8.086h-10.407zm188.789 51.1875c-.796 11.0156-4.875 19.6876-12.234 26.0156-7.312 6.328-16.969 9.492-28.969 9.492-13.125 0-23.461-4.406-31.008-13.218-7.5-8.86-11.25-21-11.25-36.4224v-6.2578c0-9.8437 1.735-18.5156 5.204-26.0156 3.468-7.5 8.414-13.2422 14.836-17.2266 6.468-4.0312 13.968-6.0468 22.5-6.0468 11.812 0 21.328 3.164 28.546 9.4921 7.219 6.3282 11.391 15.211 12.516 26.6485H654.82c-.515-6.6094-2.367-11.3906-5.554-14.3438-3.141-3-7.946-4.5-14.414-4.5-7.032 0-12.305 2.5313-15.821 7.5938-3.469 5.0156-5.25 12.8203-5.343 23.414v7.7344c0 11.0625 1.664 19.1482 4.992 24.2582 3.375 5.109 8.672 7.664 15.89 7.664 6.516 0 11.368-1.477 14.555-4.43 3.234-3 5.086-7.617 5.555-13.8516h21.093zm71.649 13.0076h-36.984L703.406 134h-22.429l38.109-102.375h19.547L776.953 134h-22.43l-7.101-21.094zm-31.289-17.0857h25.594L728.859 57.5l-12.726 38.3203zm123.469 11.3207c0-3.985-1.407-7.032-4.219-9.141-2.813-2.1562-7.875-4.4062-15.188-6.75-7.312-2.3906-13.101-4.7344-17.367-7.0312-11.625-6.2813-17.437-14.7422-17.437-25.3829 0-5.5312 1.547-10.4531 4.64-14.7656 3.141-4.3594 7.617-7.7578 13.43-10.1953 5.859-2.4375 12.422-3.6562 19.687-3.6562 7.313 0 13.829 1.3359 19.547 4.0078 5.719 2.625 10.149 6.3515 13.289 11.1796 3.188 4.8282 4.782 10.3126 4.782 16.4532h-21.094c0-4.6875-1.477-8.3203-4.43-10.8985-2.953-2.625-7.101-3.9375-12.445-3.9375-5.156 0-9.164 1.1016-12.024 3.3047-2.859 2.1563-4.289 5.0156-4.289 8.5781 0 3.3282 1.664 6.1172 4.993 8.3672 3.375 2.25 8.32 4.3594 14.835 6.3282 12 3.6093 20.743 8.0859 26.227 13.4296 5.484 5.3438 8.227 12 8.227 19.9688 0 8.859-3.352 15.82-10.055 20.883-6.703 5.015-15.727 7.523-27.07 7.523-7.875 0-15.047-1.429-21.516-4.289-6.469-2.906-11.414-6.867-14.836-11.883-3.375-5.015-5.062-10.828-5.062-17.437h21.164c0 11.297 6.75 16.945 20.25 16.945 5.015 0 8.929-1.008 11.742-3.023 2.812-2.063 4.219-4.922 4.219-8.578zm112.57-58.4301h-31.36V134h-21.093V48.7109h-30.938V31.625h83.391v17.0859zm73.688 40.9219h-40.501v27.4222h47.531V134h-68.624V31.625h68.484v17.0859h-47.391v24.3985h40.501v16.5234zm40.5 27.4222h44.79V134h-65.88V31.625h21.09v85.43zm78.05 0h44.79V134h-65.89V31.625h21.1v85.43zm136.54-31.9222c0 10.0781-1.78 18.9142-5.34 26.5082-3.56 7.593-8.67 13.453-15.33 17.578-6.61 4.125-14.2 6.187-22.78 6.187-8.48 0-16.05-2.039-22.71-6.117-6.66-4.078-11.81-9.891-15.47-17.437-3.66-7.594-5.51-16.3129-5.55-26.1567v-5.0625c0-10.0781 1.8-18.9375 5.41-26.5781 3.66-7.6875 8.79-13.5703 15.4-17.6485 6.65-4.125 14.25-6.1874 22.78-6.1874 8.53 0 16.1 2.0624 22.71 6.1874 6.66 4.0782 11.79 9.961 15.4 17.6485 3.65 7.6406 5.48 16.4765 5.48 26.5078v4.5703zm-21.37-4.6406c0-10.7344-1.92-18.8906-5.77-24.4688-3.84-5.5781-9.33-8.3672-16.45-8.3672-7.08 0-12.54 2.7657-16.38 8.2969-3.85 5.4844-5.79 13.5469-5.84 24.1875v4.9922c0 10.4531 1.92 18.5622 5.77 24.3282 3.84 5.766 9.37 8.648 16.59 8.648 7.08 0 12.52-2.765 16.31-8.297 3.8-5.578 5.72-13.687 5.77-24.3276v-4.9922zm-18.14-76.28908h22.15L1244.11 26h-16.52l13.85-21.79688zM1353.23 117.055h44.79V134h-65.88V31.625h21.09v85.43zm116.16-4.149h-36.98L1425.38 134h-22.43l38.1-102.375h19.55L1498.92 134h-22.43l-7.1-21.094zm-31.29-17.0857h25.6L1450.83 57.5l-12.73 38.3203zm108.28.7031h-16.8V134h-21.1V31.625h38.04c12.1 0 21.43 2.6953 27.99 8.0859 6.56 5.3907 9.84 13.0079 9.84 22.8516 0 6.9844-1.52 12.8203-4.57 17.5078-3 4.6406-7.57 8.3438-13.71 11.1094l22.15 41.8363V134h-22.64l-19.2-37.4766zm-16.8-17.0859h17.01c5.3 0 9.4-1.3359 12.31-4.0078 2.9-2.7188 4.36-6.4453 4.36-11.1797 0-4.8281-1.38-8.625-4.15-11.3906-2.72-2.7656-6.91-4.1485-12.59-4.1485h-16.94v30.7266zm128.67 33.4685h-36.98L1614.23 134h-22.43l38.11-102.375h19.55L1687.78 134h-22.43l-7.1-21.094zm-31.29-17.0857h25.59L1639.69 57.5l-12.73 38.3203z" fill="#000"/></svg>