<svg width="2867" height="767" viewBox="0 0 2867 767" fill="none" xmlns="http://www.w3.org/2000/svg"><path d="M73.9688 80.7188v11.9531H28.125v30.3751h51.8906V135H15.4688V40.7812h64.5468v11.9532H28.125v27.9844h45.8438zm50.2032-17.4376c4.125 0 7.969.6094 11.531 1.8282 3.563 1.125 6.141 2.2968 7.735 3.5156V81c-1.969-1.5-4.641-2.9531-8.016-4.3594-3.375-1.4062-6.844-2.1094-10.406-2.1094-4.407 0-7.735 1.0313-9.985 3.0938-2.156 2.0625-3.234 4.2188-3.234 6.4688 0 1.7812.609 3.6093 1.828 5.4843 1.313 1.7813 3.563 3.2344 6.75 4.3594l11.813 4.2187c4.593 1.5938 8.015 3.8908 10.265 6.8908 2.25 3 3.375 6.515 3.375 10.547 0 3.937-1.125 7.547-3.375 10.828-2.156 3.281-5.203 5.906-9.141 7.875-3.843 1.875-8.296 2.812-13.359 2.812-2.719 0-5.578-.375-8.578-1.125-2.906-.656-5.531-1.453-7.875-2.39-2.344-1.032-4.0781-1.922-5.2031-2.672v-12.375c1.3125.937 3.1411 2.015 5.4841 3.234 2.438 1.125 5.016 2.11 7.735 2.953 2.718.75 5.25 1.125 7.593 1.125 4.407 0 7.875-.984 10.407-2.953 2.625-1.968 3.937-4.406 3.937-7.312 0-2.25-.891-4.032-2.672-5.344-1.687-1.312-4.172-2.578-7.453-3.797l-10.406-3.797c-5.438-2.062-9.047-4.6404-10.828-7.7341-1.782-3.1875-2.6721-6.7969-2.6721-10.8281 0-6 2.2501-10.9688 6.7501-14.9063s10.5-5.9063 18-5.9063zm110.39 0c7.219 0 13.219 1.5 18 4.5 4.782 3 8.344 7.0782 10.688 12.2344 2.438 5.1563 3.656 10.9688 3.656 17.4375v6.8909h-54c.563 3.937 1.922 7.547 4.078 10.828 2.157 3.281 4.969 5.906 8.438 7.875 3.469 1.875 7.453 2.812 11.953 2.812 5.063 0 9.797-1.265 14.203-3.797 4.406-2.624 8.11-5.484 11.11-8.578L262.547 126c-1.313 1.594-3.281 3.281-5.906 5.062-2.532 1.688-5.485 3.094-8.86 4.219-3.281 1.219-6.75 1.828-10.406 1.828-7.125 0-13.453-1.687-18.984-5.062-5.532-3.375-9.891-7.828-13.079-13.359-3.093-5.626-4.64-11.766-4.64-18.422 0-6.6566 1.453-12.7972 4.359-18.4222 2.907-5.625 6.891-10.125 11.953-13.5 5.157-3.375 11.016-5.0626 17.578-5.0626zm0 11.25c-5.812 0-10.593 1.9688-14.343 5.9063-3.75 3.8437-6.094 8.5313-7.031 14.0625h42.328c-.469-4.5938-1.782-8.3438-3.938-11.25-2.062-2.9062-4.594-5.0625-7.594-6.4688-3-1.5-6.14-2.25-9.422-2.25zm62.86-40.7812V135h-11.531V33.75h11.531zm110.812 4.9219c6.844 0 12.422.9375 16.735 2.8125 4.406 1.875 8.25 4.3125 11.531 7.3125v13.9219c-2.062-1.5-4.406-3.1407-7.031-4.9219-2.531-1.7813-5.531-3.3281-9-4.6407-3.375-1.4062-7.453-2.1093-12.235-2.1093-7.031 0-13.312 1.5937-18.843 4.7812-5.532 3.1875-9.891 7.5938-13.079 13.2188-3.187 5.5312-4.781 11.8125-4.781 18.8437 0 7.0313 1.594 13.3124 4.781 18.8434 3.188 5.532 7.547 9.938 13.079 13.219 5.531 3.188 11.812 4.781 18.843 4.781 7.219 0 13.36-1.172 18.422-3.515 5.156-2.438 9.375-4.922 12.656-7.453v12.656c-3.281 2.906-7.593 5.437-12.937 7.594-5.25 2.062-11.297 3.093-18.141 3.093-7.125 0-13.687-1.265-19.687-3.797-6-2.624-11.25-6.187-15.75-10.687-4.5-4.5-8.016-9.703-10.547-15.609-2.438-6-3.656-12.3754-3.656-19.1254 0-6.75 1.218-13.0781 3.656-18.9844 2.531-5.9999 6.047-11.25 10.547-15.75 4.5-4.5 9.75-8.0156 15.75-10.5468 6-2.625 12.562-3.9375 19.687-3.9375zm112.078 42.0469v11.9531h-45.843v30.3751h51.89V135h-64.547V40.7812h64.547v11.9532h-51.89v27.9844h45.843zm73.969-42.0469c7.125 0 13.688 1.3125 19.688 3.9375 6 2.5312 11.25 6.0468 15.75 10.5468 4.5 4.5 7.969 9.7501 10.406 15.75 2.531 5.9063 3.797 12.2344 3.797 18.9844s-1.266 13.1254-3.797 19.1254c-2.437 5.906-5.906 11.109-10.406 15.609-4.5 4.5-9.75 8.063-15.75 10.687-6 2.532-12.563 3.797-19.688 3.797-7.125 0-13.687-1.265-19.687-3.797-6-2.624-11.25-6.187-15.75-10.687-4.5-4.5-8.016-9.703-10.547-15.609-2.438-6-3.656-12.3754-3.656-19.1254 0-6.75 1.218-13.0781 3.656-18.9844 2.531-5.9999 6.047-11.25 10.547-15.75 4.5-4.5 9.75-8.0156 15.75-10.5468 6-2.625 12.562-3.9375 19.687-3.9375zm0 12.375c-7.031 0-13.312 1.5937-18.843 4.7812-5.532 3.1875-9.891 7.5938-13.079 13.2188-3.187 5.5312-4.781 11.8125-4.781 18.8437 0 7.0313 1.594 13.3124 4.781 18.8434 3.188 5.532 7.547 9.938 13.079 13.219 5.531 3.188 11.812 4.781 18.843 4.781 7.031 0 13.313-1.593 18.844-4.781 5.531-3.281 9.891-7.687 13.078-13.219 3.188-5.531 4.781-11.8121 4.781-18.8434 0-7.0312-1.593-13.3125-4.781-18.8437-3.187-5.625-7.547-10.0313-13.078-13.2188s-11.813-4.7812-18.844-4.7812zM768.656 33.75V135h-11.531v-11.953c-2.437 3.75-5.766 7.031-9.984 9.844-4.125 2.812-8.86 4.218-14.203 4.218-6 0-11.485-1.5-16.454-4.5-4.968-3.093-8.953-7.359-11.953-12.797-2.906-5.437-4.359-11.718-4.359-18.843 0-7.7815 1.453-14.4846 4.359-20.1096 3-5.625 7.078-9.9375 12.235-12.9375 5.156-3.0938 10.922-4.6407 17.296-4.6407 4.032 0 8.11.9844 12.235 2.9532 4.219 1.875 7.828 4.5 10.828 7.875V33.75h11.531zm-32.484 41.0625c-5.063 0-9.375 1.2656-12.938 3.7969-3.562 2.4375-6.328 5.625-8.296 9.5625-1.876 3.9375-2.813 8.2031-2.813 12.7971 0 4.5.937 8.672 2.813 12.515 1.874 3.75 4.5 6.75 7.874 9 3.469 2.25 7.454 3.375 11.954 3.375 4.312 0 8.156-1.125 11.531-3.375s6.047-5.343 8.015-9.281c1.969-4.031 2.907-8.531 2.813-13.4999l-.141-13.5c-2.906-3.6562-6.046-6.4687-9.422-8.4375-3.281-1.9687-7.078-2.9531-11.39-2.9531zm85.359-11.5313c7.219 0 13.219 1.5 18 4.5 4.781 3 8.344 7.0782 10.688 12.2344 2.437 5.1563 3.656 10.9688 3.656 17.4375v6.8909h-54c.563 3.937 1.922 7.547 4.078 10.828 2.156 3.281 4.969 5.906 8.438 7.875 3.468 1.875 7.453 2.812 11.953 2.812 5.062 0 9.797-1.265 14.203-3.797 4.406-2.624 8.109-5.484 11.109-8.578l-.14 12.516c-1.313 1.594-3.282 3.281-5.907 5.062-2.531 1.688-5.484 3.094-8.859 4.219-3.281 1.219-6.75 1.828-10.406 1.828-7.125 0-13.453-1.687-18.985-5.062-5.531-3.375-9.89-7.828-13.078-13.359-3.093-5.626-4.64-11.766-4.64-18.422 0-6.6566 1.453-12.7972 4.359-18.4222 2.906-5.625 6.891-10.125 11.953-13.5 5.156-3.375 11.016-5.0626 17.578-5.0626zm0 11.25c-5.812 0-10.593 1.9688-14.343 5.9063-3.75 3.8437-6.094 8.5313-7.032 14.0625h42.328c-.468-4.5938-1.781-8.3438-3.937-11.25-2.063-2.9062-4.594-5.0625-7.594-6.4688-3-1.5-6.141-2.25-9.422-2.25zM926.578 33.75V135h-11.531V33.75h11.531zm52.875 29.5312c4.031 0 8.109.9844 12.235 2.9532 4.218 1.875 7.828 4.5 10.832 7.875v-9.4219h11.53V135h-11.53v-11.953c-2.44 3.75-5.77 7.031-9.989 9.844-4.125 2.812-8.859 4.218-14.203 4.218-6 0-11.484-1.5-16.453-4.5-4.969-3.093-8.953-7.359-11.953-12.797-2.906-5.437-4.36-11.718-4.36-18.843 0-7.7815 1.454-14.4846 4.36-20.1096 3-5.625 7.078-9.9375 12.234-12.9375 5.156-3.0938 10.922-4.6407 17.297-4.6407zm2.109 11.25c-5.062 0-9.374 1.2657-12.937 3.7969-3.563 2.5313-6.328 5.8125-8.297 9.8438-1.875 3.9375-2.812 8.2031-2.812 12.7971 0 4.5.937 8.672 2.812 12.515 1.875 3.75 4.5 6.75 7.875 9 3.469 2.25 7.453 3.375 11.953 3.375 4.313 0 8.156-1.125 11.532-3.375 3.374-2.25 6.046-5.343 8.015-9.281 1.967-4.031 2.907-8.531 2.817-13.4999l-.14-13.5c-2.911-3.6562-6.052-6.5156-9.427-8.5781-3.281-2.0625-7.078-3.0938-11.391-3.0938zm127.548-11.25c7.22 0 13.22 1.5 18 4.5 4.78 3 8.34 7.0782 10.69 12.2344 2.43 5.1563 3.65 10.9688 3.65 17.4375v6.8909h-54c.57 3.937 1.93 7.547 4.08 10.828 2.16 3.281 4.97 5.906 8.44 7.875 3.47 1.875 7.45 2.812 11.95 2.812 5.06 0 9.8-1.265 14.2-3.797 4.41-2.624 8.11-5.484 11.11-8.578l-.14 12.516c-1.31 1.594-3.28 3.281-5.9 5.062-2.53 1.688-5.49 3.094-8.86 4.219-3.28 1.219-6.75 1.828-10.41 1.828-7.12 0-13.45-1.687-18.98-5.062-5.53-3.375-9.89-7.828-13.08-13.359-3.09-5.626-4.64-11.766-4.64-18.422 0-6.6566 1.45-12.7972 4.36-18.4222 2.9-5.625 6.89-10.125 11.95-13.5 5.16-3.375 11.02-5.0626 17.58-5.0626zm0 11.25c-5.81 0-10.59 1.9688-14.34 5.9063-3.75 3.8437-6.1 8.5313-7.04 14.0625h42.33c-.47-4.5938-1.78-8.3438-3.94-11.25-2.06-2.9062-4.59-5.0625-7.59-6.4688-3-1.5-6.14-2.25-9.42-2.25zm62.86-9.8437v9c2.25-2.5313 5.11-4.875 8.58-7.0313 3.56-2.25 7.73-3.375 12.51-3.375 5.06 0 9.8 1.2188 14.21 3.6563 4.4 2.3437 7.78 5.9063 10.12 10.6875 3.28-3.9375 6.84-7.3125 10.69-10.125 3.84-2.8125 8.34-4.2188 13.5-4.2188 4.78 0 9.23 1.0782 13.36 3.2344 4.22 2.0625 7.59 5.25 10.12 9.5625 2.63 4.2188 3.94 9.5625 3.94 16.0313V135h-11.53l-.14-41.7656c0-6.0938-1.6-10.7344-4.78-13.9219-3.1-3.1875-7.41-4.7813-12.94-4.7813-4.03 0-7.55 1.2657-10.55 3.7969-3 2.5313-5.86 5.4844-8.58 8.8594V135h-11.53l-.14-41.7656c0-6.0938-1.59-10.7344-4.78-13.9219-3.09-3.1875-7.41-4.7813-12.94-4.7813-3.84 0-7.36 1.125-10.54 3.375-3.1 2.25-5.96 4.9688-8.58 8.1563V135h-11.53V64.6875h11.53zm154.55-1.4063c6.09 0 11.57 1.5 16.45 4.5 4.97 2.9063 8.91 7.0313 11.81 12.375 3 5.25 4.5 11.4376 4.5 18.5626 0 7.6872-1.5 14.4372-4.5 20.2502-2.9 5.719-6.94 10.172-12.09 13.359-5.07 3.188-10.83 4.781-17.3 4.781-4.03 0-8.16-1.078-12.37-3.234-4.13-2.156-7.69-4.922-10.69-8.297v43.172h-11.53V64.6875h11.53v11.9531c2.44-3.75 5.72-6.8906 9.84-9.4218 4.22-2.625 9-3.9376 14.35-3.9376zm-1.83 11.25c-4.22 0-8.07 1.0782-11.53 3.2344-3.38 2.1563-6.05 5.1563-8.02 9-1.87 3.75-2.81 8.1563-2.81 13.2188l.14 13.4996c3 3.657 6.14 6.657 9.42 9 3.28 2.25 7.08 3.375 11.39 3.375 5.06 0 9.38-1.312 12.94-3.937 3.56-2.625 6.28-6 8.16-10.125 1.96-4.219 2.95-8.578 2.95-13.0782 0-4.5938-.94-8.6719-2.81-12.2344-1.88-3.6563-4.5-6.5625-7.88-8.7188-3.37-2.1562-7.36-3.2344-11.95-3.2344zm65.11-9.8437V78.75c2.72-4.6875 6-8.4375 9.84-11.25s7.78-4.2188 11.81-4.2188c2.72 0 5.16.4688 7.32 1.4063v13.3594c-3-1.7813-6-2.6719-9-2.6719-4.79 0-8.68 1.6875-11.68 5.0625-2.9 3.375-5.67 7.4063-8.29 12.0937V135h-11.53V64.6875h11.53zm72.7-1.4063c7.22 0 13.22 1.5 18 4.5 4.78 3 8.34 7.0782 10.69 12.2344 2.43 5.1563 3.65 10.9688 3.65 17.4375v6.8909h-54c.57 3.937 1.93 7.547 4.08 10.828 2.16 3.281 4.97 5.906 8.44 7.875 3.47 1.875 7.45 2.812 11.95 2.812 5.07 0 9.8-1.265 14.21-3.797 4.4-2.624 8.1-5.484 11.1-8.578l-.14 12.516c-1.31 1.594-3.28 3.281-5.9 5.062-2.53 1.688-5.49 3.094-8.86 4.219-3.28 1.219-6.75 1.828-10.41 1.828-7.12 0-13.45-1.687-18.98-5.062-5.53-3.375-9.89-7.828-13.08-13.359-3.09-5.626-4.64-11.766-4.64-18.422 0-6.6566 1.45-12.7972 4.36-18.4222s6.89-10.125 11.95-13.5c5.16-3.375 11.02-5.0626 17.58-5.0626zm0 11.25c-5.81 0-10.59 1.9688-14.34 5.9063-3.75 3.8437-6.1 8.5313-7.04 14.0625h42.33c-.47-4.5938-1.78-8.3438-3.93-11.25-2.07-2.9062-4.6-5.0625-7.6-6.4688-3-1.5-6.14-2.25-9.42-2.25zm72.28-11.25c4.13 0 7.97.6094 11.53 1.8282 3.57 1.125 6.14 2.2968 7.74 3.5156V81c-1.97-1.5-4.64-2.9531-8.02-4.3594-3.37-1.4062-6.84-2.1094-10.41-2.1094-4.4 0-7.73 1.0313-9.98 3.0938-2.16 2.0625-3.23 4.2188-3.23 6.4688 0 1.7812.61 3.6093 1.82 5.4843 1.32 1.7813 3.57 3.2344 6.75 4.3594l11.82 4.2187c4.59 1.5938 8.01 3.8908 10.26 6.8908 2.25 3 3.38 6.515 3.38 10.547 0 3.937-1.13 7.547-3.38 10.828-2.15 3.281-5.2 5.906-9.14 7.875-3.84 1.875-8.3 2.812-13.36 2.812-2.72 0-5.58-.375-8.58-1.125-2.9-.656-5.53-1.453-7.87-2.39-2.34-1.032-4.08-1.922-5.2-2.672v-12.375c1.31.937 3.14 2.015 5.48 3.234 2.44 1.125 5.02 2.11 7.73 2.953 2.72.75 5.26 1.125 7.6 1.125 4.4 0 7.87-.984 10.4-2.953 2.63-1.968 3.94-4.406 3.94-7.312 0-2.25-.89-4.032-2.67-5.344-1.69-1.312-4.17-2.578-7.45-3.797l-10.41-3.797c-5.44-2.062-9.05-4.6404-10.83-7.7341-1.78-3.1875-2.67-6.7969-2.67-10.8281 0-6 2.25-10.9688 6.75-14.9063s10.5-5.9063 18-5.9063zm68.2 0c4.04 0 8.11.9844 12.24 2.9532 4.22 1.875 7.83 4.5 10.83 7.875v-9.4219h11.53V135h-11.53v-11.953c-2.44 3.75-5.77 7.031-9.99 9.844-4.12 2.812-8.86 4.218-14.2 4.218-6 0-11.48-1.5-16.45-4.5-4.97-3.093-8.96-7.359-11.96-12.797-2.9-5.437-4.36-11.718-4.36-18.843 0-7.7815 1.46-14.4846 4.36-20.1096 3-5.625 7.08-9.9375 12.24-12.9375 5.15-3.0938 10.92-4.6407 17.29-4.6407zm2.11 11.25c-5.06 0-9.37 1.2657-12.93 3.7969-3.57 2.5313-6.33 5.8125-8.3 9.8438-1.88 3.9375-2.81 8.2031-2.81 12.7971 0 4.5.93 8.672 2.81 12.515 1.87 3.75 4.5 6.75 7.87 9 3.47 2.25 7.46 3.375 11.96 3.375 4.31 0 8.15-1.125 11.53-3.375 3.37-2.25 6.05-5.343 8.01-9.281 1.97-4.031 2.91-8.531 2.82-13.4999l-.14-13.5c-2.91-3.6562-6.05-6.5156-9.43-8.5781-3.28-2.0625-7.07-3.0938-11.39-3.0938zm102.52-9.8437l24.61 51.7505 23.9-51.7505h13.79L1718.16 168.75h-13.36l20.11-37.969-31.08-66.0935h13.78zm139.5-1.4063c4.12 0 7.97.6094 11.53 1.8282 3.56 1.125 6.14 2.2968 7.74 3.5156V81c-1.97-1.5-4.65-2.9531-8.02-4.3594-3.38-1.4062-6.84-2.1094-10.41-2.1094-4.4 0-7.73 1.0313-9.98 3.0938-2.16 2.0625-3.24 4.2188-3.24 6.4688 0 1.7812.61 3.6093 1.83 5.4843 1.32 1.7813 3.56 3.2344 6.75 4.3594l11.81 4.2187c4.6 1.5938 8.02 3.8908 10.27 6.8908 2.25 3 3.38 6.515 3.38 10.547 0 3.937-1.13 7.547-3.38 10.828-2.16 3.281-5.2 5.906-9.14 7.875-3.84 1.875-8.3 2.812-13.36 2.812-2.72 0-5.58-.375-8.58-1.125-2.9-.656-5.53-1.453-7.87-2.39-2.35-1.032-4.08-1.922-5.21-2.672v-12.375c1.32.937 3.15 2.015 5.49 3.234 2.44 1.125 5.01 2.11 7.73 2.953 2.72.75 5.25 1.125 7.6 1.125 4.4 0 7.87-.984 10.4-2.953 2.63-1.968 3.94-4.406 3.94-7.312 0-2.25-.89-4.032-2.67-5.344-1.69-1.312-4.17-2.578-7.45-3.797l-10.41-3.797c-5.44-2.062-9.05-4.6404-10.83-7.7341-1.78-3.1875-2.67-6.7969-2.67-10.8281 0-6 2.25-10.9688 6.75-14.9063s10.5-5.9063 18-5.9063zm96.75 1.4063v41.6245c0 6.188-1.31 11.532-3.94 16.032-2.62 4.5-6.19 7.968-10.69 10.406-4.5 2.438-9.56 3.656-15.18 3.656-5.63 0-10.69-1.218-15.19-3.656s-8.06-5.906-10.69-10.406c-2.62-4.5-3.94-9.844-3.94-16.032V64.6875h11.96v41.6245c0 6.094 1.78 10.782 5.34 14.063 3.66 3.187 7.83 4.781 12.52 4.781 4.68 0 8.81-1.594 12.37-4.781 3.66-3.281 5.49-7.969 5.49-14.063V64.6875h11.95zM23.4844 237.688v14.062c2.7187-4.688 6-8.438 9.8437-11.25 3.8438-2.812 7.7813-4.219 11.8125-4.219 2.7188 0 5.1563.469 7.3125 1.407v13.359c-3-1.781-6-2.672-9-2.672-4.7812 0-8.6719 1.687-11.6719 5.063-2.9062 3.374-5.6718 7.406-8.2968 12.093V308H11.9531v-70.312h11.5313zm72.7031-1.407c7.2185 0 13.2185 1.5 18.0005 4.5 4.781 3 8.343 7.078 10.687 12.235 2.437 5.156 3.656 10.968 3.656 17.437v6.891H74.5312c.5626 3.937 1.9219 7.547 4.0782 10.828 2.1562 3.281 4.9687 5.906 8.4375 7.875 3.4687 1.875 7.4531 2.812 11.9531 2.812 5.062 0 9.797-1.265 14.203-3.797 4.406-2.624 8.109-5.484 11.109-8.578l-.14 12.516c-1.313 1.594-3.281 3.281-5.906 5.062-2.532 1.688-5.485 3.094-8.86 4.219-3.281 1.219-6.75 1.828-10.406 1.828-7.125 0-13.4531-1.687-18.9844-5.062-5.5312-3.375-9.8906-7.828-13.0781-13.359-3.0937-5.626-4.6406-11.766-4.6406-18.422 0-6.657 1.4531-12.797 4.3593-18.422 2.9063-5.625 6.8907-10.125 11.9532-13.5 5.1562-3.375 11.0156-5.063 17.5781-5.063zm0 11.25c-5.8125 0-10.5937 1.969-14.3437 5.907-3.75 3.843-6.0938 8.531-7.0313 14.062h42.3285c-.469-4.594-1.782-8.344-3.938-11.25-2.062-2.906-4.594-5.062-7.594-6.469-3-1.5-6.1402-2.25-9.4215-2.25zm72.2815-11.25c4.125 0 7.969.61 11.531 1.828 3.562 1.125 6.141 2.297 7.734 3.516V254c-1.968-1.5-4.64-2.953-8.015-4.359-3.375-1.407-6.844-2.11-10.407-2.11-4.406 0-7.734 1.031-9.984 3.094-2.156 2.063-3.234 4.219-3.234 6.469 0 1.781.609 3.609 1.828 5.484 1.312 1.781 3.562 3.234 6.75 4.36l11.812 4.218c4.594 1.594 8.016 3.891 10.266 6.891s3.375 6.515 3.375 10.547c0 3.937-1.125 7.547-3.375 10.828-2.156 3.281-5.203 5.906-9.141 7.875-3.843 1.875-8.297 2.812-13.359 2.812-2.719 0-5.578-.375-8.578-1.125-2.906-.656-5.531-1.453-7.875-2.39-2.344-1.032-4.078-1.922-5.203-2.672v-12.375c1.312.937 3.14 2.015 5.484 3.234 2.438 1.125 5.016 2.11 7.734 2.953 2.719.75 5.25 1.125 7.594 1.125 4.406 0 7.875-.984 10.406-2.953 2.626-1.968 3.938-4.406 3.938-7.312 0-2.25-.891-4.032-2.672-5.344-1.687-1.312-4.172-2.578-7.453-3.797l-10.406-3.797c-5.438-2.062-9.047-4.64-10.828-7.734-1.782-3.188-2.672-6.797-2.672-10.828 0-6 2.25-10.969 6.75-14.906 4.5-3.938 10.5-5.907 18-5.907zm74.953 0c6.094 0 11.578 1.5 16.453 4.5 4.969 2.907 8.906 7.031 11.813 12.375 3 5.25 4.5 11.438 4.5 18.563 0 7.687-1.5 14.437-4.5 20.25-2.907 5.719-6.938 10.172-12.094 13.359-5.063 3.188-10.828 4.781-17.297 4.781-4.031 0-8.156-1.078-12.375-3.234-4.125-2.156-7.688-4.922-10.688-8.297v43.172h-11.531V237.688h11.531v11.953c2.438-3.75 5.719-6.891 9.844-9.422 4.219-2.625 9-3.938 14.344-3.938zm-1.828 11.25c-4.219 0-8.063 1.078-11.532 3.235-3.374 2.156-6.046 5.156-8.015 9-1.875 3.75-2.813 8.156-2.813 13.218l.141 13.5c3 3.657 6.141 6.657 9.422 9 3.281 2.25 7.078 3.375 11.391 3.375 5.062 0 9.374-1.312 12.937-3.937 3.563-2.625 6.281-6 8.156-10.125 1.969-4.219 2.953-8.578 2.953-13.078 0-4.594-.937-8.672-2.812-12.235-1.875-3.656-4.5-6.562-7.875-8.718-3.375-2.157-7.359-3.235-11.953-3.235zm85.359-11.25c7.125 0 13.453 1.688 18.985 5.063 5.531 3.375 9.843 7.875 12.937 13.5 3.187 5.625 4.781 11.765 4.781 18.422 0 6.656-1.594 12.796-4.781 18.422-3.094 5.531-7.406 9.984-12.937 13.359-5.532 3.375-11.86 5.062-18.985 5.062s-13.453-1.687-18.984-5.062c-5.531-3.375-9.891-7.828-13.078-13.359-3.094-5.626-4.641-11.766-4.641-18.422 0-6.657 1.547-12.797 4.641-18.422 3.187-5.625 7.547-10.125 13.078-13.5s11.859-5.063 18.984-5.063zm0 11.25c-4.969 0-9.328 1.219-13.078 3.657-3.75 2.343-6.656 5.484-8.719 9.421-1.968 3.844-2.953 8.063-2.953 12.657 0 4.5.985 8.718 2.953 12.656 2.063 3.844 4.969 6.984 8.719 9.422 3.75 2.344 8.109 3.515 13.078 3.515 5.063 0 9.422-1.171 13.078-3.515 3.75-2.438 6.61-5.578 8.578-9.422 2.063-3.938 3.094-8.156 3.094-12.656 0-4.594-1.031-8.813-3.094-12.657-1.968-3.937-4.828-7.078-8.578-9.421-3.656-2.438-8.015-3.657-13.078-3.657zm67.219-9.843v11.109c1.5-1.875 3.422-3.75 5.766-5.625 2.343-1.969 4.968-3.61 7.874-4.922 3-1.312 6.094-1.969 9.282-1.969 4.781 0 9.14 1.078 13.078 3.235 3.937 2.062 7.078 5.25 9.422 9.562 2.344 4.219 3.515 9.563 3.515 16.031V308h-11.531l-.14-41.766c0-6.093-1.36-10.734-4.079-13.922-2.625-3.187-6.703-4.781-12.234-4.781-3.75 0-7.5 1.407-11.25 4.219-3.656 2.719-6.891 5.906-9.703 9.562V308h-11.531v-70.312h11.531zm91.687-1.407c4.125 0 7.969.61 11.532 1.828 3.562 1.125 6.14 2.297 7.734 3.516V254c-1.969-1.5-4.641-2.953-8.016-4.359-3.375-1.407-6.843-2.11-10.406-2.11-4.406 0-7.734 1.031-9.984 3.094-2.157 2.063-3.235 4.219-3.235 6.469 0 1.781.61 3.609 1.828 5.484 1.313 1.781 3.563 3.234 6.75 4.36l11.813 4.218c4.594 1.594 8.016 3.891 10.266 6.891s3.375 6.515 3.375 10.547c0 3.937-1.125 7.547-3.375 10.828-2.157 3.281-5.203 5.906-9.141 7.875-3.844 1.875-8.297 2.812-13.359 2.812-2.719 0-5.579-.375-8.579-1.125-2.906-.656-5.531-1.453-7.874-2.39-2.344-1.032-4.079-1.922-5.204-2.672v-12.375c1.313.937 3.141 2.015 5.485 3.234 2.437 1.125 5.015 2.11 7.734 2.953 2.719.75 5.25 1.125 7.594 1.125 4.406 0 7.875-.984 10.406-2.953 2.625-1.968 3.938-4.406 3.938-7.312 0-2.25-.891-4.032-2.672-5.344-1.688-1.312-4.172-2.578-7.453-3.797l-10.407-3.797c-5.437-2.062-9.047-4.64-10.828-7.734-1.781-3.188-2.672-6.797-2.672-10.828 0-6 2.25-10.969 6.75-14.906 4.5-3.938 10.5-5.907 18-5.907zm68.203 0c4.032 0 8.11.985 12.235 2.953 4.219 1.875 7.828 4.5 10.828 7.875v-9.421h11.531V308h-11.531v-11.953c-2.437 3.75-5.766 7.031-9.984 9.844-4.125 2.812-8.86 4.218-14.203 4.218-6 0-11.485-1.5-16.454-4.5-4.968-3.093-8.953-7.359-11.953-12.797-2.906-5.437-4.359-11.718-4.359-18.843 0-7.781 1.453-14.485 4.359-20.11 3-5.625 7.078-9.937 12.235-12.937 5.156-3.094 10.922-4.641 17.296-4.641zm2.11 11.25c-5.063 0-9.375 1.266-12.938 3.797-3.562 2.531-6.328 5.813-8.296 9.844-1.876 3.937-2.813 8.203-2.813 12.797 0 4.5.937 8.672 2.813 12.515 1.874 3.75 4.5 6.75 7.874 9 3.469 2.25 7.454 3.375 11.954 3.375 4.312 0 8.156-1.125 11.531-3.375s6.047-5.343 8.015-9.281c1.969-4.031 2.907-8.531 2.813-13.5l-.141-13.5c-2.906-3.656-6.046-6.515-9.422-8.578-3.281-2.063-7.078-3.094-11.39-3.094zm90.984-11.25c6.469 0 12.235 1.547 17.297 4.641 5.156 3 9.188 7.312 12.094 12.937 3 5.625 4.5 12.329 4.5 20.11 0 7.125-1.5 13.406-4.5 18.843-2.906 5.438-6.844 9.704-11.813 12.797-4.875 3-10.359 4.5-16.453 4.5-5.343 0-10.125-1.406-14.343-4.218-4.126-2.813-7.407-6.094-9.844-9.844V308h-11.532V206.75h11.532v40.359c3-3.375 6.562-6 10.687-7.875 4.219-1.968 8.344-2.953 12.375-2.953zm-2.109 11.391c-4.313 0-8.109 1.031-11.391 3.094-3.281 1.968-6.422 4.781-9.422 8.437l-.14 13.5c0 4.969.937 9.422 2.812 13.359 1.969 3.938 4.641 7.032 8.016 9.282 3.469 2.25 7.312 3.375 11.531 3.375 4.594 0 8.578-1.125 11.953-3.375s6-5.25 7.875-9 2.813-7.875 2.813-12.375c0-4.594-.985-8.86-2.953-12.797-1.875-4.031-4.594-7.266-8.157-9.703-3.562-2.531-7.875-3.797-12.937-3.797zm66.234-43.734c2.719 0 4.969.984 6.75 2.953 1.875 1.875 2.813 4.078 2.813 6.609 0 2.438-.938 4.641-2.813 6.609-1.781 1.969-4.031 2.953-6.75 2.953-2.719 0-5.015-.984-6.89-2.953-1.782-1.968-2.672-4.171-2.672-6.609 0-2.531.89-4.734 2.672-6.609 1.875-1.969 4.171-2.953 6.89-2.953zm7.172 33.75V308h-11.531v-59.484h-11.11v-10.828h22.641zm36.422-30.938V308h-11.531V206.75h11.531zm35.156-2.812c2.719 0 4.969.984 6.75 2.953 1.875 1.875 2.813 4.078 2.813 6.609 0 2.438-.938 4.641-2.813 6.609-1.781 1.969-4.031 2.953-6.75 2.953-2.719 0-5.015-.984-6.89-2.953-1.782-1.968-2.672-4.171-2.672-6.609 0-2.531.89-4.734 2.672-6.609 1.875-1.969 4.171-2.953 6.89-2.953zm7.172 33.75V308h-11.531v-59.484h-11.11v-10.828h22.641zm88.453-30.938V308h-11.531v-11.953c-2.437 3.75-5.766 7.031-9.984 9.844-4.125 2.812-8.86 4.218-14.203 4.218-6 0-11.485-1.5-16.454-4.5-4.968-3.093-8.953-7.359-11.953-12.797-2.906-5.437-4.359-11.718-4.359-18.843 0-7.781 1.453-14.485 4.359-20.11 3-5.625 7.078-9.937 12.235-12.937 5.156-3.094 10.922-4.641 17.296-4.641 4.032 0 8.11.985 12.235 2.953 4.219 1.875 7.828 4.5 10.828 7.875V206.75h11.531zm-32.484 41.062c-5.063 0-9.375 1.266-12.938 3.797-3.562 2.438-6.328 5.625-8.296 9.563-1.876 3.937-2.813 8.203-2.813 12.797 0 4.5.937 8.672 2.813 12.515 1.874 3.75 4.5 6.75 7.874 9 3.469 2.25 7.454 3.375 11.954 3.375 4.312 0 8.156-1.125 11.531-3.375s6.047-5.343 8.015-9.281c1.969-4.031 2.907-8.531 2.813-13.5l-.141-13.5c-2.906-3.656-6.046-6.469-9.422-8.437-3.281-1.969-7.078-2.954-11.39-2.954zm85.359-11.531c4.031 0 8.11.985 12.235 2.953 4.218 1.875 7.828 4.5 10.828 7.875v-9.421h11.531V308h-11.531v-11.953c-2.438 3.75-5.766 7.031-9.985 9.844-4.125 2.812-8.859 4.218-14.203 4.218-6 0-11.484-1.5-16.453-4.5-4.969-3.093-8.953-7.359-11.953-12.797-2.906-5.437-4.359-11.718-4.359-18.843 0-7.781 1.453-14.485 4.359-20.11 3-5.625 7.078-9.937 12.234-12.937 5.157-3.094 10.922-4.641 17.297-4.641zm2.11 11.25c-5.063 0-9.375 1.266-12.938 3.797-3.562 2.531-6.328 5.813-8.297 9.844-1.875 3.937-2.812 8.203-2.812 12.797 0 4.5.937 8.672 2.812 12.515 1.875 3.75 4.5 6.75 7.875 9 3.469 2.25 7.453 3.375 11.953 3.375 4.313 0 8.157-1.125 11.532-3.375s6.046-5.343 8.015-9.281c1.969-4.031 2.907-8.531 2.813-13.5l-.141-13.5c-2.906-3.656-6.047-6.515-9.422-8.578-3.281-2.063-7.078-3.094-11.39-3.094zm119.949-40.781V308h-11.53v-11.953c-2.44 3.75-5.76 7.031-9.98 9.844-4.13 2.812-8.86 4.218-14.2 4.218-6 0-11.49-1.5-16.46-4.5-4.97-3.093-8.951-7.359-11.951-12.797-2.907-5.437-4.36-11.718-4.36-18.843 0-7.781 1.453-14.485 4.36-20.11 3-5.625 7.081-9.937 12.231-12.937 5.16-3.094 10.92-4.641 17.3-4.641 4.03 0 8.11.985 12.23 2.953 4.22 1.875 7.83 4.5 10.83 7.875V206.75h11.53zm-32.48 41.062c-5.06 0-9.38 1.266-12.94 3.797-3.56 2.438-6.33 5.625-8.29 9.563-1.88 3.937-2.82 8.203-2.82 12.797 0 4.5.94 8.672 2.82 12.515 1.87 3.75 4.5 6.75 7.87 9 3.47 2.25 7.45 3.375 11.95 3.375 4.32 0 8.16-1.125 11.53-3.375 3.38-2.25 6.05-5.343 8.02-9.281 1.97-4.031 2.91-8.531 2.81-13.5l-.14-13.5c-2.9-3.656-6.04-6.469-9.42-8.437-3.28-1.969-7.08-2.954-11.39-2.954zm127.55-11.531c7.22 0 13.22 1.5 18 4.5 4.78 3 8.34 7.078 10.68 12.235 2.44 5.156 3.66 10.968 3.66 17.437v6.891h-54c.56 3.937 1.92 7.547 4.08 10.828 2.15 3.281 4.97 5.906 8.44 7.875 3.46 1.875 7.45 2.812 11.95 2.812 5.06 0 9.8-1.265 14.2-3.797 4.41-2.624 8.11-5.484 11.11-8.578l-.14 12.516c-1.31 1.594-3.28 3.281-5.91 5.062-2.53 1.688-5.48 3.094-8.85 4.219-3.29 1.219-6.76 1.828-10.41 1.828-7.13 0-13.45-1.687-18.99-5.062-5.53-3.375-9.89-7.828-13.07-13.359-3.1-5.626-4.64-11.766-4.64-18.422 0-6.657 1.45-12.797 4.35-18.422 2.91-5.625 6.9-10.125 11.96-13.5 5.15-3.375 11.01-5.063 17.58-5.063zm0 11.25c-5.82 0-10.6 1.969-14.35 5.907-3.75 3.843-6.09 8.531-7.03 14.062h42.33c-.47-4.594-1.78-8.344-3.94-11.25-2.06-2.906-4.59-5.062-7.59-6.469-3-1.5-6.14-2.25-9.42-2.25zm72.28-11.25c4.12 0 7.97.61 11.53 1.828 3.56 1.125 6.14 2.297 7.73 3.516V254c-1.97-1.5-4.64-2.953-8.01-4.359-3.38-1.407-6.85-2.11-10.41-2.11-4.4 0-7.73 1.031-9.98 3.094-2.16 2.063-3.24 4.219-3.24 6.469 0 1.781.61 3.609 1.83 5.484 1.31 1.781 3.56 3.234 6.75 4.36l11.81 4.218c4.6 1.594 8.02 3.891 10.27 6.891s3.37 6.515 3.37 10.547c0 3.937-1.12 7.547-3.37 10.828-2.16 3.281-5.2 5.906-9.14 7.875-3.85 1.875-8.3 2.812-13.36 2.812-2.72 0-5.58-.375-8.58-1.125-2.91-.656-5.53-1.453-7.87-2.39-2.35-1.032-4.08-1.922-5.21-2.672v-12.375c1.32.937 3.14 2.015 5.49 3.234 2.43 1.125 5.01 2.11 7.73 2.953 2.72.75 5.25 1.125 7.6 1.125 4.4 0 7.87-.984 10.4-2.953 2.63-1.968 3.94-4.406 3.94-7.312 0-2.25-.89-4.032-2.67-5.344-1.69-1.312-4.17-2.578-7.46-3.797l-10.4-3.797c-5.44-2.062-9.05-4.64-10.83-7.734-1.78-3.188-2.67-6.797-2.67-10.828 0-6 2.25-10.969 6.75-14.906 4.5-3.938 10.5-5.907 18-5.907zm110.39 0c4.03 0 8.11.985 12.23 2.953 4.22 1.875 7.83 4.5 10.83 7.875v-9.421h11.53v68.906c0 8.344-1.69 15.281-5.06 20.812-3.38 5.532-7.88 9.656-13.5 12.375-5.63 2.719-11.77 4.078-18.42 4.078-4.32 0-8.02-.515-11.11-1.547-3-.937-5.58-2.156-7.74-3.656-2.15-1.406-4.12-2.765-5.9-4.078v-12.375c1.4 1.031 3.23 2.344 5.48 3.938 2.35 1.687 5.11 3.187 8.3 4.5 3.28 1.312 6.94 1.968 10.97 1.968 4.59 0 8.81-.843 12.65-2.531 3.85-1.687 6.94-4.172 9.29-7.453 2.34-3.281 3.51-7.219 3.51-11.813v-14.765c-2.44 3.75-5.77 7.031-9.98 9.844-4.13 2.812-8.86 4.218-14.21 4.218-6 0-11.48-1.5-16.45-4.5-4.97-3.093-8.95-7.359-11.95-12.797-2.91-5.437-4.36-11.718-4.36-18.843 0-7.781 1.45-14.485 4.36-20.11 3-5.625 7.08-9.937 12.23-12.937 5.16-3.094 10.92-4.641 17.3-4.641zm2.11 11.391c-5.06 0-9.38 1.266-12.94 3.797-3.56 2.437-6.33 5.672-8.3 9.703-1.87 3.937-2.81 8.203-2.81 12.797 0 4.5.94 8.625 2.81 12.375 1.88 3.75 4.5 6.75 7.88 9 3.47 2.25 7.45 3.375 11.95 3.375 4.31 0 8.16-1.125 11.53-3.375 3.38-2.25 6.05-5.344 8.02-9.282 1.97-3.937 2.9-8.39 2.81-13.359l-.14-13.5c-2.91-3.656-6.05-6.469-9.42-8.437-3.28-2.063-7.08-3.094-11.39-3.094zm85.36-11.391c7.22 0 13.22 1.5 18 4.5 4.78 3 8.34 7.078 10.68 12.235 2.44 5.156 3.66 10.968 3.66 17.437v6.891h-54c.56 3.937 1.92 7.547 4.08 10.828 2.16 3.281 4.97 5.906 8.44 7.875 3.46 1.875 7.45 2.812 11.95 2.812 5.06 0 9.8-1.265 14.2-3.797 4.41-2.624 8.11-5.484 11.11-8.578l-.14 12.516c-1.31 1.594-3.28 3.281-5.9 5.062-2.54 1.688-5.49 3.094-8.86 4.219-3.29 1.219-6.75 1.828-10.41 1.828-7.13 0-13.45-1.687-18.99-5.062-5.53-3.375-9.89-7.828-13.07-13.359-3.1-5.626-4.64-11.766-4.64-18.422 0-6.657 1.45-12.797 4.36-18.422 2.9-5.625 6.89-10.125 11.95-13.5 5.16-3.375 11.01-5.063 17.58-5.063zm0 11.25c-5.82 0-10.6 1.969-14.35 5.907-3.75 3.843-6.09 8.531-7.03 14.062h42.33c-.47-4.594-1.78-8.344-3.94-11.25-2.06-2.906-4.59-5.062-7.59-6.469-3-1.5-6.14-2.25-9.42-2.25zm72.28-11.25c4.12 0 7.97.61 11.53 1.828 3.56 1.125 6.14 2.297 7.73 3.516V254c-1.96-1.5-4.64-2.953-8.01-4.359-3.38-1.407-6.85-2.11-10.41-2.11-4.4 0-7.73 1.031-9.98 3.094-2.16 2.063-3.24 4.219-3.24 6.469 0 1.781.61 3.609 1.83 5.484 1.31 1.781 3.56 3.234 6.75 4.36l11.81 4.218c4.6 1.594 8.02 3.891 10.27 6.891s3.37 6.515 3.37 10.547c0 3.937-1.12 7.547-3.37 10.828-2.16 3.281-5.2 5.906-9.14 7.875-3.84 1.875-8.3 2.812-13.36 2.812-2.72 0-5.58-.375-8.58-1.125-2.9-.656-5.53-1.453-7.87-2.39-2.35-1.032-4.08-1.922-5.21-2.672v-12.375c1.32.937 3.14 2.015 5.49 3.234 2.43 1.125 5.01 2.11 7.73 2.953 2.72.75 5.25 1.125 7.6 1.125 4.4 0 7.87-.984 10.4-2.953 2.63-1.968 3.94-4.406 3.94-7.312 0-2.25-.89-4.032-2.67-5.344-1.69-1.312-4.17-2.578-7.46-3.797l-10.4-3.797c-5.44-2.062-9.05-4.64-10.83-7.734-1.78-3.188-2.67-6.797-2.67-10.828 0-6 2.25-10.969 6.75-14.906 4.5-3.938 10.5-5.907 18-5.907zm58.64-18.843v20.25h20.53v10.828h-20.53v41.203c0 2.906.75 5.203 2.25 6.89 1.5 1.688 3.8 2.532 6.89 2.532 2.81 0 5.16-.329 7.03-.985 1.88-.75 3.52-1.547 4.92-2.39v9.422c-1.87 1.5-3.89 2.671-6.04 3.515-2.07.938-4.88 1.406-8.44 1.406-6 0-10.55-1.781-13.64-5.343-3-3.657-4.5-8.485-4.5-14.485v-41.765h-13.5v-3.375c4.59-2.063 8.43-5.438 11.53-10.125 3.09-4.782 5.81-10.641 8.16-17.578h5.34zm52.73-13.5c2.72 0 4.97.984 6.75 2.953 1.88 1.875 2.82 4.078 2.82 6.609 0 2.438-.94 4.641-2.82 6.609-1.78 1.969-4.03 2.953-6.75 2.953-2.72 0-5.01-.984-6.89-2.953-1.78-1.968-2.67-4.171-2.67-6.609 0-2.531.89-4.734 2.67-6.609 1.88-1.969 4.17-2.953 6.89-2.953zm7.17 33.75V308h-11.53v-59.484h-11.11v-10.828h22.64zm56.68-1.407c7.12 0 13.45 1.688 18.98 5.063 5.53 3.375 9.84 7.875 12.94 13.5 3.19 5.625 4.78 11.765 4.78 18.422 0 6.656-1.59 12.796-4.78 18.422-3.1 5.531-7.41 9.984-12.94 13.359-5.53 3.375-11.86 5.062-18.98 5.062-7.13 0-13.46-1.687-18.99-5.062-5.53-3.375-9.89-7.828-13.08-13.359-3.09-5.626-4.64-11.766-4.64-18.422 0-6.657 1.55-12.797 4.64-18.422 3.19-5.625 7.55-10.125 13.08-13.5s11.86-5.063 18.99-5.063zm0 11.25c-4.97 0-9.33 1.219-13.08 3.657-3.75 2.343-6.66 5.484-8.72 9.421-1.97 3.844-2.95 8.063-2.95 12.657 0 4.5.98 8.718 2.95 12.656 2.06 3.844 4.97 6.984 8.72 9.422 3.75 2.344 8.11 3.515 13.08 3.515 5.06 0 9.42-1.171 13.08-3.515 3.74-2.438 6.6-5.578 8.57-9.422 2.07-3.938 3.1-8.156 3.1-12.656 0-4.594-1.03-8.813-3.1-12.657-1.97-3.937-4.83-7.078-8.57-9.421-3.66-2.438-8.02-3.657-13.08-3.657zm67.22-9.843v11.109c1.5-1.875 3.42-3.75 5.76-5.625 2.34-1.969 4.97-3.61 7.88-4.922 3-1.312 6.09-1.969 9.28-1.969 4.78 0 9.14 1.078 13.08 3.235 3.93 2.062 7.07 5.25 9.42 9.562 2.34 4.219 3.51 9.563 3.51 16.031V308h-11.53l-.14-41.766c0-6.093-1.36-10.734-4.08-13.922-2.62-3.187-6.7-4.781-12.23-4.781-3.75 0-7.5 1.407-11.25 4.219-3.66 2.719-6.89 5.906-9.7 9.562V308h-11.54v-70.312h11.54zm99.7-1.407c4.03 0 8.11.985 12.23 2.953 4.22 1.875 7.83 4.5 10.83 7.875v-9.421h11.53V308h-11.53v-11.953c-2.44 3.75-5.76 7.031-9.98 9.844-4.13 2.812-8.86 4.218-14.21 4.218-6 0-11.48-1.5-16.45-4.5-4.97-3.093-8.95-7.359-11.95-12.797-2.91-5.437-4.36-11.718-4.36-18.843 0-7.781 1.45-14.485 4.36-20.11 3-5.625 7.08-9.937 12.23-12.937 5.16-3.094 10.92-4.641 17.3-4.641zm2.11 11.25c-5.06 0-9.38 1.266-12.94 3.797-3.56 2.531-6.33 5.813-8.3 9.844-1.87 3.937-2.81 8.203-2.81 12.797 0 4.5.94 8.672 2.81 12.515 1.88 3.75 4.5 6.75 7.88 9 3.47 2.25 7.45 3.375 11.95 3.375 4.31 0 8.16-1.125 11.53-3.375 3.38-2.25 6.05-5.343 8.02-9.281 1.97-4.031 2.91-8.531 2.81-13.5l-.14-13.5c-2.91-3.656-6.05-6.515-9.42-8.578-3.28-2.063-7.08-3.094-11.39-3.094zm67.92-9.843v14.062c2.72-4.688 6-8.438 9.84-11.25 3.85-2.812 7.79-4.219 11.82-4.219 2.71 0 5.15.469 7.31 1.407v13.359c-3-1.781-6-2.672-9-2.672-4.78 0-8.67 1.687-11.67 5.063-2.91 3.374-5.67 7.406-8.3 12.093V308h-11.53v-70.312h11.53zm89.86 0l24.61 51.75 23.9-51.75h13.79l-51.75 104.062h-13.36l20.11-37.969-31.08-66.093h13.78zm130.08 0v14.062c2.72-4.688 6-8.438 9.84-11.25 3.85-2.812 7.78-4.219 11.81-4.219 2.72 0 5.16.469 7.32 1.407v13.359c-3-1.781-6-2.672-9-2.672-4.78 0-8.68 1.687-11.68 5.063-2.9 3.374-5.67 7.406-8.29 12.093V308h-11.53v-70.312h11.53zm72.7-1.407c7.22 0 13.22 1.5 18 4.5 4.78 3 8.34 7.078 10.69 12.235 2.44 5.156 3.65 10.968 3.65 17.437v6.891h-54c.57 3.937 1.93 7.547 4.08 10.828 2.16 3.281 4.97 5.906 8.44 7.875 3.47 1.875 7.45 2.812 11.95 2.812 5.07 0 9.8-1.265 14.21-3.797 4.4-2.624 8.11-5.484 11.11-8.578l-.14 12.516c-1.32 1.594-3.29 3.281-5.91 5.062-2.53 1.688-5.49 3.094-8.86 4.219-3.28 1.219-6.75 1.828-10.41 1.828-7.12 0-13.45-1.687-18.98-5.062-5.53-3.375-9.89-7.828-13.08-13.359-3.09-5.626-4.64-11.766-4.64-18.422 0-6.657 1.45-12.797 4.36-18.422s6.89-10.125 11.95-13.5c5.16-3.375 11.02-5.063 17.58-5.063zm0 11.25c-5.81 0-10.59 1.969-14.34 5.907-3.75 3.843-6.1 8.531-7.03 14.062h42.32c-.46-4.594-1.78-8.344-3.93-11.25-2.07-2.906-4.6-5.062-7.6-6.469-3-1.5-6.14-2.25-9.42-2.25zm113.34-9.843L2283.19 308h-7.17l-31.64-70.312h13.78l21.23 51.75 23.06-51.75h13.78zm25.32-33.75c2.72 0 4.97.984 6.75 2.953 1.87 1.875 2.81 4.078 2.81 6.609 0 2.438-.94 4.641-2.81 6.609-1.78 1.969-4.03 2.953-6.75 2.953-2.72 0-5.02-.984-6.89-2.953-1.78-1.968-2.68-4.171-2.68-6.609 0-2.531.9-4.734 2.68-6.609 1.87-1.969 4.17-2.953 6.89-2.953zm7.17 33.75V308h-11.53v-59.484h-11.11v-10.828h22.64zm45.84-1.407c4.13 0 7.97.61 11.53 1.828 3.57 1.125 6.14 2.297 7.74 3.516V254c-1.97-1.5-4.64-2.953-8.02-4.359-3.37-1.407-6.84-2.11-10.4-2.11-4.41 0-7.74 1.031-9.99 3.094-2.15 2.063-3.23 4.219-3.23 6.469 0 1.781.61 3.609 1.83 5.484 1.31 1.781 3.56 3.234 6.75 4.36l11.81 4.218c4.59 1.594 8.01 3.891 10.26 6.891s3.38 6.515 3.38 10.547c0 3.937-1.13 7.547-3.38 10.828-2.15 3.281-5.2 5.906-9.14 7.875-3.84 1.875-8.29 2.812-13.36 2.812-2.72 0-5.57-.375-8.57-1.125-2.91-.656-5.54-1.453-7.88-2.39-2.34-1.032-4.08-1.922-5.2-2.672v-12.375c1.31.937 3.14 2.015 5.48 3.234 2.44 1.125 5.02 2.11 7.74 2.953 2.71.75 5.25 1.125 7.59 1.125 4.41 0 7.88-.984 10.41-2.953 2.62-1.968 3.93-4.406 3.93-7.312 0-2.25-.89-4.032-2.67-5.344-1.69-1.312-4.17-2.578-7.45-3.797l-10.41-3.797c-5.43-2.062-9.04-4.64-10.83-7.734-1.78-3.188-2.67-6.797-2.67-10.828 0-6 2.25-10.969 6.75-14.906 4.5-3.938 10.5-5.907 18-5.907zm68.21 0c4.03 0 8.11.985 12.23 2.953 4.22 1.875 7.83 4.5 10.83 7.875v-9.421h11.53V308h-11.53v-11.953c-2.44 3.75-5.77 7.031-9.99 9.844-4.12 2.812-8.86 4.218-14.2 4.218-6 0-11.48-1.5-16.45-4.5-4.97-3.093-8.96-7.359-11.96-12.797-2.9-5.437-4.35-11.718-4.35-18.843 0-7.781 1.45-14.485 4.35-20.11 3-5.625 7.08-9.937 12.24-12.937 5.15-3.094 10.92-4.641 17.3-4.641zm2.11 11.25c-5.07 0-9.38 1.266-12.94 3.797-3.56 2.531-6.33 5.813-8.3 9.844-1.87 3.937-2.81 8.203-2.81 12.797 0 4.5.94 8.672 2.81 12.515 1.88 3.75 4.5 6.75 7.88 9 3.46 2.25 7.45 3.375 11.95 3.375 4.31 0 8.15-1.125 11.53-3.375 3.38-2.25 6.05-5.343 8.02-9.281 1.96-4.031 2.9-8.531 2.81-13.5l-.14-13.5c-2.91-3.656-6.05-6.515-9.42-8.578-3.29-2.063-7.08-3.094-11.39-3.094zm67.92-9.843v14.062c2.72-4.688 6-8.438 9.84-11.25 3.84-2.812 7.78-4.219 11.81-4.219 2.72 0 5.16.469 7.32 1.407v13.359c-3-1.781-6-2.672-9-2.672-4.79 0-8.68 1.687-11.68 5.063-2.9 3.374-5.67 7.406-8.29 12.093V308h-11.53v-70.312h11.53zm97.45-30.938V308h-11.53V206.75h11.53zm55.69 29.531c7.12 0 13.45 1.688 18.98 5.063 5.53 3.375 9.85 7.875 12.94 13.5 3.19 5.625 4.78 11.765 4.78 18.422 0 6.656-1.59 12.796-4.78 18.422-3.09 5.531-7.41 9.984-12.94 13.359-5.53 3.375-11.86 5.062-18.98 5.062-7.13 0-13.46-1.687-18.99-5.062-5.53-3.375-9.89-7.828-13.07-13.359-3.1-5.626-4.65-11.766-4.65-18.422 0-6.657 1.55-12.797 4.65-18.422 3.18-5.625 7.54-10.125 13.07-13.5s11.86-5.063 18.99-5.063zm0 11.25c-4.97 0-9.33 1.219-13.08 3.657-3.75 2.343-6.66 5.484-8.72 9.421-1.97 3.844-2.95 8.063-2.95 12.657 0 4.5.98 8.718 2.95 12.656 2.06 3.844 4.97 6.984 8.72 9.422 3.75 2.344 8.11 3.515 13.08 3.515 5.06 0 9.42-1.171 13.08-3.515 3.75-2.438 6.6-5.578 8.57-9.422 2.07-3.938 3.1-8.156 3.1-12.656 0-4.594-1.03-8.813-3.1-12.657-1.97-3.937-4.82-7.078-8.57-9.421-3.66-2.438-8.02-3.657-13.08-3.657zm76.64-11.25c4.12 0 7.97.61 11.53 1.828 3.56 1.125 6.14 2.297 7.73 3.516V254c-1.96-1.5-4.64-2.953-8.01-4.359-3.38-1.407-6.85-2.11-10.41-2.11-4.4 0-7.73 1.031-9.98 3.094-2.16 2.063-3.24 4.219-3.24 6.469 0 1.781.61 3.609 1.83 5.484 1.31 1.781 3.56 3.234 6.75 4.36l11.81 4.218c4.6 1.594 8.02 3.891 10.27 6.891s3.37 6.515 3.37 10.547c0 3.937-1.12 7.547-3.37 10.828-2.16 3.281-5.2 5.906-9.14 7.875-3.84 1.875-8.3 2.812-13.36 2.812-2.72 0-5.58-.375-8.58-1.125-2.9-.656-5.53-1.453-7.87-2.39-2.35-1.032-4.08-1.922-5.21-2.672v-12.375c1.32.937 3.14 2.015 5.49 3.234 2.43 1.125 5.01 2.11 7.73 2.953 2.72.75 5.25 1.125 7.6 1.125 4.4 0 7.87-.984 10.4-2.953 2.63-1.968 3.94-4.406 3.94-7.312 0-2.25-.89-4.032-2.67-5.344-1.69-1.312-4.17-2.578-7.46-3.797l-10.4-3.797c-5.44-2.062-9.05-4.64-10.83-7.734-1.78-3.188-2.67-6.797-2.67-10.828 0-6 2.25-10.969 6.75-14.906 4.5-3.938 10.5-5.907 18-5.907zm-2714.9081 173c6.0937 0 11.5781 1.5 16.4531 4.5 4.9688 2.907 8.9062 7.031 11.8125 12.375 3 5.25 4.5 11.438 4.5 18.563 0 7.687-1.5 14.437-4.5 20.25-2.9063 5.719-6.9375 10.172-12.0937 13.359-5.0626 3.188-10.8282 4.781-17.2969 4.781-4.0313 0-8.1563-1.078-12.375-3.234-4.125-2.156-7.6875-4.922-10.6875-8.297v43.172H11.9531V410.688h11.5313v11.953c2.4375-3.75 5.7187-6.891 9.8437-9.422 4.2188-2.625 9-3.938 14.3438-3.938zm-1.8281 11.25c-4.2188 0-8.0626 1.078-11.5313 3.235-3.375 2.156-6.0469 5.156-8.0156 9-1.875 3.75-2.8125 8.156-2.8125 13.218l.1406 13.5c3 3.657 6.1406 6.657 9.4219 9 3.2812 2.25 7.0781 3.375 11.3906 3.375 5.0625 0 9.375-1.312 12.9375-3.937s6.2812-6 8.1562-10.125c1.9688-4.219 2.9532-8.578 2.9532-13.078 0-4.594-.9375-8.672-2.8125-12.235-1.875-3.656-4.5-6.562-7.875-8.718-3.375-2.157-7.3594-3.235-11.9531-3.235zm65.1092-9.843v14.062c2.719-4.688 6-8.438 9.844-11.25 3.844-2.812 7.781-4.219 11.812-4.219 2.719 0 5.157.469 7.313 1.407v13.359c-3-1.781-6-2.672-9-2.672-4.781 0-8.672 1.687-11.672 5.063-2.906 3.374-5.672 7.406-8.297 12.093V481H99.4219v-70.312h11.5311zm75.516-1.407c7.125 0 13.453 1.688 18.984 5.063 5.531 3.375 9.844 7.875 12.938 13.5 3.187 5.625 4.781 11.765 4.781 18.422 0 6.656-1.594 12.796-4.781 18.422-3.094 5.531-7.407 9.984-12.938 13.359-5.531 3.375-11.859 5.062-18.984 5.062-7.125 0-13.453-1.687-18.985-5.062-5.531-3.375-9.89-7.828-13.078-13.359-3.094-5.626-4.64-11.766-4.64-18.422 0-6.657 1.546-12.797 4.64-18.422 3.188-5.625 7.547-10.125 13.078-13.5 5.532-3.375 11.86-5.063 18.985-5.063zm0 11.25c-4.969 0-9.328 1.219-13.078 3.657-3.75 2.343-6.657 5.484-8.719 9.421-1.969 3.844-2.953 8.063-2.953 12.657 0 4.5.984 8.718 2.953 12.656 2.062 3.844 4.969 6.984 8.719 9.422 3.75 2.344 8.109 3.515 13.078 3.515 5.062 0 9.422-1.171 13.078-3.515 3.75-2.438 6.609-5.578 8.578-9.422 2.063-3.938 3.094-8.156 3.094-12.656 0-4.594-1.031-8.813-3.094-12.657-1.969-3.937-4.828-7.078-8.578-9.421-3.656-2.438-8.016-3.657-13.078-3.657zm59.625-9.843l24.609 51.75 23.906-51.75h13.782l-51.75 104.062h-13.36l20.11-37.969-31.079-66.093h13.782zm105.328-1.407c7.219 0 13.219 1.5 18 4.5 4.781 3 8.344 7.078 10.687 12.235 2.438 5.156 3.657 10.968 3.657 17.437v6.891h-54c.562 3.937 1.922 7.547 4.078 10.828 2.156 3.281 4.968 5.906 8.437 7.875 3.469 1.875 7.453 2.812 11.953 2.812 5.063 0 9.797-1.265 14.204-3.797 4.406-2.624 8.109-5.484 11.109-8.578L379.406 472c-1.312 1.594-3.281 3.281-5.906 5.062-2.531 1.688-5.484 3.094-8.859 4.219-3.282 1.219-6.75 1.828-10.407 1.828-7.125 0-13.453-1.687-18.984-5.062-5.531-3.375-9.891-7.828-13.078-13.359-3.094-5.626-4.641-11.766-4.641-18.422 0-6.657 1.453-12.797 4.36-18.422 2.906-5.625 6.89-10.125 11.953-13.5 5.156-3.375 11.015-5.063 17.578-5.063zm0 11.25c-5.813 0-10.594 1.969-14.344 5.907-3.75 3.843-6.094 8.531-7.031 14.062h42.328c-.469-4.594-1.781-8.344-3.937-11.25-2.063-2.906-4.594-5.062-7.594-6.469-3-1.5-6.141-2.25-9.422-2.25zm83.109-11.25c5.157 0 9.61.844 13.36 2.531 3.75 1.594 6.328 3.047 7.734 4.36v11.672c-2.625-1.969-5.625-3.656-9-5.063-3.375-1.5-7.406-2.25-12.094-2.25-4.969 0-9.328 1.219-13.078 3.657-3.75 2.343-6.656 5.484-8.719 9.421-1.968 3.844-2.953 8.063-2.953 12.657 0 4.5.985 8.718 2.953 12.656 2.063 3.844 4.969 6.984 8.719 9.422 3.75 2.344 8.109 3.515 13.078 3.515 4.688 0 8.719-.703 12.094-2.109 3.375-1.5 6.375-3.234 9-5.203v11.672c-1.406 1.406-3.984 2.906-7.734 4.5-3.75 1.593-8.203 2.39-13.36 2.39-7.125 0-13.453-1.687-18.984-5.062-5.531-3.375-9.891-7.828-13.078-13.359-3.094-5.626-4.641-11.766-4.641-18.422 0-6.657 1.547-12.797 4.641-18.422 3.187-5.625 7.547-10.125 13.078-13.5s11.859-5.063 18.984-5.063zm59.485-18.843v20.25h20.531v10.828h-20.531v41.203c0 2.906.75 5.203 2.25 6.89 1.5 1.688 3.796 2.532 6.89 2.532 2.813 0 5.156-.329 7.032-.985 1.874-.75 3.515-1.547 4.921-2.39v9.422c-1.875 1.5-3.89 2.671-6.047 3.515-2.062.938-4.874 1.406-8.437 1.406-6 0-10.547-1.781-13.641-5.343-3-3.657-4.5-8.485-4.5-14.485v-41.765h-13.5v-3.375c4.594-2.063 8.438-5.438 11.532-10.125 3.093-4.782 5.812-10.641 8.156-17.578h5.344zm73.265 18.843c7.125 0 13.453 1.688 18.985 5.063 5.531 3.375 9.843 7.875 12.937 13.5 3.188 5.625 4.781 11.765 4.781 18.422 0 6.656-1.593 12.796-4.781 18.422-3.094 5.531-7.406 9.984-12.937 13.359-5.532 3.375-11.86 5.062-18.985 5.062s-13.453-1.687-18.984-5.062c-5.531-3.375-9.891-7.828-13.078-13.359-3.094-5.626-4.641-11.766-4.641-18.422 0-6.657 1.547-12.797 4.641-18.422 3.187-5.625 7.547-10.125 13.078-13.5s11.859-5.063 18.984-5.063zm0 11.25c-4.969 0-9.328 1.219-13.078 3.657-3.75 2.343-6.656 5.484-8.719 9.421-1.968 3.844-2.953 8.063-2.953 12.657 0 4.5.985 8.718 2.953 12.656 2.063 3.844 4.969 6.984 8.719 9.422 3.75 2.344 8.109 3.515 13.078 3.515 5.063 0 9.422-1.171 13.078-3.515 3.75-2.438 6.61-5.578 8.579-9.422 2.062-3.938 3.093-8.156 3.093-12.656 0-4.594-1.031-8.813-3.093-12.657-1.969-3.937-4.829-7.078-8.579-9.421-3.656-2.438-8.015-3.657-13.078-3.657zm76.641-11.25c4.125 0 7.969.61 11.531 1.828 3.563 1.125 6.141 2.297 7.735 3.516V427c-1.969-1.5-4.641-2.953-8.016-4.359-3.375-1.407-6.844-2.11-10.406-2.11-4.407 0-7.735 1.031-9.985 3.094-2.156 2.063-3.234 4.219-3.234 6.469 0 1.781.609 3.609 1.828 5.484 1.313 1.781 3.563 3.234 6.75 4.36l11.813 4.218c4.593 1.594 8.015 3.891 10.265 6.891s3.375 6.515 3.375 10.547c0 3.937-1.125 7.547-3.375 10.828-2.156 3.281-5.203 5.906-9.141 7.875-3.843 1.875-8.296 2.812-13.359 2.812-2.719 0-5.578-.375-8.578-1.125-2.906-.656-5.531-1.453-7.875-2.39-2.344-1.032-4.078-1.922-5.203-2.672v-12.375c1.312.937 3.141 2.015 5.484 3.234 2.438 1.125 5.016 2.11 7.735 2.953 2.718.75 5.25 1.125 7.593 1.125 4.407 0 7.875-.984 10.407-2.953 2.625-1.968 3.937-4.406 3.937-7.312 0-2.25-.891-4.032-2.672-5.344-1.687-1.312-4.172-2.578-7.453-3.797l-10.406-3.797c-5.438-2.062-9.047-4.64-10.828-7.734-1.782-3.188-2.672-6.797-2.672-10.828 0-6 2.25-10.969 6.75-14.906 4.5-3.938 10.5-5.907 18-5.907zm85.359 1.407l24.61 51.75 23.906-51.75h13.781l-51.75 104.062h-13.359l20.109-37.969-31.078-66.093h13.781zm137.953-20.25v20.25h20.532v10.828h-20.532v41.203c0 2.906.75 5.203 2.25 6.89 1.5 1.688 3.797 2.532 6.891 2.532 2.813 0 5.156-.329 7.031-.985 1.875-.75 3.516-1.547 4.922-2.39v9.422c-1.875 1.5-3.89 2.671-6.047 3.515-2.062.938-4.875 1.406-8.437 1.406-6 0-10.547-1.781-13.641-5.343-3-3.657-4.5-8.485-4.5-14.485v-41.765h-13.5v-3.375c4.594-2.063 8.438-5.438 11.531-10.125 3.094-4.782 5.813-10.641 8.157-17.578h5.343zm73.266 18.843c7.125 0 13.453 1.688 18.984 5.063 5.532 3.375 9.844 7.875 12.938 13.5 3.187 5.625 4.781 11.765 4.781 18.422 0 6.656-1.594 12.796-4.781 18.422-3.094 5.531-7.406 9.984-12.938 13.359-5.531 3.375-11.859 5.062-18.984 5.062-7.125 0-13.453-1.687-18.984-5.062-5.532-3.375-9.891-7.828-13.078-13.359-3.094-5.626-4.641-11.766-4.641-18.422 0-6.657 1.547-12.797 4.641-18.422 3.187-5.625 7.546-10.125 13.078-13.5 5.531-3.375 11.859-5.063 18.984-5.063zm0 11.25c-4.969 0-9.328 1.219-13.078 3.657-3.75 2.343-6.656 5.484-8.719 9.421-1.969 3.844-2.953 8.063-2.953 12.657 0 4.5.984 8.718 2.953 12.656 2.063 3.844 4.969 6.984 8.719 9.422 3.75 2.344 8.109 3.515 13.078 3.515 5.062 0 9.422-1.171 13.078-3.515 3.75-2.438 6.61-5.578 8.578-9.422 2.063-3.938 3.094-8.156 3.094-12.656 0-4.594-1.031-8.813-3.094-12.657-1.968-3.937-4.828-7.078-8.578-9.421-3.656-2.438-8.016-3.657-13.078-3.657zm119.25-40.781V481h-11.53v-11.953c-2.44 3.75-5.77 7.031-9.99 9.844-4.12 2.812-8.85 4.218-14.2 4.218-6 0-11.48-1.5-16.45-4.5-4.97-3.093-8.955-7.359-11.955-12.797-2.906-5.437-4.359-11.718-4.359-18.843 0-7.781 1.453-14.485 4.359-20.11 3-5.625 7.075-9.937 12.235-12.937 5.16-3.094 10.92-4.641 17.3-4.641 4.03 0 8.11.985 12.23 2.953 4.22 1.875 7.83 4.5 10.83 7.875V379.75h11.53zm-32.48 41.062c-5.07 0-9.38 1.266-12.94 3.797-3.56 2.438-6.33 5.625-8.3 9.563-1.87 3.937-2.81 8.203-2.81 12.797 0 4.5.94 8.672 2.81 12.515 1.88 3.75 4.5 6.75 7.88 9 3.47 2.25 7.45 3.375 11.95 3.375 4.31 0 8.16-1.125 11.53-3.375 3.38-2.25 6.05-5.343 8.02-9.281 1.97-4.031 2.9-8.531 2.81-13.5l-.14-13.5c-2.91-3.656-6.05-6.469-9.42-8.437-3.28-1.969-7.08-2.954-11.39-2.954zm88.17-11.531c7.12 0 13.45 1.688 18.98 5.063 5.53 3.375 9.85 7.875 12.94 13.5 3.19 5.625 4.78 11.765 4.78 18.422 0 6.656-1.59 12.796-4.78 18.422-3.09 5.531-7.41 9.984-12.94 13.359-5.53 3.375-11.86 5.062-18.98 5.062-7.13 0-13.46-1.687-18.99-5.062-5.53-3.375-9.89-7.828-13.07-13.359-3.1-5.626-4.65-11.766-4.65-18.422 0-6.657 1.55-12.797 4.65-18.422 3.18-5.625 7.54-10.125 13.07-13.5s11.86-5.063 18.99-5.063zm0 11.25c-4.97 0-9.33 1.219-13.08 3.657-3.75 2.343-6.66 5.484-8.72 9.421-1.97 3.844-2.95 8.063-2.95 12.657 0 4.5.98 8.718 2.95 12.656 2.06 3.844 4.97 6.984 8.72 9.422 3.75 2.344 8.11 3.515 13.08 3.515 5.06 0 9.42-1.171 13.08-3.515 3.75-2.438 6.6-5.578 8.57-9.422 2.07-3.938 3.1-8.156 3.1-12.656 0-4.594-1.03-8.813-3.1-12.657-1.97-3.937-4.82-7.078-8.57-9.421-3.66-2.438-8.02-3.657-13.08-3.657zm126.84-11.25c7.22 0 13.22 1.5 18 4.5 4.78 3 8.34 7.078 10.69 12.235 2.44 5.156 3.65 10.968 3.65 17.437v6.891h-54c.57 3.937 1.93 7.547 4.08 10.828 2.16 3.281 4.97 5.906 8.44 7.875 3.47 1.875 7.45 2.812 11.95 2.812 5.07 0 9.8-1.265 14.21-3.797 4.4-2.624 8.11-5.484 11.11-8.578l-.14 12.516c-1.32 1.594-3.29 3.281-5.91 5.062-2.53 1.688-5.48 3.094-8.86 4.219-3.28 1.219-6.75 1.828-10.41 1.828-7.12 0-13.45-1.687-18.98-5.062-5.53-3.375-9.89-7.828-13.08-13.359-3.09-5.626-4.64-11.766-4.64-18.422 0-6.657 1.45-12.797 4.36-18.422s6.89-10.125 11.95-13.5c5.16-3.375 11.02-5.063 17.58-5.063zm0 11.25c-5.81 0-10.59 1.969-14.34 5.907-3.75 3.843-6.1 8.531-7.03 14.062h42.32c-.46-4.594-1.78-8.344-3.93-11.25-2.07-2.906-4.6-5.062-7.6-6.469-3-1.5-6.14-2.25-9.42-2.25zm62.86-40.781V481h-11.53V379.75h11.53zm102.52 30.938v10.828h-20.54V481h-11.53v-59.484h-11.11v-10.828h11.11v-9c0-5.532 1.08-10.032 3.24-13.5 2.15-3.563 4.92-6.188 8.29-7.876 3.38-1.781 6.8-2.671 10.27-2.671 4.78 0 8.67 1.265 11.67 3.797v10.124c-1.4-.937-3.09-1.687-5.06-2.25-1.97-.562-3.94-.796-5.91-.703-3.47.094-6.18 1.219-8.15 3.375-1.88 2.063-2.82 5.719-2.82 10.969v7.735h20.54zm72.84 0v41.624c0 6.188-1.31 11.532-3.94 16.032-2.62 4.5-6.18 7.968-10.68 10.406-4.5 2.438-9.57 3.656-15.19 3.656-5.63 0-10.69-1.218-15.19-3.656s-8.06-5.906-10.69-10.406c-2.62-4.5-3.93-9.844-3.93-16.032v-41.624h11.95v41.624c0 6.094 1.78 10.782 5.34 14.063 3.66 3.187 7.83 4.781 12.52 4.781 4.69 0 8.81-1.594 12.37-4.781 3.66-3.281 5.49-7.969 5.49-14.063v-41.624h11.95zm33.33 0v11.109c1.5-1.875 3.42-3.75 5.76-5.625 2.35-1.969 4.97-3.61 7.88-4.922 3-1.312 6.09-1.969 9.28-1.969 4.78 0 9.14 1.078 13.08 3.235 3.94 2.062 7.08 5.25 9.42 9.562 2.34 4.219 3.52 9.563 3.52 16.031V481h-11.54l-.14-41.766c0-6.093-1.36-10.734-4.07-13.922-2.63-3.187-6.71-4.781-12.24-4.781-3.75 0-7.5 1.407-11.25 4.219-3.65 2.719-6.89 5.906-9.7 9.562V481h-11.53v-70.312h11.53zm102.51-1.407c5.16 0 9.61.844 13.36 2.531 3.75 1.594 6.33 3.047 7.74 4.36v11.672c-2.63-1.969-5.63-3.656-9-5.063-3.38-1.5-7.41-2.25-12.1-2.25-4.96 0-9.32 1.219-13.07 3.657-3.75 2.343-6.66 5.484-8.72 9.421-1.97 3.844-2.96 8.063-2.96 12.657 0 4.5.99 8.718 2.96 12.656 2.06 3.844 4.97 6.984 8.72 9.422 3.75 2.344 8.11 3.515 13.07 3.515 4.69 0 8.72-.703 12.1-2.109 3.37-1.5 6.37-3.234 9-5.203v11.672c-1.41 1.406-3.99 2.906-7.74 4.5-3.75 1.593-8.2 2.39-13.36 2.39-7.12 0-13.45-1.687-18.98-5.062-5.53-3.375-9.89-7.828-13.08-13.359-3.09-5.626-4.64-11.766-4.64-18.422 0-6.657 1.55-12.797 4.64-18.422 3.19-5.625 7.55-10.125 13.08-13.5s11.86-5.063 18.98-5.063zm51.33-32.343c2.72 0 4.97.984 6.75 2.953 1.88 1.875 2.81 4.078 2.81 6.609 0 2.438-.93 4.641-2.81 6.609-1.78 1.969-4.03 2.953-6.75 2.953-2.72 0-5.01-.984-6.89-2.953-1.78-1.968-2.67-4.171-2.67-6.609 0-2.531.89-4.734 2.67-6.609 1.88-1.969 4.17-2.953 6.89-2.953zm7.17 33.75V481h-11.53v-59.484h-11.11v-10.828h22.64zm56.68-1.407c7.12 0 13.45 1.688 18.98 5.063 5.53 3.375 9.84 7.875 12.94 13.5 3.18 5.625 4.78 11.765 4.78 18.422 0 6.656-1.6 12.796-4.78 18.422-3.1 5.531-7.41 9.984-12.94 13.359-5.53 3.375-11.86 5.062-18.98 5.062-7.13 0-13.46-1.687-18.99-5.062-5.53-3.375-9.89-7.828-13.08-13.359-3.09-5.626-4.64-11.766-4.64-18.422 0-6.657 1.55-12.797 4.64-18.422 3.19-5.625 7.55-10.125 13.08-13.5s11.86-5.063 18.99-5.063zm0 11.25c-4.97 0-9.33 1.219-13.08 3.657-3.75 2.343-6.66 5.484-8.72 9.421-1.97 3.844-2.95 8.063-2.95 12.657 0 4.5.98 8.718 2.95 12.656 2.06 3.844 4.97 6.984 8.72 9.422 3.75 2.344 8.11 3.515 13.08 3.515 5.06 0 9.42-1.171 13.07-3.515 3.75-2.438 6.61-5.578 8.58-9.422 2.06-3.938 3.1-8.156 3.1-12.656 0-4.594-1.04-8.813-3.1-12.657-1.97-3.937-4.83-7.078-8.58-9.421-3.65-2.438-8.01-3.657-13.07-3.657zm67.21-9.843v11.109c1.5-1.875 3.43-3.75 5.77-5.625 2.34-1.969 4.97-3.61 7.88-4.922 3-1.312 6.09-1.969 9.28-1.969 4.78 0 9.14 1.078 13.07 3.235 3.94 2.062 7.08 5.25 9.43 9.562 2.34 4.219 3.51 9.563 3.51 16.031V481h-11.53l-.14-41.766c0-6.093-1.36-10.734-4.08-13.922-2.62-3.187-6.7-4.781-12.23-4.781-3.75 0-7.5 1.407-11.25 4.219-3.66 2.719-6.89 5.906-9.71 9.562V481h-11.53v-70.312h11.53zm99.71-1.407c4.03 0 8.11.985 12.23 2.953 4.22 1.875 7.83 4.5 10.83 7.875v-9.421h11.53V481h-11.53v-11.953c-2.44 3.75-5.77 7.031-9.98 9.844-4.13 2.812-8.86 4.218-14.21 4.218-6 0-11.48-1.5-16.45-4.5-4.97-3.093-8.95-7.359-11.95-12.797-2.91-5.437-4.36-11.718-4.36-18.843 0-7.781 1.45-14.485 4.36-20.11 3-5.625 7.07-9.937 12.23-12.937 5.16-3.094 10.92-4.641 17.3-4.641zm2.11 11.25c-5.07 0-9.38 1.266-12.94 3.797-3.56 2.531-6.33 5.813-8.3 9.844-1.87 3.937-2.81 8.203-2.81 12.797 0 4.5.94 8.672 2.81 12.515 1.88 3.75 4.5 6.75 7.88 9 3.47 2.25 7.45 3.375 11.95 3.375 4.31 0 8.16-1.125 11.53-3.375 3.38-2.25 6.05-5.343 8.02-9.281 1.97-4.031 2.9-8.531 2.81-13.5l-.14-13.5c-2.91-3.656-6.05-6.515-9.42-8.578-3.28-2.063-7.08-3.094-11.39-3.094zm67.92-9.843v9c2.25-2.532 5.11-4.876 8.58-7.032 3.56-2.25 7.73-3.375 12.51-3.375 5.06 0 9.8 1.219 14.21 3.657 4.4 2.343 7.78 5.906 10.12 10.687 3.28-3.937 6.84-7.313 10.69-10.125 3.84-2.812 8.34-4.219 13.5-4.219 4.78 0 9.23 1.078 13.36 3.235 4.22 2.062 7.59 5.25 10.12 9.562 2.63 4.219 3.94 9.563 3.94 16.031V481h-11.53l-.14-41.766c0-6.093-1.6-10.734-4.78-13.922-3.1-3.187-7.41-4.781-12.94-4.781-4.03 0-7.55 1.266-10.55 3.797-3 2.531-5.86 5.484-8.58 8.86V481h-11.53l-.14-41.766c0-6.093-1.59-10.734-4.78-13.922-3.09-3.187-7.41-4.781-12.94-4.781-3.84 0-7.36 1.125-10.54 3.375-3.1 2.25-5.96 4.969-8.58 8.156V481h-11.53v-70.312h11.53zm130.08-33.75c2.72 0 4.97.984 6.75 2.953 1.87 1.875 2.81 4.078 2.81 6.609 0 2.438-.94 4.641-2.81 6.609-1.78 1.969-4.03 2.953-6.75 2.953-2.72 0-5.02-.984-6.89-2.953-1.78-1.968-2.68-4.171-2.68-6.609 0-2.531.9-4.734 2.68-6.609 1.87-1.969 4.17-2.953 6.89-2.953zm7.17 33.75V481h-11.53v-59.484h-11.11v-10.828h22.64zm53.86-1.407c7.22 0 13.22 1.5 18 4.5 4.78 3 8.34 7.078 10.69 12.235 2.43 5.156 3.65 10.968 3.65 17.437v6.891h-54c.56 3.937 1.92 7.547 4.08 10.828 2.16 3.281 4.97 5.906 8.44 7.875 3.47 1.875 7.45 2.812 11.95 2.812 5.06 0 9.8-1.265 14.2-3.797 4.41-2.624 8.11-5.484 11.11-8.578l-.14 12.516c-1.31 1.594-3.28 3.281-5.9 5.062-2.54 1.688-5.49 3.094-8.86 4.219-3.28 1.219-6.75 1.828-10.41 1.828-7.12 0-13.45-1.687-18.98-5.062-5.53-3.375-9.89-7.828-13.08-13.359-3.1-5.626-4.64-11.766-4.64-18.422 0-6.657 1.45-12.797 4.36-18.422 2.9-5.625 6.89-10.125 11.95-13.5 5.16-3.375 11.02-5.063 17.58-5.063zm0 11.25c-5.81 0-10.6 1.969-14.35 5.907-3.75 3.843-6.09 8.531-7.03 14.062h42.33c-.47-4.594-1.78-8.344-3.94-11.25-2.06-2.906-4.59-5.062-7.59-6.469-3-1.5-6.14-2.25-9.42-2.25zm62.86-9.843v11.109c1.5-1.875 3.42-3.75 5.76-5.625 2.35-1.969 4.97-3.61 7.88-4.922 3-1.312 6.09-1.969 9.28-1.969 4.78 0 9.14 1.078 13.08 3.235 3.94 2.062 7.08 5.25 9.42 9.562 2.34 4.219 3.52 9.563 3.52 16.031V481h-11.54l-.14-41.766c0-6.093-1.36-10.734-4.08-13.922-2.62-3.187-6.7-4.781-12.23-4.781-3.75 0-7.5 1.407-11.25 4.219-3.66 2.719-6.89 5.906-9.7 9.562V481h-11.53v-70.312h11.53zm90.14-20.25v20.25h20.53v10.828h-20.53v41.203c0 2.906.75 5.203 2.25 6.89 1.5 1.688 3.79 2.532 6.89 2.532 2.81 0 5.16-.329 7.03-.985 1.87-.75 3.52-1.547 4.92-2.39v9.422c-1.87 1.5-3.89 2.671-6.05 3.515-2.06.938-4.87 1.406-8.43 1.406-6 0-10.55-1.781-13.64-5.343-3-3.657-4.5-8.485-4.5-14.485v-41.765h-13.5v-3.375c4.59-2.063 8.43-5.438 11.53-10.125 3.09-4.782 5.81-10.641 8.15-17.578h5.35zm73.26 18.843c7.13 0 13.46 1.688 18.99 5.063 5.53 3.375 9.84 7.875 12.94 13.5 3.18 5.625 4.78 11.765 4.78 18.422 0 6.656-1.6 12.796-4.78 18.422-3.1 5.531-7.41 9.984-12.94 13.359-5.53 3.375-11.86 5.062-18.99 5.062-7.12 0-13.45-1.687-18.98-5.062-5.53-3.375-9.89-7.828-13.08-13.359-3.09-5.626-4.64-11.766-4.64-18.422 0-6.657 1.55-12.797 4.64-18.422 3.19-5.625 7.55-10.125 13.08-13.5s11.86-5.063 18.98-5.063zm0 11.25c-4.96 0-9.32 1.219-13.07 3.657-3.75 2.343-6.66 5.484-8.72 9.421-1.97 3.844-2.96 8.063-2.96 12.657 0 4.5.99 8.718 2.96 12.656 2.06 3.844 4.97 6.984 8.72 9.422 3.75 2.344 8.11 3.515 13.07 3.515 5.07 0 9.43-1.171 13.08-3.515 3.75-2.438 6.61-5.578 8.58-9.422 2.06-3.938 3.09-8.156 3.09-12.656 0-4.594-1.03-8.813-3.09-12.657-1.97-3.937-4.83-7.078-8.58-9.421-3.65-2.438-8.01-3.657-13.08-3.657zm161.44-40.781V481h-11.53v-11.953c-2.44 3.75-5.77 7.031-9.98 9.844-4.13 2.812-8.86 4.218-14.21 4.218-6 0-11.48-1.5-16.45-4.5-4.97-3.093-8.95-7.359-11.95-12.797-2.91-5.437-4.36-11.718-4.36-18.843 0-7.781 1.45-14.485 4.36-20.11 3-5.625 7.07-9.937 12.23-12.937 5.16-3.094 10.92-4.641 17.3-4.641 4.03 0 8.11.985 12.23 2.953 4.22 1.875 7.83 4.5 10.83 7.875V379.75h11.53zm-32.48 41.062c-5.07 0-9.38 1.266-12.94 3.797-3.56 2.438-6.33 5.625-8.3 9.563-1.87 3.937-2.81 8.203-2.81 12.797 0 4.5.94 8.672 2.81 12.515 1.88 3.75 4.5 6.75 7.88 9 3.47 2.25 7.45 3.375 11.95 3.375 4.31 0 8.16-1.125 11.53-3.375 3.38-2.25 6.05-5.343 8.02-9.281 1.97-4.031 2.9-8.531 2.81-13.5l-.14-13.5c-2.91-3.656-6.05-6.469-9.42-8.437-3.28-1.969-7.08-2.954-11.39-2.954zm85.36-11.531c7.22 0 13.22 1.5 18 4.5 4.78 3 8.34 7.078 10.68 12.235 2.44 5.156 3.66 10.968 3.66 17.437v6.891h-54c.56 3.937 1.92 7.547 4.08 10.828 2.15 3.281 4.97 5.906 8.44 7.875 3.46 1.875 7.45 2.812 11.95 2.812 5.06 0 9.8-1.265 14.2-3.797 4.41-2.624 8.11-5.484 11.11-8.578l-.14 12.516c-1.31 1.594-3.28 3.281-5.91 5.062-2.53 1.688-5.48 3.094-8.85 4.219-3.29 1.219-6.76 1.828-10.41 1.828-7.13 0-13.45-1.687-18.99-5.062-5.53-3.375-9.89-7.828-13.07-13.359-3.1-5.626-4.64-11.766-4.64-18.422 0-6.657 1.45-12.797 4.35-18.422 2.91-5.625 6.9-10.125 11.96-13.5 5.15-3.375 11.01-5.063 17.58-5.063zm0 11.25c-5.82 0-10.6 1.969-14.35 5.907-3.75 3.843-6.09 8.531-7.03 14.062h42.33c-.47-4.594-1.78-8.344-3.94-11.25-2.06-2.906-4.59-5.062-7.59-6.469-3-1.5-6.14-2.25-9.42-2.25zm105.04-40.781V481h-11.53V379.75h11.53zm52.88 29.531c4.03 0 8.11.985 12.23 2.953 4.22 1.875 7.83 4.5 10.83 7.875v-9.421h11.53V481h-11.53v-11.953c-2.44 3.75-5.76 7.031-9.98 9.844-4.13 2.812-8.86 4.218-14.21 4.218-6 0-11.48-1.5-16.45-4.5-4.97-3.093-8.95-7.359-11.95-12.797-2.91-5.437-4.36-11.718-4.36-18.843 0-7.781 1.45-14.485 4.36-20.11 3-5.625 7.07-9.937 12.23-12.937 5.16-3.094 10.92-4.641 17.3-4.641zm2.11 11.25c-5.07 0-9.38 1.266-12.94 3.797-3.56 2.531-6.33 5.813-8.3 9.844-1.87 3.937-2.81 8.203-2.81 12.797 0 4.5.94 8.672 2.81 12.515 1.88 3.75 4.5 6.75 7.88 9 3.47 2.25 7.45 3.375 11.95 3.375 4.31 0 8.16-1.125 11.53-3.375 3.38-2.25 6.05-5.343 8.02-9.281 1.97-4.031 2.9-8.531 2.81-13.5l-.14-13.5c-2.91-3.656-6.05-6.515-9.42-8.578-3.28-2.063-7.08-3.094-11.39-3.094zM40.9219 582.281c7.2187 0 13.2187 1.5 18 4.5 4.7812 3 8.3437 7.078 10.6875 12.235 2.4375 5.156 3.6562 10.968 3.6562 17.437v6.891h-54c.5625 3.937 1.9219 7.547 4.0782 10.828 2.1562 3.281 4.9687 5.906 8.4374 7.875 3.4688 1.875 7.4532 2.812 11.9532 2.812 5.0625 0 9.7968-1.265 14.2031-3.797 4.4063-2.624 8.1094-5.484 11.1094-8.578L68.9062 645c-1.3124 1.594-3.2812 3.281-5.9062 5.062-2.5312 1.688-5.4844 3.094-8.8594 4.219-3.2812 1.219-6.75 1.828-10.4062 1.828-7.125 0-13.4532-1.687-18.9844-5.062s-9.8906-7.828-13.0781-13.359c-3.09378-5.626-4.64065-11.766-4.64065-18.422 0-6.657 1.45313-12.797 4.35935-18.422 2.9063-5.625 6.8906-10.125 11.9532-13.5 5.1562-3.375 11.0156-5.063 17.5781-5.063zm0 11.25c-5.8125 0-10.5938 1.969-14.3438 5.907-3.75 3.843-6.0937 8.531-7.0312 14.062H61.875c-.4688-4.594-1.7812-8.344-3.9375-11.25-2.0625-2.906-4.5937-5.062-7.5937-6.469-3-1.5-6.1407-2.25-9.4219-2.25zm62.8591-9.843v9c2.25-2.532 5.11-4.876 8.578-7.032 3.563-2.25 7.735-3.375 12.516-3.375 5.063 0 9.797 1.219 14.203 3.657 4.406 2.343 7.781 5.906 10.125 10.687 3.281-3.937 6.844-7.313 10.688-10.125 3.843-2.812 8.343-4.219 13.5-4.219 4.781 0 9.234 1.078 13.359 3.235 4.219 2.062 7.594 5.25 10.125 9.562 2.625 4.219 3.937 9.563 3.937 16.031V654h-11.531l-.14-41.766c0-6.093-1.594-10.734-4.782-13.922-3.093-3.187-7.406-4.781-12.937-4.781-4.031 0-7.547 1.266-10.547 3.797-3 2.531-5.859 5.484-8.578 8.86V654h-11.531l-.141-41.766c0-6.093-1.594-10.734-4.781-13.922-3.094-3.187-7.406-4.781-12.938-4.781-3.844 0-7.359 1.125-10.547 3.375-3.093 2.25-5.953 4.969-8.578 8.156V654H92.25v-70.312h11.531zm154.547-1.407c6.094 0 11.578 1.5 16.453 4.5 4.969 2.907 8.907 7.031 11.813 12.375 3 5.25 4.5 11.438 4.5 18.563 0 7.687-1.5 14.437-4.5 20.25-2.906 5.719-6.938 10.172-12.094 13.359-5.062 3.188-10.828 4.781-17.297 4.781-4.031 0-8.156-1.078-12.375-3.234-4.125-2.156-7.687-4.922-10.687-8.297v43.172h-11.532V583.688h11.532v11.953c2.437-3.75 5.718-6.891 9.843-9.422 4.219-2.625 9-3.938 14.344-3.938zm-1.828 11.25c-4.219 0-8.062 1.078-11.531 3.235-3.375 2.156-6.047 5.156-8.016 9-1.875 3.75-2.812 8.156-2.812 13.218l.14 13.5c3 3.657 6.141 6.657 9.422 9 3.281 2.25 7.078 3.375 11.391 3.375 5.062 0 9.375-1.312 12.937-3.937 3.563-2.625 6.281-6 8.157-10.125 1.968-4.219 2.953-8.578 2.953-13.078 0-4.594-.938-8.672-2.813-12.235-1.875-3.656-4.5-6.562-7.875-8.718-3.375-2.157-7.359-3.235-11.953-3.235zm65.109-9.843v14.062c2.719-4.688 6-8.438 9.844-11.25 3.844-2.812 7.781-4.219 11.813-4.219 2.718 0 5.156.469 7.312 1.407v13.359c-3-1.781-6-2.672-9-2.672-4.781 0-8.672 1.687-11.672 5.063-2.906 3.374-5.672 7.406-8.297 12.093V654h-11.531v-70.312h11.531zm72.703-1.407c7.219 0 13.219 1.5 18 4.5 4.782 3 8.344 7.078 10.688 12.235 2.438 5.156 3.656 10.968 3.656 17.437v6.891h-54c.563 3.937 1.922 7.547 4.078 10.828 2.157 3.281 4.969 5.906 8.438 7.875 3.469 1.875 7.453 2.812 11.953 2.812 5.063 0 9.797-1.265 14.203-3.797 4.406-2.624 8.11-5.484 11.11-8.578L422.297 645c-1.313 1.594-3.281 3.281-5.906 5.062-2.532 1.688-5.485 3.094-8.86 4.219-3.281 1.219-6.75 1.828-10.406 1.828-7.125 0-13.453-1.687-18.984-5.062-5.532-3.375-9.891-7.828-13.079-13.359-3.093-5.626-4.64-11.766-4.64-18.422 0-6.657 1.453-12.797 4.359-18.422 2.907-5.625 6.891-10.125 11.953-13.5 5.157-3.375 11.016-5.063 17.578-5.063zm0 11.25c-5.812 0-10.593 1.969-14.343 5.907-3.75 3.843-6.094 8.531-7.031 14.062h42.328c-.469-4.594-1.782-8.344-3.938-11.25-2.062-2.906-4.594-5.062-7.594-6.469-3-1.5-6.14-2.25-9.422-2.25zm72.282-11.25c4.125 0 7.968.61 11.531 1.828 3.563 1.125 6.141 2.297 7.734 3.516V600c-1.968-1.5-4.64-2.953-8.015-4.359-3.375-1.407-6.844-2.11-10.406-2.11-4.407 0-7.735 1.031-9.985 3.094-2.156 2.063-3.234 4.219-3.234 6.469 0 1.781.609 3.609 1.828 5.484 1.312 1.781 3.562 3.234 6.75 4.36l11.812 4.218c4.594 1.594 8.016 3.891 10.266 6.891s3.375 6.515 3.375 10.547c0 3.937-1.125 7.547-3.375 10.828-2.156 3.281-5.203 5.906-9.141 7.875-3.843 1.875-8.296 2.812-13.359 2.812-2.719 0-5.578-.375-8.578-1.125-2.906-.656-5.531-1.453-7.875-2.39-2.344-1.032-4.078-1.922-5.203-2.672v-12.375c1.312.937 3.14 2.015 5.484 3.234 2.438 1.125 5.016 2.11 7.735 2.953 2.718.75 5.25 1.125 7.593 1.125 4.407 0 7.875-.984 10.407-2.953 2.624-1.968 3.937-4.406 3.937-7.312 0-2.25-.891-4.032-2.672-5.344-1.687-1.312-4.172-2.578-7.453-3.797l-10.406-3.797c-5.438-2.062-9.047-4.64-10.828-7.734-1.782-3.188-2.672-6.797-2.672-10.828 0-6 2.25-10.969 6.75-14.906 4.5-3.938 10.5-5.907 18-5.907zm68.203 0c4.031 0 8.109.985 12.234 2.953 4.219 1.875 7.828 4.5 10.828 7.875v-9.421h11.532V654h-11.532v-11.953c-2.437 3.75-5.765 7.031-9.984 9.844-4.125 2.812-8.859 4.218-14.203 4.218-6 0-11.484-1.5-16.453-4.5-4.969-3.093-8.953-7.359-11.953-12.797-2.907-5.437-4.36-11.718-4.36-18.843 0-7.781 1.453-14.485 4.36-20.11 3-5.625 7.078-9.937 12.234-12.937 5.156-3.094 10.922-4.641 17.297-4.641zm2.109 11.25c-5.062 0-9.375 1.266-12.937 3.797-3.563 2.531-6.328 5.813-8.297 9.844-1.875 3.937-2.813 8.203-2.813 12.797 0 4.5.938 8.672 2.813 12.515 1.875 3.75 4.5 6.75 7.875 9 3.469 2.25 7.453 3.375 11.953 3.375 4.312 0 8.156-1.125 11.531-3.375s6.047-5.343 8.016-9.281c1.969-4.031 2.906-8.531 2.812-13.5l-.14-13.5c-2.907-3.656-6.047-6.515-9.422-8.578-3.281-2.063-7.078-3.094-11.391-3.094zm127.547-11.25c7.219 0 13.219 1.5 18 4.5 4.781 3 8.344 7.078 10.688 12.235 2.437 5.156 3.656 10.968 3.656 17.437v6.891h-54c.562 3.937 1.922 7.547 4.078 10.828 2.156 3.281 4.969 5.906 8.437 7.875 3.469 1.875 7.454 2.812 11.954 2.812 5.062 0 9.796-1.265 14.203-3.797 4.406-2.624 8.109-5.484 11.109-8.578l-.14 12.516c-1.313 1.594-3.282 3.281-5.907 5.062-2.531 1.688-5.484 3.094-8.859 4.219-3.281 1.219-6.75 1.828-10.406 1.828-7.125 0-13.454-1.687-18.985-5.062-5.531-3.375-9.89-7.828-13.078-13.359-3.094-5.626-4.641-11.766-4.641-18.422 0-6.657 1.454-12.797 4.36-18.422 2.906-5.625 6.89-10.125 11.953-13.5 5.156-3.375 11.016-5.063 17.578-5.063zm0 11.25c-5.812 0-10.594 1.969-14.344 5.907-3.75 3.843-6.093 8.531-7.031 14.062h42.328c-.468-4.594-1.781-8.344-3.937-11.25-2.063-2.906-4.594-5.062-7.594-6.469-3-1.5-6.141-2.25-9.422-2.25zm62.859-9.843v11.109c1.5-1.875 3.422-3.75 5.766-5.625 2.344-1.969 4.969-3.61 7.875-4.922 3-1.312 6.094-1.969 9.281-1.969 4.782 0 9.141 1.078 13.078 3.235 3.938 2.062 7.079 5.25 9.422 9.562 2.344 4.219 3.516 9.563 3.516 16.031V654h-11.531l-.141-41.766c0-6.093-1.359-10.734-4.078-13.922-2.625-3.187-6.703-4.781-12.234-4.781-3.75 0-7.5 1.407-11.25 4.219-3.657 2.719-6.891 5.906-9.704 9.562V654h-11.531v-70.312h11.531zm141.891-1.407c4.031 0 8.109.985 12.235 2.953 4.218 1.875 7.828 4.5 10.828 7.875v-9.421h11.531v68.906c0 8.344-1.688 15.281-5.063 20.812-3.375 5.532-7.875 9.656-13.5 12.375-5.625 2.719-11.765 4.078-18.422 4.078-4.312 0-8.015-.515-11.109-1.547-3-.937-5.578-2.156-7.734-3.656-2.157-1.406-4.125-2.765-5.907-4.078v-12.375c1.407 1.031 3.235 2.344 5.485 3.938 2.344 1.687 5.109 3.187 8.297 4.5 3.281 1.312 6.937 1.968 10.968 1.968 4.594 0 8.813-.843 12.657-2.531 3.843-1.687 6.937-4.172 9.281-7.453 2.344-3.281 3.516-7.219 3.516-11.813v-14.765c-2.438 3.75-5.766 7.031-9.985 9.844-4.125 2.812-8.859 4.218-14.203 4.218-6 0-11.484-1.5-16.453-4.5-4.969-3.093-8.953-7.359-11.953-12.797-2.906-5.437-4.36-11.718-4.36-18.843 0-7.781 1.454-14.485 4.36-20.11 3-5.625 7.078-9.937 12.234-12.937 5.156-3.094 10.922-4.641 17.297-4.641zm2.109 11.391c-5.062 0-9.374 1.266-12.937 3.797-3.563 2.437-6.328 5.672-8.297 9.703-1.875 3.937-2.812 8.203-2.812 12.797 0 4.5.937 8.625 2.812 12.375 1.875 3.75 4.5 6.75 7.875 9 3.469 2.25 7.453 3.375 11.953 3.375 4.313 0 8.156-1.125 11.532-3.375 3.374-2.25 6.046-5.344 8.015-9.282 1.969-3.937 2.906-8.39 2.813-13.359l-.141-13.5c-2.906-3.656-6.047-6.469-9.422-8.437-3.281-2.063-7.078-3.094-11.391-3.094zm85.36-11.391c7.219 0 13.219 1.5 18 4.5 4.781 3 8.344 7.078 10.687 12.235 2.438 5.156 3.657 10.968 3.657 17.437v6.891h-54c.562 3.937 1.922 7.547 4.078 10.828 2.156 3.281 4.968 5.906 8.437 7.875 3.469 1.875 7.453 2.812 11.953 2.812 5.063 0 9.797-1.265 14.204-3.797 4.406-2.624 8.109-5.484 11.109-8.578L984.656 645c-1.312 1.594-3.281 3.281-5.906 5.062-2.531 1.688-5.484 3.094-8.859 4.219-3.282 1.219-6.75 1.828-10.407 1.828-7.125 0-13.453-1.687-18.984-5.062-5.531-3.375-9.891-7.828-13.078-13.359-3.094-5.626-4.641-11.766-4.641-18.422 0-6.657 1.453-12.797 4.36-18.422 2.906-5.625 6.89-10.125 11.953-13.5 5.156-3.375 11.015-5.063 17.578-5.063zm0 11.25c-5.813 0-10.594 1.969-14.344 5.907-3.75 3.843-6.094 8.531-7.031 14.062h42.328c-.469-4.594-1.781-8.344-3.937-11.25-2.063-2.906-4.594-5.062-7.594-6.469-3-1.5-6.141-2.25-9.422-2.25zm62.858-9.843v11.109c1.5-1.875 3.42-3.75 5.77-5.625 2.34-1.969 4.97-3.61 7.87-4.922 3-1.312 6.1-1.969 9.28-1.969 4.78 0 9.14 1.078 13.08 3.235 3.94 2.062 7.08 5.25 9.42 9.562 2.35 4.219 3.52 9.563 3.52 16.031V654h-11.53l-.14-41.766c0-6.093-1.36-10.734-4.08-13.922-2.63-3.187-6.7-4.781-12.24-4.781-3.75 0-7.5 1.407-11.25 4.219-3.65 2.719-6.89 5.906-9.7 9.562V654H1008v-70.312h11.53zm99.7-1.407c7.22 0 13.22 1.5 18 4.5 4.79 3 8.35 7.078 10.69 12.235 2.44 5.156 3.66 10.968 3.66 17.437v6.891h-54c.56 3.937 1.92 7.547 4.08 10.828 2.15 3.281 4.96 5.906 8.43 7.875 3.47 1.875 7.46 2.812 11.96 2.812 5.06 0 9.79-1.265 14.2-3.797 4.41-2.624 8.11-5.484 11.11-8.578l-.14 12.516c-1.31 1.594-3.28 3.281-5.91 5.062-2.53 1.688-5.48 3.094-8.86 4.219-3.28 1.219-6.75 1.828-10.4 1.828-7.13 0-13.46-1.687-18.99-5.062-5.53-3.375-9.89-7.828-13.08-13.359-3.09-5.626-4.64-11.766-4.64-18.422 0-6.657 1.46-12.797 4.36-18.422 2.91-5.625 6.89-10.125 11.96-13.5 5.15-3.375 11.01-5.063 17.57-5.063zm0 11.25c-5.81 0-10.59 1.969-14.34 5.907-3.75 3.843-6.09 8.531-7.03 14.062h42.33c-.47-4.594-1.78-8.344-3.94-11.25-2.06-2.906-4.59-5.062-7.59-6.469-3-1.5-6.14-2.25-9.43-2.25zm62.86-9.843v14.062c2.72-4.688 6-8.438 9.85-11.25 3.84-2.812 7.78-4.219 11.81-4.219 2.72 0 5.16.469 7.31 1.407v13.359c-3-1.781-6-2.672-9-2.672-4.78 0-8.67 1.687-11.67 5.063-2.91 3.374-5.67 7.406-8.3 12.093V654h-11.53v-70.312h11.53zm72.71-1.407c4.03 0 8.11.985 12.23 2.953 4.22 1.875 7.83 4.5 10.83 7.875v-9.421h11.53V654h-11.53v-11.953c-2.44 3.75-5.77 7.031-9.98 9.844-4.13 2.812-8.86 4.218-14.21 4.218-6 0-11.48-1.5-16.45-4.5-4.97-3.093-8.95-7.359-11.95-12.797-2.91-5.437-4.36-11.718-4.36-18.843 0-7.781 1.45-14.485 4.36-20.11 3-5.625 7.07-9.937 12.23-12.937 5.16-3.094 10.92-4.641 17.3-4.641zm2.11 11.25c-5.07 0-9.38 1.266-12.94 3.797-3.56 2.531-6.33 5.813-8.3 9.844-1.87 3.937-2.81 8.203-2.81 12.797 0 4.5.94 8.672 2.81 12.515 1.88 3.75 4.5 6.75 7.88 9 3.47 2.25 7.45 3.375 11.95 3.375 4.31 0 8.16-1.125 11.53-3.375 3.38-2.25 6.05-5.343 8.02-9.281 1.97-4.031 2.9-8.531 2.81-13.5l-.14-13.5c-2.91-3.656-6.05-6.515-9.42-8.578-3.28-2.063-7.08-3.094-11.39-3.094zm67.92-40.781V654h-11.53V552.75h11.53zm70.03 30.938l24.61 51.75 23.91-51.75h13.78l-51.75 104.062h-13.36l20.11-37.969-31.08-66.093h13.78zm130.08-30.938V654h-11.53V552.75h11.53zm52.87 29.531c4.03 0 8.11.985 12.24 2.953 4.22 1.875 7.83 4.5 10.83 7.875v-9.421h11.53V654h-11.53v-11.953c-2.44 3.75-5.77 7.031-9.99 9.844-4.12 2.812-8.86 4.218-14.2 4.218-6 0-11.49-1.5-16.46-4.5-4.96-3.093-8.95-7.359-11.95-12.797-2.9-5.437-4.36-11.718-4.36-18.843 0-7.781 1.46-14.485 4.36-20.11 3-5.625 7.08-9.937 12.24-12.937 5.15-3.094 10.92-4.641 17.29-4.641zm2.11 11.25c-5.06 0-9.37 1.266-12.94 3.797-3.56 2.531-6.32 5.813-8.29 9.844-1.88 3.937-2.81 8.203-2.81 12.797 0 4.5.93 8.672 2.81 12.515 1.87 3.75 4.5 6.75 7.87 9 3.47 2.25 7.46 3.375 11.96 3.375 4.31 0 8.15-1.125 11.53-3.375 3.37-2.25 6.04-5.343 8.01-9.281 1.97-4.031 2.91-8.531 2.82-13.5l-.15-13.5c-2.9-3.656-6.04-6.515-9.42-8.578-3.28-2.063-7.08-3.094-11.39-3.094zm130.36-11.25c5.16 0 9.61.844 13.36 2.531 3.75 1.594 6.33 3.047 7.74 4.36v11.672c-2.63-1.969-5.63-3.656-9-5.063-3.38-1.5-7.41-2.25-12.1-2.25-4.97 0-9.33 1.219-13.08 3.657-3.75 2.343-6.65 5.484-8.72 9.421-1.96 3.844-2.95 8.063-2.95 12.657 0 4.5.99 8.718 2.95 12.656 2.07 3.844 4.97 6.984 8.72 9.422 3.75 2.344 8.11 3.515 13.08 3.515 4.69 0 8.72-.703 12.1-2.109 3.37-1.5 6.37-3.234 9-5.203v11.672c-1.41 1.406-3.99 2.906-7.74 4.5-3.75 1.593-8.2 2.39-13.36 2.39-7.12 0-13.45-1.687-18.98-5.062-5.53-3.375-9.89-7.828-13.08-13.359-3.1-5.626-4.64-11.766-4.64-18.422 0-6.657 1.54-12.797 4.64-18.422 3.19-5.625 7.55-10.125 13.08-13.5s11.86-5.063 18.98-5.063zm71.86 0c7.13 0 13.45 1.688 18.98 5.063 5.54 3.375 9.85 7.875 12.94 13.5 3.19 5.625 4.78 11.765 4.78 18.422 0 6.656-1.59 12.796-4.78 18.422-3.09 5.531-7.4 9.984-12.94 13.359-5.53 3.375-11.85 5.062-18.98 5.062-7.12 0-13.45-1.687-18.98-5.062-5.54-3.375-9.89-7.828-13.08-13.359-3.1-5.626-4.64-11.766-4.64-18.422 0-6.657 1.54-12.797 4.64-18.422 3.19-5.625 7.54-10.125 13.08-13.5 5.53-3.375 11.86-5.063 18.98-5.063zm0 11.25c-4.97 0-9.33 1.219-13.08 3.657-3.75 2.343-6.65 5.484-8.72 9.421-1.96 3.844-2.95 8.063-2.95 12.657 0 4.5.99 8.718 2.95 12.656 2.07 3.844 4.97 6.984 8.72 9.422 3.75 2.344 8.11 3.515 13.08 3.515 5.06 0 9.42-1.171 13.08-3.515 3.75-2.438 6.61-5.578 8.58-9.422 2.06-3.938 3.09-8.156 3.09-12.656 0-4.594-1.03-8.813-3.09-12.657-1.97-3.937-4.83-7.078-8.58-9.421-3.66-2.438-8.02-3.657-13.08-3.657zm67.22-9.843v11.109c1.5-1.875 3.42-3.75 5.76-5.625 2.35-1.969 4.97-3.61 7.88-4.922 3-1.312 6.09-1.969 9.28-1.969 4.78 0 9.14 1.078 13.08 3.235 3.94 2.062 7.08 5.25 9.42 9.562 2.34 4.219 3.52 9.563 3.52 16.031V654h-11.53l-.15-41.766c0-6.093-1.35-10.734-4.07-13.922-2.63-3.187-6.71-4.781-12.24-4.781-3.75 0-7.5 1.407-11.25 4.219-3.65 2.719-6.89 5.906-9.7 9.562V654h-11.53v-70.312h11.53zm90.14-20.25v20.25h20.53v10.828h-20.53v41.203c0 2.906.75 5.203 2.25 6.89 1.5 1.688 3.8 2.532 6.89 2.532 2.81 0 5.16-.329 7.03-.985 1.88-.75 3.52-1.547 4.92-2.39v9.422c-1.87 1.5-3.89 2.671-6.04 3.515-2.07.938-4.88 1.406-8.44 1.406-6 0-10.55-1.781-13.64-5.343-3-3.657-4.5-8.485-4.5-14.485v-41.765h-13.5v-3.375c4.59-2.063 8.44-5.438 11.53-10.125 3.09-4.782 5.81-10.641 8.16-17.578h5.34zm70.45 18.843c4.03 0 8.11.985 12.24 2.953 4.22 1.875 7.83 4.5 10.83 7.875v-9.421h11.53V654h-11.53v-11.953c-2.44 3.75-5.77 7.031-9.99 9.844-4.12 2.812-8.86 4.218-14.2 4.218-6 0-11.49-1.5-16.45-4.5-4.97-3.093-8.96-7.359-11.96-12.797-2.9-5.437-4.36-11.718-4.36-18.843 0-7.781 1.46-14.485 4.36-20.11 3-5.625 7.08-9.937 12.24-12.937 5.15-3.094 10.92-4.641 17.29-4.641zm2.11 11.25c-5.06 0-9.37 1.266-12.94 3.797-3.56 2.531-6.32 5.813-8.29 9.844-1.88 3.937-2.81 8.203-2.81 12.797 0 4.5.93 8.672 2.81 12.515 1.87 3.75 4.5 6.75 7.87 9 3.47 2.25 7.46 3.375 11.96 3.375 4.31 0 8.15-1.125 11.53-3.375 3.37-2.25 6.04-5.343 8.01-9.281 1.97-4.031 2.91-8.531 2.82-13.5l-.14-13.5c-2.91-3.656-6.05-6.515-9.43-8.578-3.28-2.063-7.07-3.094-11.39-3.094zm90.99-11.25c6.47 0 12.23 1.547 17.29 4.641 5.16 3 9.19 7.312 12.1 12.937 3 5.625 4.5 12.329 4.5 20.11 0 7.125-1.5 13.406-4.5 18.843-2.91 5.438-6.85 9.704-11.82 12.797-4.87 3-10.35 4.5-16.45 4.5-5.34 0-10.12-1.406-14.34-4.218-4.13-2.813-7.41-6.094-9.85-9.844V654h-11.53V552.75h11.53v40.359c3-3.375 6.57-6 10.69-7.875 4.22-1.968 8.35-2.953 12.38-2.953zm-2.11 11.391c-4.32 0-8.11 1.031-11.39 3.094-3.28 1.968-6.43 4.781-9.43 8.437l-.14 13.5c0 4.969.94 9.422 2.82 13.359 1.97 3.938 4.64 7.032 8.01 9.282 3.47 2.25 7.31 3.375 11.53 3.375 4.6 0 8.58-1.125 11.96-3.375 3.37-2.25 6-5.25 7.87-9 1.88-3.75 2.81-7.875 2.81-12.375 0-4.594-.98-8.86-2.95-12.797-1.87-4.031-4.59-7.266-8.15-9.703-3.57-2.531-7.88-3.797-12.94-3.797zm66.23-43.734c2.72 0 4.97.984 6.75 2.953 1.88 1.875 2.81 4.078 2.81 6.609 0 2.438-.93 4.641-2.81 6.609-1.78 1.969-4.03 2.953-6.75 2.953-2.72 0-5.01-.984-6.89-2.953-1.78-1.968-2.67-4.171-2.67-6.609 0-2.531.89-4.734 2.67-6.609 1.88-1.969 4.17-2.953 6.89-2.953zm7.17 33.75V654h-11.53v-59.484h-11.11v-10.828h22.64zm36.43-30.938V654h-11.54V552.75h11.54zm35.15-2.812c2.72 0 4.97.984 6.75 2.953 1.88 1.875 2.81 4.078 2.81 6.609 0 2.438-.93 4.641-2.81 6.609-1.78 1.969-4.03 2.953-6.75 2.953-2.72 0-5.01-.984-6.89-2.953-1.78-1.968-2.67-4.171-2.67-6.609 0-2.531.89-4.734 2.67-6.609 1.88-1.969 4.17-2.953 6.89-2.953zm7.17 33.75V654h-11.53v-59.484h-11.11v-10.828h22.64zm88.46-30.938V654h-11.53v-11.953c-2.44 3.75-5.77 7.031-9.99 9.844-4.12 2.812-8.86 4.218-14.2 4.218-6 0-11.49-1.5-16.45-4.5-4.97-3.093-8.96-7.359-11.96-12.797-2.9-5.437-4.36-11.718-4.36-18.843 0-7.781 1.46-14.485 4.36-20.11 3-5.625 7.08-9.937 12.24-12.937 5.15-3.094 10.92-4.641 17.29-4.641 4.03 0 8.11.985 12.24 2.953 4.22 1.875 7.83 4.5 10.83 7.875V552.75h11.53zm-32.49 41.062c-5.06 0-9.37 1.266-12.94 3.797-3.56 2.438-6.32 5.625-8.29 9.563-1.88 3.937-2.81 8.203-2.81 12.797 0 4.5.93 8.672 2.81 12.515 1.87 3.75 4.5 6.75 7.87 9 3.47 2.25 7.46 3.375 11.96 3.375 4.31 0 8.15-1.125 11.53-3.375 3.37-2.25 6.04-5.343 8.01-9.281 1.97-4.031 2.91-8.531 2.82-13.5l-.14-13.5c-2.91-3.656-6.05-6.469-9.43-8.437-3.28-1.969-7.07-2.954-11.39-2.954zm85.36-11.531c4.03 0 8.11.985 12.24 2.953 4.22 1.875 7.82 4.5 10.82 7.875v-9.421h11.54V654h-11.54v-11.953c-2.43 3.75-5.76 7.031-9.98 9.844-4.12 2.812-8.86 4.218-14.2 4.218-6 0-11.49-1.5-16.46-4.5-4.96-3.093-8.95-7.359-11.95-12.797-2.91-5.437-4.36-11.718-4.36-18.843 0-7.781 1.45-14.485 4.36-20.11 3-5.625 7.08-9.937 12.23-12.937 5.16-3.094 10.93-4.641 17.3-4.641zm2.11 11.25c-5.06 0-9.37 1.266-12.94 3.797-3.56 2.531-6.32 5.813-8.29 9.844-1.88 3.937-2.82 8.203-2.82 12.797 0 4.5.94 8.672 2.82 12.515 1.87 3.75 4.5 6.75 7.87 9 3.47 2.25 7.45 3.375 11.95 3.375 4.32 0 8.16-1.125 11.54-3.375 3.37-2.25 6.04-5.343 8.01-9.281 1.97-4.031 2.91-8.531 2.81-13.5l-.14-13.5c-2.9-3.656-6.04-6.515-9.42-8.578-3.28-2.063-7.08-3.094-11.39-3.094zm119.95-40.781V654h-11.53v-11.953c-2.43 3.75-5.76 7.031-9.98 9.844-4.13 2.812-8.86 4.218-14.2 4.218-6 0-11.49-1.5-16.46-4.5-4.97-3.093-8.95-7.359-11.95-12.797-2.91-5.437-4.36-11.718-4.36-18.843 0-7.781 1.45-14.485 4.36-20.11 3-5.625 7.08-9.937 12.23-12.937 5.16-3.094 10.93-4.641 17.3-4.641 4.03 0 8.11.985 12.23 2.953 4.22 1.875 7.83 4.5 10.83 7.875V552.75h11.53zM2484 593.812c-5.06 0-9.38 1.266-12.94 3.797-3.56 2.438-6.33 5.625-8.29 9.563-1.88 3.937-2.82 8.203-2.82 12.797 0 4.5.94 8.672 2.82 12.515 1.87 3.75 4.5 6.75 7.87 9 3.47 2.25 7.45 3.375 11.95 3.375 4.32 0 8.16-1.125 11.53-3.375 3.38-2.25 6.05-5.343 8.02-9.281 1.97-4.031 2.91-8.531 2.81-13.5l-.14-13.5c-2.9-3.656-6.04-6.469-9.42-8.437-3.28-1.969-7.08-2.954-11.39-2.954zm65.53 43.032c2.72 0 5.02.984 6.89 2.953 1.97 1.875 2.96 4.172 2.96 6.891 0 2.624-.99 4.921-2.96 6.89-1.87 1.969-4.17 2.953-6.89 2.953-2.72 0-5.06-.984-7.03-2.953-1.88-1.969-2.81-4.266-2.81-6.89 0-2.719.93-5.016 2.81-6.891 1.97-1.969 4.31-2.953 7.03-2.953z" fill="#000"/></svg>